<svg xmlns="http://www.w3.org/2000/svg" viewBox="0 0 233.65 125.78"><defs><style>.cls-1{fill:#ede3d6;}.cls-2,.cls-3{fill:#d8d8d8;}.cls-3{fill-rule:evenodd;}</style></defs><title>profile-asset_3</title><g id="Layer_2" data-name="Layer 2"><g id="Layer_1-2" data-name="Layer 1"><path class="cls-1" d="M230.38,27.82c-2.71,14.66-6,32.39-4.91,39.15a1.35,1.35,0,0,1-1.12,1.54.46.46,0,0,1-.2,0c-1.72,0-3.48,0-5.31-.18.07-.89.13-1.79.17-2.7.08-1.58.13-3.18.14-4.81,0-2.68,0-5.39-.16-8.14,0-.78-.08-1.57-.14-2.36s-.11-1.85-.18-2.77A277.18,277.18,0,0,0,213,10.81c-.22-1-.44-2-.65-2.91-.3-1.33-.6-2.58-.88-3.77-.24-1-.48-2-.71-2.87,2.38.43,4.83.94,7.27,1.45a124.28,124.28,0,0,0,14.37,2.46,1.35,1.35,0,0,1,1.24,1.39C233.7,9.91,232.16,18.21,230.38,27.82Z"/><path class="cls-2" d="M233.65,6.56a1.35,1.35,0,0,0-1.24-1.39A124.28,124.28,0,0,1,218,2.71c-2.44-.51-4.89-1-7.27-1.45-4.84-.9-9.34-1.5-12.67-1.17H198a1.34,1.34,0,0,0-1.21,1.4c.24,5.91-2.52,19.71-5.19,33-1.19,6-2.37,11.88-3.25,16.92a80.71,80.71,0,0,0-1.46,11.9,1.34,1.34,0,0,0,1.35,1.35,118.83,118.83,0,0,1,16.47,1.85c3.31.52,6.66,1,9.94,1.43,1.42.17,2.82.3,4.19.41,1.83.14,3.59.2,5.31.18a.46.46,0,0,0,.2,0A1.35,1.35,0,0,0,225.47,67c-1.07-6.76,2.2-24.49,4.91-39.15C232.16,18.21,233.7,9.91,233.65,6.56Zm-11,59.27c-1.18,0-2.39-.08-3.62-.18-4.47-.33-9.22-1.08-13.88-1.8A132.47,132.47,0,0,0,189.64,62c.33-5.56,2.43-16.09,4.61-27,2.51-12.55,5.12-25.57,5.24-32.3a60,60,0,0,1,12,1.42l6,1.22c4.77,1,9.49,2,13.42,2.39-.23,3.69-1.6,11.13-3.18,19.59C225.16,41.22,222.1,57.81,222.63,65.83Z"/><path class="cls-2" d="M225,10.44a89.78,89.78,0,0,1-9.16-1.77l-3.45-.77A66.8,66.8,0,0,0,205,6.64c-1.47-.15-2.38-.11-3.16.52s-1,1.51-1.25,3.08c-.6,4.31-1.95,11.74-3.26,18.9-.94,5.18-1.87,10.21-2.45,13.83a4.57,4.57,0,0,0,.36,3.19,3,3,0,0,0,2.66,1.4c2.41.08,6,.49,9.69,1s7.76,1.18,10.94,1.71l.35.06a3.27,3.27,0,0,0,2.72-.71,3.54,3.54,0,0,0,1-2.53c.29-5.12,1.93-13.3,3.41-20.68.85-4.25,1.65-8.23,2.11-11.26.05-.28.09-.53.13-.74s.11-.67.14-.9C228.57,11.44,228.09,10.78,225,10.44Zm.57,3.5c0,.25-.1.53-.14.81-.46,3-1.25,6.92-2.1,11.14-1.51,7.5-3.17,15.81-3.46,21.06a1.5,1.5,0,0,1-.12.71c-.05,0-.28.05-.78,0l-.27,0c-3.17-.53-7-1.15-10.73-1.67s-7.49-1-10-1c-.26,0-.42,0-.45-.09a2.73,2.73,0,0,1,0-1.37c.6-3.6,1.52-8.63,2.45-13.78,1.33-7.21,2.69-14.68,3.29-19a5,5,0,0,1,.27-1.35,6.38,6.38,0,0,1,1.18.07A71.44,71.44,0,0,1,213,10.81l2.2.5a92.77,92.77,0,0,0,9.46,1.81c.83.09,1,.07,1,.09C225.62,13.45,225.58,13.67,225.54,13.94Z"/><path class="cls-2" d="M212.5,52l-.08-.07a7.14,7.14,0,0,0-4.48-1.89h0a5.08,5.08,0,0,0-.95,0,5.23,5.23,0,0,0-3.66,1.72,6,6,0,0,0-1.5,3.4,6.59,6.59,0,0,0,0,.89,5.67,5.67,0,0,0,2.27,4.08,6.34,6.34,0,0,0,8.06,0,4.93,4.93,0,0,0,1.77-3.36h0A5.74,5.74,0,0,0,212.5,52Zm-1.29,4.46h0a2.31,2.31,0,0,1-.81,1.58,3.76,3.76,0,0,1-2,.78l-.17,0a3.85,3.85,0,0,1-2.48-.88,2.94,2.94,0,0,1-1.24-2.08,1.61,1.61,0,0,1,0-.49,3.22,3.22,0,0,1,.79-1.85,2.7,2.7,0,0,1,1.81-.83,3.33,3.33,0,0,1,.54,0h0a4.59,4.59,0,0,1,2.83,1.06l0,.06A3.21,3.21,0,0,1,211.21,56.5Z"/><path class="cls-2" d="M201.38,49.32a7.33,7.33,0,0,0-6.7,1.75,4.56,4.56,0,0,0-1.15,2.09,4.09,4.09,0,0,0,.21,2.43c.67,1.67,2.51,3.22,5.86,4a1.36,1.36,0,0,0,1-.09,1.34,1.34,0,0,0,.62-1.8,3.57,3.57,0,0,0-.17-.33,4.08,4.08,0,0,1,1-5.68,1.34,1.34,0,0,0-.63-2.35ZM197.59,56a3,3,0,0,1-1.35-1.4,1.3,1.3,0,0,1-.07-.82,1.83,1.83,0,0,1,.47-.84A3.37,3.37,0,0,1,198.2,52,5.53,5.53,0,0,0,197.59,56Z"/><path class="cls-2" d="M220.94,54.72a4.9,4.9,0,0,0-1.95-2,7.16,7.16,0,0,0-2.63-.92,1.34,1.34,0,0,0-1.54,1.12,1.29,1.29,0,0,0,0,.34,1.31,1.31,0,0,0,.32.75,2.92,2.92,0,0,1,.63,2.36,7.42,7.42,0,0,1-1.68,3.51,1.35,1.35,0,0,0,.2,1.89,1.31,1.31,0,0,0,.89.31h0a7.5,7.5,0,0,0,4-1.23,5.87,5.87,0,0,0,1.45-1.45,4.83,4.83,0,0,0,.81-2.28A4.47,4.47,0,0,0,220.94,54.72Zm-2.22,2.16a2.09,2.09,0,0,1-.36,1,3.17,3.17,0,0,1-.29.35,8.11,8.11,0,0,0,.37-1.51,5.79,5.79,0,0,0,.06-.83l0,.06A1.81,1.81,0,0,1,218.72,56.88Z"/><path class="cls-1" d="M114.08,74.05v.06a1.21,1.21,0,0,1,0,.18.66.66,0,0,1-.89.3,72.9,72.9,0,0,1-6.91-4.54l-.21-.14c-.07-.6-.15-1.2-.25-1.81-.13-.86-.28-1.72-.44-2.6a.7.7,0,0,0,0-.14c-.08-.44-.16-.88-.25-1.32s-.16-.8-.25-1.21c-.48-2.28-1-4.59-1.65-6.85-.35-1.3-.72-2.6-1.09-3.86-.29-1-.58-1.92-.87-2.86-.14-.43-.28-.87-.41-1.29s-.24-.73-.36-1.08c-.66-2-1.31-3.83-1.91-5.45l.37,0a.67.67,0,0,1,.54.42A61,61,0,0,0,102.53,48h0a.61.61,0,0,1,.23.41c.92,1.6,1.94,3.29,3,5a62.3,62.3,0,0,0,6.53,8.95.31.31,0,0,1,.1.12.16.16,0,0,1,0,.07.1.1,0,0,1,0,.07.05.05,0,0,1,0,0l0,.19C112.88,64.3,114.38,70.44,114.08,74.05Z"/><path class="cls-2" d="M112.52,62.8l0-.19a.05.05,0,0,0,0,0,.1.1,0,0,0,0-.07.16.16,0,0,0,0-.07.31.31,0,0,0-.1-.12,62.3,62.3,0,0,1-6.53-8.95c-1.05-1.67-2.07-3.36-3-5l-.23-.41h0a61,61,0,0,1-3.12-6.09.67.67,0,0,0-.54-.42l-.37,0a10.29,10.29,0,0,0-4.79,1.41c-2.08,1.11-3.88,2.69-4.17,3.69a.68.68,0,0,0,.23.7c.81.76,4.31,6.39,7.79,12,2,3.13,3.88,6.26,5.31,8.45a.64.64,0,0,0,.2.2l0,0c.7.45,1.75,1.19,2.91,2l.21.14a72.9,72.9,0,0,0,6.91,4.54.66.66,0,0,0,.89-.3,1.21,1.21,0,0,0,0-.18v-.06C114.38,70.44,112.88,64.3,112.52,62.8Zm-6.76,5.3c-.57-.4-1.1-.77-1.57-1.08l-.27-.19c-.21-.31-.42-.64-.64-1-1.37-2.14-3-4.73-4.59-7.33-1.17-1.88-2.34-3.75-3.42-5.45l-.83-1.32c-1.51-2.39-2.78-4.3-3.47-5.15A10.29,10.29,0,0,1,94.34,44a9.38,9.38,0,0,1,4-1.26c.46,1.06,1.18,2.5,2.07,4.13.18.33.37.69.58,1s.46.82.71,1.25c.9,1.57,1.9,3.25,2.94,4.88a76.71,76.71,0,0,0,5.66,8c.32.39.64.73.93,1h0c0,.07,0,.15.06.25A67.46,67.46,0,0,1,112.58,70a27.15,27.15,0,0,1,.21,2.86c-.69-.41-1.52-1-2.41-1.57-1.11-.74-2.29-1.58-3.39-2.36Z"/><path class="cls-2" d="M102.16,49.15l-.46,0a4.34,4.34,0,0,0-.52.07,8.69,8.69,0,0,0-1,.2,8.73,8.73,0,0,0-2.58,1,6.05,6.05,0,0,0-.69.49,5,5,0,0,0-1,.95,4,4,0,0,0-.65,1.13q0,.1-.09.24a.67.67,0,0,1-1.27-.41,5.45,5.45,0,0,1,.53-1.15,7,7,0,0,1,2.42-2.38,11.17,11.17,0,0,1,3.91-1.4l.22,0c.35-.06.72-.09,1.08-.12a.66.66,0,0,1,.46.15h0a.61.61,0,0,1,.23.41s0,0,0,0A.67.67,0,0,1,102.16,49.15Z"/><path class="cls-2" d="M109.14,62.26a.7.7,0,0,0-.08-.14c-.3-.41-1.15-1.64-2.24-3.19-1.44-2.06-3.28-4.7-4.77-6.81-.77-1.08-1.44-2-1.91-2.66l-.28-.37a.65.65,0,0,0-.92-.13.67.67,0,0,0-.14.92c.78,1,2.55,3.54,4.34,6.1.9,1.28,1.81,2.58,2.59,3.71l2.07,3a2.09,2.09,0,0,1,.18.25.67.67,0,0,0,1.16-.64Zm-3.45,2.13c-.1-.19-.21-.38-.32-.57s-.38-.65-.58-1C103.74,61,102.47,59,101.14,57s-2.91-4.27-4.27-6l-.11-.13a.67.67,0,1,0-1,.84l.2.24c1.31,1.65,2.74,3.69,4.11,5.75,1.61,2.44,3.13,4.93,4.27,6.94l.23.41a.67.67,0,0,0,.76.32l.15-.06A.66.66,0,0,0,105.69,64.39Z"/><path class="cls-3" d="M110.13,71.9a28.92,28.92,0,0,0,3.29,2.1,24.87,24.87,0,0,0-.27-4c-1.59.1-2.72.77-3,1.93Z"/><path class="cls-2" d="M112.48,62.93a.67.67,0,0,1-.81.48l-.17,0-.21,0a9,9,0,0,0-4.06,1,8.69,8.69,0,0,0-1.91,1.19A3.65,3.65,0,0,0,104.19,67a.83.83,0,0,0-.06.21,1.16,1.16,0,0,0,0,.18.67.67,0,0,1-.76.56.59.59,0,0,1-.26-.1.64.64,0,0,1-.29-.65,2.87,2.87,0,0,1,0-.31,3.64,3.64,0,0,1,.45-1.06,5.8,5.8,0,0,1,1-1.22A7.36,7.36,0,0,1,105,64a3.78,3.78,0,0,1,.33-.22,9,9,0,0,1,1.29-.71c.37-.17.76-.33,1.14-.46a10.09,10.09,0,0,1,1.34-.39,10.46,10.46,0,0,1,1.16-.2,5.81,5.81,0,0,1,1.39,0l.3,0a.62.62,0,0,1,.3.18.31.31,0,0,1,.1.12.16.16,0,0,1,0,.07.1.1,0,0,1,0,.07A.58.58,0,0,1,112.48,62.93Z"/><path class="cls-1" d="M158,17.84a29.51,29.51,0,0,1-6.65,11.65,20.89,20.89,0,0,0-.38-2.6,32.53,32.53,0,0,0-2.68-7.71c-.31-.63-.64-1.26-1-1.88a3.56,3.56,0,0,0,1.2-.22h0l.07,0a4.11,4.11,0,0,0,2-1.74,3.1,3.1,0,0,0,.27-2.25l0-.09a3.91,3.91,0,0,0-1.74-2.66,4.54,4.54,0,0,0-3.26-.21l-.1,0a3.1,3.1,0,0,0-.46.15l-.08,0a3,3,0,0,0-1.46,1.33q-.63-.85-1.26-1.68c-.92-1.17-1.84-2.28-2.74-3.31l-1.33-1.48a11.91,11.91,0,0,1,5.14-2.25,13.35,13.35,0,0,1,7.61.85,11.25,11.25,0,0,1,2.54,1.54,15.5,15.5,0,0,1,3.85,6.22A10.59,10.59,0,0,1,158,17.84Z"/><path class="cls-2" d="M157.52,11.51a15.5,15.5,0,0,0-3.85-6.22,11.25,11.25,0,0,0-2.54-1.54,13.35,13.35,0,0,0-7.61-.85,11.91,11.91,0,0,0-5.14,2.25,10.79,10.79,0,0,0-1.82,1.76,11.61,11.61,0,0,0-1.15,1.71,20.13,20.13,0,0,0-7.31-2.35,11.27,11.27,0,0,0-7.18,1.35,11.44,11.44,0,0,0-3.2,2.83,10.58,10.58,0,0,0-1.9,7.8A17.48,17.48,0,0,0,118.24,25a10.25,10.25,0,0,0,2.3,2.77c3.4,2.57,7.49,4.25,11.1,5.74s6.67,2.74,7.75,4.31a1,1,0,0,0,1.37.26h0l.88-.62a57.26,57.26,0,0,0,9.72-8A29.51,29.51,0,0,0,158,17.84,10.59,10.59,0,0,0,157.52,11.51Zm-1.39,5.76A27.67,27.67,0,0,1,151,26.89c-3.13,3.8-6.93,6.48-10.47,9l-.16.11c-1.64-1.66-4.6-2.88-8-4.26s-7.48-3.08-10.66-5.48a8.33,8.33,0,0,1-1.8-2.22,15.39,15.39,0,0,1-2.15-6,8.59,8.59,0,0,1,1.52-6.36A9.36,9.36,0,0,1,122,9.32a9.42,9.42,0,0,1,5.94-1.08,18.19,18.19,0,0,1,7.41,2.62l.13.07a1,1,0,0,0,1.31-.52,9.62,9.62,0,0,1,1.36-2.25,8.61,8.61,0,0,1,1.61-1.53,9.81,9.81,0,0,1,4.16-1.78,11.35,11.35,0,0,1,6.47.72,9.23,9.23,0,0,1,2.08,1.26,13.41,13.41,0,0,1,3.23,5.33A8.74,8.74,0,0,1,156.13,17.27Z"/><path class="cls-2" d="M152.77,12.59l0-.1h0A5.76,5.76,0,0,0,150,8.57a6.37,6.37,0,0,0-4.68-.41l-.12,0a5.06,5.06,0,0,0-.72.23l-.09,0a4.89,4.89,0,0,0-2,1.48,5.21,5.21,0,0,0-.76,1.31,6.25,6.25,0,0,0-.22,3.75,7.26,7.26,0,0,0,.26.79l.05.14A5.63,5.63,0,0,0,145,18.88a6.16,6.16,0,0,0,3.28.3,4.28,4.28,0,0,0,.93-.26h0l.13-.05a6.15,6.15,0,0,0,2.91-2.62,4.92,4.92,0,0,0,.62-2.4A5.69,5.69,0,0,0,152.77,12.59Zm-2.21,2.71a4.11,4.11,0,0,1-2,1.74l-.07,0h0a3.56,3.56,0,0,1-1.2.22,4.46,4.46,0,0,1-1.6-.28,3.62,3.62,0,0,1-2.12-1.88.34.34,0,0,1,0-.08h0a5,5,0,0,1-.17-.54,4.15,4.15,0,0,1,.14-2.54,4,4,0,0,1,.17-.36,3,3,0,0,1,1.46-1.33l.08,0a3.1,3.1,0,0,1,.46-.15l.1,0a4.54,4.54,0,0,1,3.26.21A3.91,3.91,0,0,1,150.81,13l0,.09A3.1,3.1,0,0,1,150.56,15.3ZM144,9.71a1,1,0,0,0,1.22.58Z"/><path class="cls-1" d="M208.93,102.45a.89.89,0,0,1-.42,1.19s-1.12,1.85-2.57,4.26c-1,1.7-2.16,3.65-3.23,5.5,0-1.09-.1-2.15-.19-3.18.65-1.12,1.3-2.21,1.9-3.22,1.6-2.69,3-4.79,3.33-5A.89.89,0,0,1,208.93,102.45Z"/><path class="cls-1" d="M210.19,94.77c-.62,1.07-1.5,2.53-2.49,4.16-1.68,2.8-3.68,6.1-5.42,9.27-.12-1-.27-1.92-.44-2.84a54.2,54.2,0,0,0-3.54-11.58c-.29-.7-.6-1.36-.9-2,.55-.91,1.08-1.78,1.61-2.6,2.13-3.25,4.54-4.46,6.66-4.37a5.14,5.14,0,0,1,2.6.84,6,6,0,0,1,1.88,1.93A7,7,0,0,1,210.19,94.77Z"/><path class="cls-2" d="M192.78,109.33c-.93,1.93-.75,3.31-.07,4.15a3,3,0,0,0,1.06.79,3.5,3.5,0,0,0,1.37.29,2.77,2.77,0,0,0,2.74-1.5,82.52,82.52,0,0,1,4-7.7c1.45-2.56,3-5.11,4.34-7.34.92-1.53,1.76-2.91,2.46-4.14a5.2,5.2,0,0,0,0-5.35,4.36,4.36,0,0,0-1.32-1.38,3.4,3.4,0,0,0-1.72-.55c-1.55-.07-3.37.92-5.09,3.57-.73,1.11-1.47,2.32-2.21,3.61-1.88,3.28-3.81,7-5.72,10.71-2,3.91-4,7.77-5.93,11a5.66,5.66,0,0,0,.13,6.23,5.34,5.34,0,0,0,1.74,1.61,4.89,4.89,0,0,0,2.27.64c2.13,0,4.6-1.32,6.65-5,.39-.69,2.75-4.81,5.08-8.77.65-1.12,1.3-2.21,1.9-3.22,1.6-2.69,3-4.79,3.33-5a.89.89,0,0,1,.76,1.61s-1.12,1.85-2.57,4.26c-1,1.7-2.16,3.65-3.23,5.5-1.81,3.11-3.39,5.89-3.71,6.46-2.44,4.36-5.52,6-8.25,5.92a6.75,6.75,0,0,1-3.11-.88,7.11,7.11,0,0,1-2.33-2.14,7.4,7.4,0,0,1-.19-8.14c1.86-3.16,3.85-7,5.87-10.94,2.14-4.13,4.3-8.33,6.41-11.89.55-.91,1.08-1.78,1.61-2.6,2.13-3.25,4.54-4.46,6.66-4.37a5.14,5.14,0,0,1,2.6.84,6,6,0,0,1,1.88,1.93,7,7,0,0,1,0,7.18c-.62,1.07-1.5,2.53-2.49,4.16-1.68,2.8-3.68,6.1-5.42,9.27-1.07,2-2,3.87-2.78,5.57a4.52,4.52,0,0,1-4.4,2.57,5.18,5.18,0,0,1-2-.45,4.59,4.59,0,0,1-1.71-1.28c-1.09-1.34-1.45-3.38-.17-6a54.44,54.44,0,0,1,2.9-5.13,41.38,41.38,0,0,0,3.16-5.8.89.89,0,0,1,1.65.68,44.21,44.21,0,0,1-3.29,6.06A52.06,52.06,0,0,0,192.78,109.33Z"/><path class="cls-1" d="M59.87,32.31a6.57,6.57,0,0,0-3.76-1.77c-2.89-.52-6.4-1.05-10-1.46L45.56,29c.31.54.61,1.12.93,1.75a41.06,41.06,0,0,1,3.88,23.05c-.06.53-.13,1.07-.22,1.61l2.26.26a5.35,5.35,0,0,0,.55.05,6.41,6.41,0,0,0,3.89-.65,4.36,4.36,0,0,0,2-3.51c.13-1.15.54-4.37,1-7.56s.9-6.59,1.06-7.67A4.52,4.52,0,0,0,59.87,32.31Zm-8.52,3.37c.07-.3.14-.59.18-.89a13.78,13.78,0,0,1,1.75.07c.95.07,1.92.21,2.61.33a4.14,4.14,0,0,1,0,1.27,2.28,2.28,0,0,1,0,.26h-.06l-4.59-.46C51.26,36.07,51.31,35.88,51.35,35.68Z"/><path class="cls-2" d="M59.87,32.31a6.57,6.57,0,0,0-3.76-1.77c-2.89-.52-6.4-1.05-10-1.46L45.56,29c-.37-.05-.75-.09-1.12-.12-3.13-.33-6.26-.55-9-.6.05-.39.1-.78.14-1.17.07-.72.12-1.39.16-2a.81.81,0,0,0-.76-.87h0l-.13,0c-1-.17-4.66-.79-6.42-.47a.83.83,0,0,0-.66.92,8,8,0,0,0,.13.89A5.76,5.76,0,0,1,28,27.68a6.59,6.59,0,0,0-1.27-.15,4.83,4.83,0,0,0-2.65.64,4.11,4.11,0,0,0-1.81,2.6A7.72,7.72,0,0,0,22,32.56c-.24,2.25-.51,4.92-.78,7.58-.23,2.33-.47,4.64-.78,7.49a.82.82,0,0,0,0,.41,2.57,2.57,0,0,1,.09.29c.43,1.4,1.1,3.57,5.47,4.42s12.43,1.59,18.84,2.18l5.28.5,2.26.26a5.35,5.35,0,0,0,.55.05,6.41,6.41,0,0,0,3.89-.65,4.36,4.36,0,0,0,2-3.51c.13-1.15.54-4.37,1-7.56s.9-6.59,1.06-7.67A4.52,4.52,0,0,0,59.87,32.31Zm-.61,3.78c-.16,1.06-.62,4.39-1.07,7.72s-.87,6.6-1,7.59A2.81,2.81,0,0,1,56,53.68a4.92,4.92,0,0,1-3,.42,3.28,3.28,0,0,1-.43,0c-.62-.07-1.37-.16-2.24-.24-1.51-.16-3.35-.33-5.35-.52-6.35-.58-14.36-1.32-18.68-2.16-3.4-.66-3.89-2.26-4.21-3.3a1.05,1.05,0,0,1-.06-.21c.23-2.15.5-4.73.75-7.32.24-2.34.48-4.69.8-7.6v-.06a6.56,6.56,0,0,1,.19-1.46,2.57,2.57,0,0,1,1.1-1.63,3.23,3.23,0,0,1,1.73-.39,7.72,7.72,0,0,1,1.62.25h0a.81.81,0,0,0,.93-.39,5.35,5.35,0,0,0,.28-3.72,27.94,27.94,0,0,1,4.56.45c0,.4-.07.81-.1,1.22-.08.64-.16,1.32-.28,2a.68.68,0,0,0,0,.15.82.82,0,0,0,.82.82,97,97,0,0,1,9.81.59l2.23.25.42.05c3.2.39,6.3.86,8.9,1.33a5,5,0,0,1,2.86,1.27A3,3,0,0,1,59.26,36.09Z"/><path class="cls-2" d="M47.05,36.62a7.17,7.17,0,0,0-5.12-2.72c-.27,0-.51,0-.74,0a9.21,9.21,0,0,0-5.67,1.53,7.39,7.39,0,0,0-3.11,5.53c0,.24,0,.48-.06.69a8.2,8.2,0,0,0,2.11,5.91,8.93,8.93,0,0,0,5.8,2.73h.14a7.79,7.79,0,0,0,5.32-2,8.36,8.36,0,0,0,3-5.4h0a1.62,1.62,0,0,0,0-.18A9,9,0,0,0,47.05,36.62Zm.05,5.89a.86.86,0,0,0,0,.15A6.69,6.69,0,0,1,44.66,47a6.13,6.13,0,0,1-4.15,1.65h-.09a7.26,7.26,0,0,1-4.75-2.21A6.59,6.59,0,0,1,34,41.67c0-.22,0-.42.05-.58a5.82,5.82,0,0,1,2.43-4.37,7.58,7.58,0,0,1,4.66-1.24,5.76,5.76,0,0,1,.63.05,5.58,5.58,0,0,1,4,2.09A7.33,7.33,0,0,1,47.1,42.51Z"/><path class="cls-2" d="M57.36,34.31a.81.81,0,0,0-.63-.6,23.45,23.45,0,0,0-3.32-.48,12.36,12.36,0,0,0-2.82,0,.83.83,0,0,0-.66.8v.05a5,5,0,0,1-.17,1.22,5.42,5.42,0,0,0-.2,1.71.84.84,0,0,0,.49.69h0a.9.9,0,0,0,.37.06c1,.13,3.72.42,5.21.57l1,.11a.82.82,0,0,0,.91-.73,1.22,1.22,0,0,0,0-.27,3.62,3.62,0,0,1,0-.81A5.37,5.37,0,0,0,57.36,34.31ZM55.9,36.46a2.28,2.28,0,0,1,0,.26h-.06l-4.59-.46c0-.19.08-.38.12-.58s.14-.59.18-.89a13.78,13.78,0,0,1,1.75.07c.95.07,1.92.21,2.61.33A4.14,4.14,0,0,1,55.9,36.46Z"/><path class="cls-1" d="M89.62,100.71a14.26,14.26,0,0,1-.69,1.28c-.18-.62-.38-1.23-.59-1.83C84.38,89.08,75.21,82.79,68,79.43c-.69-.32-1.35-.62-2-.88.58-.18,1.14-.34,1.7-.48,4.9-1.25,9.24-1.18,12.88.31,4.34,1.76,7.63,5.5,9.62,11.35l0,0A14.19,14.19,0,0,1,89.62,100.71Z"/><path class="cls-2" d="M90.23,89.76l0,0c-2-5.85-5.28-9.59-9.62-11.35-3.64-1.49-8-1.56-12.88-.31-.56.14-1.12.3-1.7.48l-1,.33h0A20.06,20.06,0,0,0,62.28,80a15.46,15.46,0,0,0-7.7,9,18,18,0,0,0,.15,11.16,18.43,18.43,0,0,0,1.07,2.5h0c2.21,4.24,6.51,7,11.24,8.13a21.58,21.58,0,0,0,10.23,0,17.14,17.14,0,0,0,3.61-1.36,20.65,20.65,0,0,0,8-7.5,14.48,14.48,0,0,0,1.3-12.23Zm-1.87,10.35s0,0,0,0A16.92,16.92,0,0,1,84.76,105a20.35,20.35,0,0,1-2.43,2c-.4.28-.81.54-1.21.77s-.59.35-.88.5-.89.43-1.36.62-.9.33-1.37.47a20,20,0,0,1-10.13.13c-4.37-1.06-8.32-3.56-10.33-7.41h0a16.85,16.85,0,0,1-1-2.31,16.42,16.42,0,0,1-.15-10.28,13.88,13.88,0,0,1,5.4-7.23,13,13,0,0,1,1.25-.76,2.71,2.71,0,0,1,.37-.21,16.25,16.25,0,0,1,1.84-.82l.61-.22.05,0,.71-.23c.64-.2,1.26-.38,1.87-.54,4.63-1.18,8.69-1.13,12.06.24a13.41,13.41,0,0,1,5.2,3.81,20.7,20.7,0,0,1,3.62,6.69v0A12.82,12.82,0,0,1,88.36,100.11Z"/><path class="cls-2" d="M69.25,88.2h0c-.14.05-.28.09-.41.15-.18-.43-.36-.86-.55-1.29a42.92,42.92,0,0,0-3.5-6.63L64.49,80a.69.69,0,0,1,.16-1,.7.7,0,0,1,1,.16l.52.76a47,47,0,0,1,3.46,6.66c.19.42.37.86.56,1.3C69.86,88,69.56,88.1,69.25,88.2Z"/><path class="cls-2" d="M71.19,93a1.46,1.46,0,0,0-.38.27c-.18-.45-.35-.91-.53-1.36l.13-.07.14-.08a3.14,3.14,0,0,1,.49-.21h0c.19-.06.36-.12.53-.16.18.44.35.88.52,1.32l-.24,0-.36.11h0L71.2,93Z"/><path class="cls-2" d="M73.84,97.34a2.75,2.75,0,0,1-.59.21,2.27,2.27,0,0,1-.52.09l-.25,0,0,0-.29-.77c-.08-.21-.15-.42-.23-.62a2.22,2.22,0,0,0,1.34-.18l0,0,0,0,.06.17.36,1A1.59,1.59,0,0,1,73.84,97.34Z"/><path class="cls-2" d="M78.85,110a.7.7,0,0,1-1-.13q-.18-.24-.36-.51a40.09,40.09,0,0,1-3.16-6.79c-.18-.43-.35-.87-.52-1.32a7.66,7.66,0,0,0,1.27-.34l.08,0,.12.29.39,1a35.28,35.28,0,0,0,3.19,6.71L79,109A.69.69,0,0,1,78.85,110Z"/><path class="cls-2" d="M67.4,87.49l.81,1.15-.07,0A6.27,6.27,0,0,0,67,89.4c-.27-.4-.54-.78-.8-1.15a35.15,35.15,0,0,0-4.92-6l-.05,0a.7.7,0,0,1-.11-1,.71.71,0,0,1,1-.12c.14.11.28.24.43.38A40.35,40.35,0,0,1,67.4,87.49Z"/><path class="cls-2" d="M71.19,93a1.53,1.53,0,0,0-.77.9,1.73,1.73,0,0,0-.07.31c-.33-.46-.64-.93-1-1.39a3,3,0,0,1,.89-.91l.13-.07L71.2,93Z"/><path class="cls-2" d="M74.12,97.19l-.2.11-.08,0a2.75,2.75,0,0,1-.59.21,2.27,2.27,0,0,1-.52.09l-.56-.78-.47-.67h0l.21,0a2.22,2.22,0,0,0,1.34-.18l0,0,.1.15Z"/><path class="cls-2" d="M82.31,107.86a.69.69,0,0,1-1,.07l-.21-.18A42.12,42.12,0,0,1,76,102l-.67-.89a2.56,2.56,0,0,1-.2-.26l.08,0c.23-.09.45-.19.67-.3l.52-.3c.28.38.57.75.85,1.11a39.27,39.27,0,0,0,5,5.5.52.52,0,0,1,.1.11A.69.69,0,0,1,82.31,107.86Z"/><path class="cls-2" d="M75.63,93.59h0a3.2,3.2,0,0,0-1.8-2.08h0a3.66,3.66,0,0,0-2.26-.09c-.17,0-.34.1-.53.16h0a3.14,3.14,0,0,0-.49.21l-.14.08-.13.07c.18.45.35.91.53,1.36a1.46,1.46,0,0,1,.38-.27h0l.28-.12h0l.36-.11.24,0a2.13,2.13,0,0,1,1.22.07,1.86,1.86,0,0,1,1,1.24h0a1.37,1.37,0,0,1,0,1.06,2.21,2.21,0,0,1-.91.93l0,0,.1.15.71,1a3.69,3.69,0,0,0,1.39-1.5A2.69,2.69,0,0,0,75.63,93.59Zm-3.17,4-.29-.77-.47-.67a1.8,1.8,0,0,1-1.15-.82l-.12-.27a2,2,0,0,1-.08-.88,1.73,1.73,0,0,1,.07-.31,1.45,1.45,0,0,1,.39-.63c-.18-.45-.35-.91-.53-1.36a3,3,0,0,0-.89.91,2.73,2.73,0,0,0-.3.65,3.33,3.33,0,0,0,0,2.07,3.76,3.76,0,0,0,.2.46,3.13,3.13,0,0,0,2.1,1.54,3.51,3.51,0,0,0,1.07.11Zm3.17-4h0a3.2,3.2,0,0,0-1.8-2.08h0a3.66,3.66,0,0,0-2.26-.09c-.17,0-.34.1-.53.16h0a3.14,3.14,0,0,0-.49.21l-.14.08-.13.07a3,3,0,0,0-.89.91,2.73,2.73,0,0,0-.3.65,3.33,3.33,0,0,0,0,2.07,3.76,3.76,0,0,0,.2.46,3.13,3.13,0,0,0,2.1,1.54,3.51,3.51,0,0,0,1.07.11l.25,0a2.27,2.27,0,0,0,.52-.09,2.75,2.75,0,0,0,.59-.21l.08,0,.2-.11a3.69,3.69,0,0,0,1.39-1.5A2.69,2.69,0,0,0,75.63,93.59ZM74.31,94a1.37,1.37,0,0,1,0,1.06,2.21,2.21,0,0,1-.91.93l0,0,0,0a2.22,2.22,0,0,1-1.34.18l-.21,0h0a1.8,1.8,0,0,1-1.15-.82l-.12-.27a2,2,0,0,1-.08-.88,1.73,1.73,0,0,1,.07-.31,1.53,1.53,0,0,1,.77-.9h0l.28-.12h0l.36-.11.24,0a2.13,2.13,0,0,1,1.22.07,1.86,1.86,0,0,1,1,1.24Zm1.32-.44h0a3.2,3.2,0,0,0-1.8-2.08h0a3.66,3.66,0,0,0-2.26-.09c-.17,0-.34.1-.53.16h0a3.14,3.14,0,0,0-.49.21l-.14.08-.13.07a3,3,0,0,0-.89.91,2.73,2.73,0,0,0-.3.65,3.33,3.33,0,0,0,0,2.07,3.76,3.76,0,0,0,.2.46,3.13,3.13,0,0,0,2.1,1.54,3.51,3.51,0,0,0,1.07.11l.25,0a2.27,2.27,0,0,0,.52-.09,2.75,2.75,0,0,0,.59-.21l.08,0,.2-.11a3.69,3.69,0,0,0,1.39-1.5A2.69,2.69,0,0,0,75.63,93.59ZM74.31,94a1.37,1.37,0,0,1,0,1.06,2.21,2.21,0,0,1-.91.93l0,0,0,0a2.22,2.22,0,0,1-1.34.18l-.21,0h0a1.8,1.8,0,0,1-1.15-.82l-.12-.27a2,2,0,0,1-.08-.88,1.73,1.73,0,0,1,.07-.31,1.53,1.53,0,0,1,.77-.9h0l.28-.12h0l.36-.11.24,0a2.13,2.13,0,0,1,1.22.07,1.86,1.86,0,0,1,1,1.24Zm1.32-.44h0a3.2,3.2,0,0,0-1.8-2.08h0a3.66,3.66,0,0,0-2.26-.09c-.17,0-.34.1-.53.16h0a3.14,3.14,0,0,0-.49.21l-.14.08-.13.07a3,3,0,0,0-.89.91,2.73,2.73,0,0,0-.3.65,3.33,3.33,0,0,0,0,2.07,3.76,3.76,0,0,0,.2.46,3.13,3.13,0,0,0,2.1,1.54,3.51,3.51,0,0,0,1.07.11l.25,0a2.27,2.27,0,0,0,.52-.09,2.75,2.75,0,0,0,.59-.21l.08,0,.2-.11a3.69,3.69,0,0,0,1.39-1.5A2.69,2.69,0,0,0,75.63,93.59ZM74.31,94a1.37,1.37,0,0,1,0,1.06,2.21,2.21,0,0,1-.91.93l0,0,0,0a2.22,2.22,0,0,1-1.34.18l-.21,0h0a1.8,1.8,0,0,1-1.15-.82l-.12-.27a2,2,0,0,1-.08-.88,1.73,1.73,0,0,1,.07-.31,1.53,1.53,0,0,1,.77-.9h0l.28-.12h0l.36-.11.24,0a2.13,2.13,0,0,1,1.22.07,1.86,1.86,0,0,1,1,1.24Zm1.32-.44h0a3.2,3.2,0,0,0-1.8-2.08h0a3.66,3.66,0,0,0-2.26-.09c-.17,0-.34.1-.53.16h0a3.14,3.14,0,0,0-.49.21l-.14.08-.13.07a3,3,0,0,0-.89.91,2.73,2.73,0,0,0-.3.65,3.33,3.33,0,0,0,0,2.07,3.76,3.76,0,0,0,.2.46,3.13,3.13,0,0,0,2.1,1.54,3.51,3.51,0,0,0,1.07.11l.25,0a2.27,2.27,0,0,0,.52-.09,2.75,2.75,0,0,0,.59-.21l.08,0,.2-.11a3.69,3.69,0,0,0,1.39-1.5A2.69,2.69,0,0,0,75.63,93.59ZM74.31,94a1.37,1.37,0,0,1,0,1.06,2.21,2.21,0,0,1-.91.93l0,0,0,0a2.22,2.22,0,0,1-1.34.18l-.21,0h0a1.8,1.8,0,0,1-1.15-.82l-.12-.27a2,2,0,0,1-.08-.88,1.73,1.73,0,0,1,.07-.31,1.53,1.53,0,0,1,.77-.9h0l.28-.12h0l.36-.11.24,0a2.13,2.13,0,0,1,1.22.07,1.86,1.86,0,0,1,1,1.24Zm1.32-.44h0a3.2,3.2,0,0,0-1.8-2.08h0a3.66,3.66,0,0,0-2.26-.09c-.17,0-.34.1-.53.16h0a3.14,3.14,0,0,0-.49.21l-.14.08-.13.07a3,3,0,0,0-.89.91,2.73,2.73,0,0,0-.3.65,3.33,3.33,0,0,0,0,2.07,3.76,3.76,0,0,0,.2.46,3.13,3.13,0,0,0,2.1,1.54,3.51,3.51,0,0,0,1.07.11l.25,0a2.27,2.27,0,0,0,.52-.09,2.75,2.75,0,0,0,.59-.21l.08,0,.2-.11a3.69,3.69,0,0,0,1.39-1.5A2.69,2.69,0,0,0,75.63,93.59ZM74.31,94a1.37,1.37,0,0,1,0,1.06,2.21,2.21,0,0,1-.91.93l0,0,0,0a2.22,2.22,0,0,1-1.34.18l-.21,0h0a1.8,1.8,0,0,1-1.15-.82l-.12-.27a2,2,0,0,1-.08-.88,1.73,1.73,0,0,1,.07-.31,1.53,1.53,0,0,1,.77-.9h0l.28-.12h0l.36-.11.24,0a2.13,2.13,0,0,1,1.22.07,1.86,1.86,0,0,1,1,1.24Zm1.32-.44h0a3.2,3.2,0,0,0-1.8-2.08h0a3.66,3.66,0,0,0-2.26-.09c-.17,0-.34.1-.53.16h0a3.14,3.14,0,0,0-.49.21l-.14.08-.13.07a3,3,0,0,0-.89.91,2.73,2.73,0,0,0-.3.65,3.33,3.33,0,0,0,0,2.07,3.76,3.76,0,0,0,.2.46,3.13,3.13,0,0,0,2.1,1.54,3.51,3.51,0,0,0,1.07.11l.25,0a2.27,2.27,0,0,0,.52-.09,2.75,2.75,0,0,0,.59-.21l.08,0,.2-.11a3.69,3.69,0,0,0,1.39-1.5A2.69,2.69,0,0,0,75.63,93.59ZM74.31,94a1.37,1.37,0,0,1,0,1.06,2.21,2.21,0,0,1-.91.93l0,0,0,0a2.22,2.22,0,0,1-1.34.18l-.21,0h0a1.8,1.8,0,0,1-1.15-.82l-.12-.27a2,2,0,0,1-.08-.88,1.73,1.73,0,0,1,.07-.31,1.53,1.53,0,0,1,.77-.9h0l.28-.12h0l.36-.11.24,0a2.13,2.13,0,0,1,1.22.07,1.86,1.86,0,0,1,1,1.24Zm1.32-.44h0a3.2,3.2,0,0,0-1.8-2.08h0a3.66,3.66,0,0,0-2.26-.09c-.17,0-.34.1-.53.16h0a3.14,3.14,0,0,0-.49.21l-.14.08-.13.07a3,3,0,0,0-.89.91,2.73,2.73,0,0,0-.3.65,3.33,3.33,0,0,0,0,2.07,3.76,3.76,0,0,0,.2.46,3.13,3.13,0,0,0,2.1,1.54,3.51,3.51,0,0,0,1.07.11l.25,0a2.27,2.27,0,0,0,.52-.09,2.75,2.75,0,0,0,.59-.21l.08,0,.2-.11a3.69,3.69,0,0,0,1.39-1.5A2.69,2.69,0,0,0,75.63,93.59ZM74.31,94a1.37,1.37,0,0,1,0,1.06,2.21,2.21,0,0,1-.91.93l0,0,0,0a2.22,2.22,0,0,1-1.34.18l-.21,0h0a1.8,1.8,0,0,1-1.15-.82l-.12-.27a2,2,0,0,1-.08-.88,1.73,1.73,0,0,1,.07-.31,1.53,1.53,0,0,1,.77-.9h0l.28-.12h0l.36-.11.24,0a2.13,2.13,0,0,1,1.22.07,1.86,1.86,0,0,1,1,1.24Zm1.32-.44h0a3.2,3.2,0,0,0-1.8-2.08h0a3.66,3.66,0,0,0-2.26-.09c-.17,0-.34.1-.53.16h0a3.14,3.14,0,0,0-.49.21l-.14.08-.13.07a3,3,0,0,0-.89.91,2.73,2.73,0,0,0-.3.65,3.33,3.33,0,0,0,0,2.07,3.76,3.76,0,0,0,.2.46,3.13,3.13,0,0,0,2.1,1.54,3.51,3.51,0,0,0,1.07.11l.25,0a2.27,2.27,0,0,0,.52-.09,2.75,2.75,0,0,0,.59-.21l.08,0,.2-.11a3.69,3.69,0,0,0,1.39-1.5A2.69,2.69,0,0,0,75.63,93.59ZM74.31,94a1.37,1.37,0,0,1,0,1.06,2.21,2.21,0,0,1-.91.93l0,0,0,0a2.22,2.22,0,0,1-1.34.18l-.21,0h0a1.8,1.8,0,0,1-1.15-.82l-.12-.27a2,2,0,0,1-.08-.88,1.73,1.73,0,0,1,.07-.31,1.53,1.53,0,0,1,.77-.9h0l.28-.12h0l.36-.11.24,0a2.13,2.13,0,0,1,1.22.07,1.86,1.86,0,0,1,1,1.24ZM81,92.17v0a10.68,10.68,0,0,0-1.91-3.48,7.19,7.19,0,0,0-2.78-2h0a10.19,10.19,0,0,0-6.72,0l-.79.24h0l-.51.19a7.82,7.82,0,0,0-.77.36l-.1.06a7.6,7.6,0,0,0-1.17.76,7.42,7.42,0,0,0-2.5,3.59,8.73,8.73,0,0,0,.07,5.42,8,8,0,0,0,.51,1.2l0,.06a8.27,8.27,0,0,0,5.46,3.94,10.44,10.44,0,0,0,4.55.09,8.93,8.93,0,0,0,1.34-.39L76,102a4.9,4.9,0,0,0,.52-.24h0c.24-.13.48-.27.73-.43a9.52,9.52,0,0,0,3.5-3.83A6.92,6.92,0,0,0,81,92.17Zm-1.55,4.77a7.73,7.73,0,0,1-1.6,2.17,9.22,9.22,0,0,1-1.5,1.15l-.52.3c-.22.11-.44.21-.67.3l-.08,0a7.66,7.66,0,0,1-1.27.34,9.25,9.25,0,0,1-3.7-.13,6.82,6.82,0,0,1-4.55-3.24h0v0a7.6,7.6,0,0,1-.43-1,7.26,7.26,0,0,1-.07-4.56,6,6,0,0,1,2-2.86,6.27,6.27,0,0,1,1.11-.73l.07,0c.19-.1.4-.19.61-.28s.27-.1.41-.15h0c.31-.1.61-.2.91-.27.1,0,.2-.06.3-.09a8.57,8.57,0,0,1,5.34.1,6,6,0,0,1,2.29,1.69,9.08,9.08,0,0,1,1.6,3v0A5.58,5.58,0,0,1,79.47,96.94Zm-3.84-3.36a3.2,3.2,0,0,0-1.8-2.08h0a3.66,3.66,0,0,0-2.26-.09c-.17,0-.34.1-.53.16h0a3.14,3.14,0,0,0-.49.21l-.14.08-.13.07a3,3,0,0,0-.89.91,2.73,2.73,0,0,0-.3.65,3.33,3.33,0,0,0,0,2.07,3.76,3.76,0,0,0,.2.46,3.13,3.13,0,0,0,2.1,1.54,3.51,3.51,0,0,0,1.07.11l.25,0a2.27,2.27,0,0,0,.52-.09,2.75,2.75,0,0,0,.59-.21l.08,0,.2-.11a3.69,3.69,0,0,0,1.39-1.5,2.69,2.69,0,0,0,.12-2.1ZM74.31,94a1.37,1.37,0,0,1,0,1.06,2.21,2.21,0,0,1-.91.93l0,0,0,0a2.22,2.22,0,0,1-1.34.18l-.21,0h0a1.8,1.8,0,0,1-1.15-.82l-.12-.27a2,2,0,0,1-.08-.88,1.73,1.73,0,0,1,.07-.31,1.53,1.53,0,0,1,.77-.9h0l.28-.12h0l.36-.11.24,0a2.13,2.13,0,0,1,1.22.07,1.86,1.86,0,0,1,1,1.24Zm1.32-.44h0a3.2,3.2,0,0,0-1.8-2.08h0a3.66,3.66,0,0,0-2.26-.09c-.17,0-.34.1-.53.16h0a3.14,3.14,0,0,0-.49.21l-.14.08-.13.07a3,3,0,0,0-.89.91,2.73,2.73,0,0,0-.3.65,3.33,3.33,0,0,0,0,2.07,3.76,3.76,0,0,0,.2.46,3.13,3.13,0,0,0,2.1,1.54,3.51,3.51,0,0,0,1.07.11l.25,0a2.27,2.27,0,0,0,.52-.09,2.75,2.75,0,0,0,.59-.21l.08,0,.2-.11a3.69,3.69,0,0,0,1.39-1.5A2.69,2.69,0,0,0,75.63,93.59ZM74.31,94a1.37,1.37,0,0,1,0,1.06,2.21,2.21,0,0,1-.91.93l0,0,0,0a2.22,2.22,0,0,1-1.34.18l-.21,0h0a1.8,1.8,0,0,1-1.15-.82l-.12-.27a2,2,0,0,1-.08-.88,1.73,1.73,0,0,1,.07-.31,1.53,1.53,0,0,1,.77-.9h0l.28-.12h0l.36-.11.24,0a2.13,2.13,0,0,1,1.22.07,1.86,1.86,0,0,1,1,1.24Zm1.32-.44h0a3.2,3.2,0,0,0-1.8-2.08h0a3.66,3.66,0,0,0-2.26-.09c-.17,0-.34.1-.53.16h0a3.14,3.14,0,0,0-.49.21l-.14.08-.13.07a3,3,0,0,0-.89.91,2.73,2.73,0,0,0-.3.65,3.33,3.33,0,0,0,0,2.07,3.76,3.76,0,0,0,.2.46,3.13,3.13,0,0,0,2.1,1.54,3.51,3.51,0,0,0,1.07.11l.25,0a2.27,2.27,0,0,0,.52-.09,2.75,2.75,0,0,0,.59-.21l.08,0,.2-.11a3.69,3.69,0,0,0,1.39-1.5A2.69,2.69,0,0,0,75.63,93.59ZM74.31,94a1.37,1.37,0,0,1,0,1.06,2.21,2.21,0,0,1-.91.93l0,0,0,0a2.22,2.22,0,0,1-1.34.18l-.21,0h0a1.8,1.8,0,0,1-1.15-.82l-.12-.27a2,2,0,0,1-.08-.88,1.73,1.73,0,0,1,.07-.31,1.53,1.53,0,0,1,.77-.9h0l.28-.12h0l.36-.11.24,0a2.13,2.13,0,0,1,1.22.07,1.86,1.86,0,0,1,1,1.24Zm1.32-.44h0a3.2,3.2,0,0,0-1.8-2.08h0a3.66,3.66,0,0,0-2.26-.09c-.17,0-.34.1-.53.16h0a3.14,3.14,0,0,0-.49.21l-.14.08-.13.07a3,3,0,0,0-.89.91,2.73,2.73,0,0,0-.3.65,3.33,3.33,0,0,0,0,2.07,3.76,3.76,0,0,0,.2.46,3.13,3.13,0,0,0,2.1,1.54,3.51,3.51,0,0,0,1.07.11l.25,0a2.27,2.27,0,0,0,.52-.09,2.75,2.75,0,0,0,.59-.21l.08,0,.2-.11a3.69,3.69,0,0,0,1.39-1.5A2.69,2.69,0,0,0,75.63,93.59ZM74.31,94a1.37,1.37,0,0,1,0,1.06,2.21,2.21,0,0,1-.91.93l0,0,0,0a2.22,2.22,0,0,1-1.34.18l-.21,0h0a1.8,1.8,0,0,1-1.15-.82l-.12-.27a2,2,0,0,1-.08-.88,1.73,1.73,0,0,1,.07-.31,1.53,1.53,0,0,1,.77-.9h0l.28-.12h0l.36-.11.24,0a2.13,2.13,0,0,1,1.22.07,1.86,1.86,0,0,1,1,1.24Zm1.32-.44h0a3.2,3.2,0,0,0-1.8-2.08h0a3.66,3.66,0,0,0-2.26-.09c-.17,0-.34.1-.53.16h0a3.14,3.14,0,0,0-.49.21l-.14.08-.13.07a3,3,0,0,0-.89.91,2.73,2.73,0,0,0-.3.65,3.33,3.33,0,0,0,0,2.07,3.76,3.76,0,0,0,.2.46,3.13,3.13,0,0,0,2.1,1.54,3.51,3.51,0,0,0,1.07.11l.25,0a2.27,2.27,0,0,0,.52-.09,2.75,2.75,0,0,0,.59-.21l.08,0,.2-.11a3.69,3.69,0,0,0,1.39-1.5A2.69,2.69,0,0,0,75.63,93.59ZM74.31,94a1.37,1.37,0,0,1,0,1.06,2.21,2.21,0,0,1-.91.93l0,0,0,0a2.22,2.22,0,0,1-1.34.18l-.21,0h0a1.8,1.8,0,0,1-1.15-.82l-.12-.27a2,2,0,0,1-.08-.88,1.73,1.73,0,0,1,.07-.31,1.53,1.53,0,0,1,.77-.9h0l.28-.12h0l.36-.11.24,0a2.13,2.13,0,0,1,1.22.07,1.86,1.86,0,0,1,1,1.24Zm1.32-.44h0a3.2,3.2,0,0,0-1.8-2.08h0a3.66,3.66,0,0,0-2.26-.09c-.17,0-.34.1-.53.16h0a3.14,3.14,0,0,0-.49.21l-.14.08-.13.07a3,3,0,0,0-.89.91,2.73,2.73,0,0,0-.3.65,3.33,3.33,0,0,0,0,2.07,3.76,3.76,0,0,0,.2.46,3.13,3.13,0,0,0,2.1,1.54,3.51,3.51,0,0,0,1.07.11l.25,0a2.27,2.27,0,0,0,.52-.09,2.75,2.75,0,0,0,.59-.21l.08,0,.2-.11a3.69,3.69,0,0,0,1.39-1.5A2.69,2.69,0,0,0,75.63,93.59ZM74.31,94a1.37,1.37,0,0,1,0,1.06,2.21,2.21,0,0,1-.91.93l0,0,0,0a2.22,2.22,0,0,1-1.34.18l-.21,0h0a1.8,1.8,0,0,1-1.15-.82l-.12-.27a2,2,0,0,1-.08-.88,1.73,1.73,0,0,1,.07-.31,1.53,1.53,0,0,1,.77-.9h0l.28-.12h0l.36-.11.24,0a2.13,2.13,0,0,1,1.22.07,1.86,1.86,0,0,1,1,1.24Zm1.32-.44h0a3.2,3.2,0,0,0-1.8-2.08h0a3.66,3.66,0,0,0-2.26-.09c-.17,0-.34.1-.53.16h0a3.14,3.14,0,0,0-.49.21l-.14.08-.13.07a3,3,0,0,0-.89.91,2.73,2.73,0,0,0-.3.65,3.33,3.33,0,0,0,0,2.07,3.76,3.76,0,0,0,.2.46,3.13,3.13,0,0,0,2.1,1.54,3.51,3.51,0,0,0,1.07.11l.25,0a2.27,2.27,0,0,0,.52-.09,2.75,2.75,0,0,0,.59-.21l.08,0,.2-.11a3.69,3.69,0,0,0,1.39-1.5A2.69,2.69,0,0,0,75.63,93.59ZM74.31,94a1.37,1.37,0,0,1,0,1.06,2.21,2.21,0,0,1-.91.93l0,0,0,0a2.22,2.22,0,0,1-1.34.18l-.21,0h0a1.8,1.8,0,0,1-1.15-.82l-.12-.27a2,2,0,0,1-.08-.88,1.73,1.73,0,0,1,.07-.31,1.53,1.53,0,0,1,.77-.9h0l.28-.12h0l.36-.11.24,0a2.13,2.13,0,0,1,1.22.07,1.86,1.86,0,0,1,1,1.24Zm1.32-.44h0a3.2,3.2,0,0,0-1.8-2.08h0a3.66,3.66,0,0,0-2.26-.09c-.17,0-.34.1-.53.16h0a3.14,3.14,0,0,0-.49.21l-.14.08-.13.07a3,3,0,0,0-.89.91,2.73,2.73,0,0,0-.3.65,3.33,3.33,0,0,0,0,2.07,3.76,3.76,0,0,0,.2.46,3.13,3.13,0,0,0,2.1,1.54,3.51,3.51,0,0,0,1.07.11l.25,0a2.27,2.27,0,0,0,.52-.09,2.75,2.75,0,0,0,.59-.21l.08,0,.2-.11a3.69,3.69,0,0,0,1.39-1.5A2.69,2.69,0,0,0,75.63,93.59ZM74.31,94a1.37,1.37,0,0,1,0,1.06,2.21,2.21,0,0,1-.91.93l0,0,0,0a2.22,2.22,0,0,1-1.34.18l-.21,0h0a1.8,1.8,0,0,1-1.15-.82l-.12-.27a2,2,0,0,1-.08-.88,1.73,1.73,0,0,1,.07-.31,1.53,1.53,0,0,1,.77-.9h0l.28-.12h0l.36-.11.24,0a2.13,2.13,0,0,1,1.22.07,1.86,1.86,0,0,1,1,1.24Zm1.32-.44h0a3.2,3.2,0,0,0-1.8-2.08h0a3.66,3.66,0,0,0-2.26-.09c-.17,0-.34.1-.53.16h0a3.14,3.14,0,0,0-.49.21l-.14.08-.13.07a3,3,0,0,0-.89.91,2.73,2.73,0,0,0-.3.65,3.33,3.33,0,0,0,0,2.07,3.76,3.76,0,0,0,.2.46,3.13,3.13,0,0,0,2.1,1.54,3.51,3.51,0,0,0,1.07.11l.25,0a2.27,2.27,0,0,0,.52-.09,2.75,2.75,0,0,0,.59-.21l.08,0,.2-.11a3.69,3.69,0,0,0,1.39-1.5A2.69,2.69,0,0,0,75.63,93.59ZM74.31,94a1.37,1.37,0,0,1,0,1.06,2.21,2.21,0,0,1-.91.93l0,0,0,0a2.22,2.22,0,0,1-1.34.18l-.21,0h0a1.8,1.8,0,0,1-1.15-.82l-.12-.27a2,2,0,0,1-.08-.88,1.73,1.73,0,0,1,.07-.31,1.53,1.53,0,0,1,.77-.9h0l.28-.12h0l.36-.11.24,0a2.13,2.13,0,0,1,1.22.07,1.86,1.86,0,0,1,1,1.24Zm-1.85,3.6-.29-.77-.47-.67a1.8,1.8,0,0,1-1.15-.82l-.12-.27a2,2,0,0,1-.08-.88,1.73,1.73,0,0,1,.07-.31,1.45,1.45,0,0,1,.39-.63c-.18-.45-.35-.91-.53-1.36a3,3,0,0,0-.89.91,2.73,2.73,0,0,0-.3.65,3.33,3.33,0,0,0,0,2.07,3.76,3.76,0,0,0,.2.46,3.13,3.13,0,0,0,2.1,1.54,3.51,3.51,0,0,0,1.07.11Z"/><path class="cls-2" d="M75.63,93.59h0a3.2,3.2,0,0,0-1.8-2.08h0a3.66,3.66,0,0,0-2.26-.09c-.17,0-.34.1-.53.16h0a3.14,3.14,0,0,0-.49.21l-.14.08-.13.07a3,3,0,0,0-.89.91,2.73,2.73,0,0,0-.3.65,3.33,3.33,0,0,0,0,2.07,3.76,3.76,0,0,0,.2.46,3.13,3.13,0,0,0,2.1,1.54,3.51,3.51,0,0,0,1.07.11l.25,0a2.27,2.27,0,0,0,.52-.09,2.75,2.75,0,0,0,.59-.21l.08,0,.2-.11a3.69,3.69,0,0,0,1.39-1.5A2.69,2.69,0,0,0,75.63,93.59ZM74.31,94a1.37,1.37,0,0,1,0,1.06,2.21,2.21,0,0,1-.91.93l0,0,0,0a2.22,2.22,0,0,1-1.34.18l-.21,0h0a1.8,1.8,0,0,1-1.15-.82l-.12-.27a2,2,0,0,1-.08-.88,1.73,1.73,0,0,1,.07-.31,1.53,1.53,0,0,1,.77-.9h0l.28-.12h0l.36-.11.24,0a2.13,2.13,0,0,1,1.22.07,1.86,1.86,0,0,1,1,1.24Z"/><path class="cls-2" d="M70.41,91.85l-.13.07c.18.45.35.91.53,1.36a1.46,1.46,0,0,1,.38-.27h0Zm0,0-.13.07c.18.45.35.91.53,1.36a1.46,1.46,0,0,1,.38-.27h0Zm5.22,1.74h0a3.2,3.2,0,0,0-1.8-2.08h0a3.66,3.66,0,0,0-2.26-.09c-.17,0-.34.1-.53.16h0a3.14,3.14,0,0,0-.49.21l-.14.08-.13.07a3,3,0,0,0-.89.91,2.73,2.73,0,0,0-.3.65,3.33,3.33,0,0,0,0,2.07,3.76,3.76,0,0,0,.2.46,3.13,3.13,0,0,0,2.1,1.54,3.51,3.51,0,0,0,1.07.11l.25,0a2.27,2.27,0,0,0,.52-.09,2.75,2.75,0,0,0,.59-.21l.08,0,.2-.11a3.69,3.69,0,0,0,1.39-1.5A2.69,2.69,0,0,0,75.63,93.59ZM74.31,94a1.37,1.37,0,0,1,0,1.06,2.21,2.21,0,0,1-.91.93l0,0,0,0a2.22,2.22,0,0,1-1.34.18l-.21,0h0a1.8,1.8,0,0,1-1.15-.82l-.12-.27a2,2,0,0,1-.08-.88,1.73,1.73,0,0,1,.07-.31,1.53,1.53,0,0,1,.77-.9h0l.28-.12h0l.36-.11.24,0a2.13,2.13,0,0,1,1.22.07,1.86,1.86,0,0,1,1,1.24Zm-3.9-2.18-.13.07c.18.45.35.91.53,1.36a1.46,1.46,0,0,1,.38-.27h0Zm0,0-.13.07c.18.45.35.91.53,1.36a1.46,1.46,0,0,1,.38-.27h0Z"/><path class="cls-1" d="M21.83,101.43c-3-.37-5.91-.89-8.65-1.38l-1.77-.32c.27-.46.52-.92.77-1.38a56,56,0,0,0,2.63-5.52c.47-1.16.9-2.3,1.27-3.43A54.06,54.06,0,0,0,18.52,79c.09-.71.18-1.4.23-2.07a32.14,32.14,0,0,0,3.64-3.18.77.77,0,0,1,.86-.18.53.53,0,0,1,.1.06,13.77,13.77,0,0,1,3.29,3.25A14.73,14.73,0,0,1,28.81,81a.75.75,0,0,1-.09.71c-1.36,1.88-5.2,4.45-8.52,6.68-1.86,1.24-3.55,2.38-4.48,3.16.44.55,1.08,1.22,1.79,2,1.9,2,4.25,4.47,5.1,6.86a.67.67,0,0,1,.05.37A.74.74,0,0,1,21.83,101.43Z"/><path class="cls-2" d="M22.66,100.77a.67.67,0,0,0-.05-.37c-.85-2.39-3.2-4.87-5.1-6.86-.71-.75-1.35-1.42-1.79-2,.93-.78,2.62-1.92,4.48-3.16,3.32-2.23,7.16-4.8,8.52-6.68a.75.75,0,0,0,.09-.71,14.73,14.73,0,0,0-2.17-4.12,13.77,13.77,0,0,0-3.29-3.25.53.53,0,0,0-.1-.06.77.77,0,0,0-.86.18A32.14,32.14,0,0,1,18.75,77C17.47,78,16,79,14.7,80c-2,1.5-3.84,2.87-4.84,3.8-.43-.51-.86-1-1.31-1.52a53.83,53.83,0,0,1-4.82-6.24.74.74,0,0,0-1-.21.8.8,0,0,0-.3.36C1.39,78.44.63,82.58.26,86.76-.13,91.11-.1,95.55.48,98a.74.74,0,0,0,.77.57,57.25,57.25,0,0,1,10.16,1.14l1.77.32c2.74.49,5.62,1,8.65,1.38A.74.74,0,0,0,22.66,100.77Zm-9.21-2.19-1.27-.23A62.38,62.38,0,0,0,1.82,97.1a44.08,44.08,0,0,1-.07-10.2A43.42,43.42,0,0,1,3.3,78.09a54.69,54.69,0,0,0,4.12,5.19c.63.72,1.23,1.41,1.77,2.09a.8.8,0,0,0,.15.17.75.75,0,0,0,1.05-.14,46.37,46.37,0,0,1,5.21-4.17L18.52,79A51.52,51.52,0,0,0,23,75.26a13.31,13.31,0,0,1,2.39,2.53,13.06,13.06,0,0,1,1.84,3.36c-1.39,1.65-4.87,4-7.91,6-1.21.8-2.34,1.56-3.28,2.23a14.46,14.46,0,0,0-1.88,1.53.76.76,0,0,0-.12,1c.19.28.44.58.73.93.44.52,1,1.1,1.61,1.74a29.14,29.14,0,0,1,4.26,5.2C18.16,99.42,15.75,99,13.45,98.58Z"/><path class="cls-1" d="M170.14,98.35c-.19.48-.37,1-.64,1.72s-.58,1.55-1,2.78a.9.9,0,0,1-.52.51l-.1,0-.09,0h0a.93.93,0,0,1-.33,0l-.07,0a.16.16,0,0,1-.09,0l-.23-.07-.17-.06c-.66-.22-1.71-.6-3.06-1.11l-.74-.28-.8-.3-.61-.23-.84-.33-2.77-1h0c.11-.52.21-1,.31-1.58a144.74,144.74,0,0,0,1.74-20.75c0-.57,0-1.13,0-1.68,1.73.66,3.51,1.32,5.15,1.9l1.27.45-.33-1c-2.07-.76-4.21-1.58-6.08-2.33,0-.65,0-1.29,0-1.9,1.6.64,3.45,1.37,5.3,2.07,1.3.49,2.6,1,3.82,1.39a33.54,33.54,0,0,0,6.1,1.84.94.94,0,0,1,.6,0,.88.88,0,0,1,.6,1.1C174.06,87.83,172.53,91.94,170.14,98.35Z"/><path class="cls-1" d="M170.14,98.35c-.19.48-.37,1-.64,1.72,0-.92.05-1.84.05-2.74s0-1.56-.06-2.32q-.09-2.24-.33-4.32h0c.54-2.72,1-5.62,1.6-9.53a33.92,33.92,0,0,1-3.68-1c-.18-.65-.37-1.27-.56-1.86l-.33-1c-.26-.76-.51-1.49-.76-2.16,1.3.49,2.6,1,3.82,1.39a33.54,33.54,0,0,0,6.1,1.84.94.94,0,0,1,.6,0,.88.88,0,0,1,.6,1.1C174.06,87.83,172.53,91.94,170.14,98.35Z"/><path class="cls-2" d="M176.55,79.35a.88.88,0,0,0-.6-1.1.94.94,0,0,0-.6,0,33.54,33.54,0,0,1-6.1-1.84c-1.22-.43-2.52-.9-3.82-1.39-1.85-.7-3.7-1.43-5.3-2.07s-2.73-1.12-3.62-1.5c.32-.73.7-1.63,1-2.45a10.82,10.82,0,0,0,.69-2.26.87.87,0,0,0-.4-.84,53.21,53.21,0,0,0-6.94-2.79c-3.45-1.21-7.21-2.41-8.83-2.77a.88.88,0,0,0-1.06.67.15.15,0,0,1,0,.07,16.1,16.1,0,0,1-.5,1.86c-.13.46-.29,1-.48,1.52l1.68.55q.27-.84.48-1.53c.14-.45.26-.85.35-1.2,1.82.49,4.91,1.49,7.78,2.5,2.54.89,4.91,1.78,6,2.32-.11.35-.27.79-.45,1.28-.41,1.09-.94,2.33-1.29,3.07l0,.07a.88.88,0,0,0,.43,1.18c.88.42,2.8,1.22,5.14,2.15,1.87.75,4,1.57,6.08,2.33l2.47.9a46.29,46.29,0,0,0,5.89,1.75c-1.44,4.85-2.56,8.22-3.75,11.55h0c-.42,1.18-.84,2.35-1.3,3.58-.32.88-.66,1.77-1,2.73l-1.38,3.69-.24-.08a.85.85,0,0,1,0,.17c-1.51-.52-4.66-1.72-8.5-3.19l-2.27-.86c-8.6-3.29-19.42-7.42-23.47-8.64.54-2,1.54-6.27,2.53-10.74-1.9,5-3.66,9.55-4.27,10.85a.9.9,0,0,0,.28,1.1l.15.08a.62.62,0,0,0,.23.07l.14,0c3.12.76,14.86,5.26,24.07,8.79l2.3.89,2.77,1,.84.33.61.23.8.3.74.28c1.35.51,2.4.89,3.06,1.11l.17.06.23.07a.16.16,0,0,0,.09,0l.08,0a1.12,1.12,0,0,0,.32,0h0l.09,0,.1,0a.9.9,0,0,0,.52-.51c.45-1.23.77-2.11,1-2.78s.45-1.24.64-1.72C172.53,91.94,174.06,87.83,176.55,79.35Z"/><path class="cls-2" d="M168.33,102.89c.51-2.4.73-3.36.92-4.24q.15-.68.3-1.32c.46-2.09.86-4,1.24-5.9h0c.6-3,1.14-6.22,1.78-10.72a1,1,0,0,0-.73-1.06.74.74,0,0,0-.55,0,26.17,26.17,0,0,1-4.78-1.41l-1.27-.45c-1.64-.58-3.42-1.24-5.15-1.9-3.08-1.18-6-2.35-7.62-3.05.2-.68.42-1.53.59-2.31a10.53,10.53,0,0,0,.33-2.14,1,1,0,0,0-.5-.8,59.5,59.5,0,0,0-7-2.78c-1.26-.45-2.56-.89-3.78-1.3L140.46,63c-1.39-.44-2.57-.79-3.3-1a.69.69,0,0,0-.9.62v.07a106.19,106.19,0,0,1-1.89,10.53C133,79.86,131.23,87.3,130.69,89a1,1,0,0,0,.43,1.05l.15.08a.62.62,0,0,0,.23.07l.14,0c3.07.78,14.84,5.27,24.05,8.8l2.32.88,2.77,1,.84.33.61.23.8.3.74.28c1.35.51,2.4.89,3.06,1.11l.17.06.23.07a.16.16,0,0,0,.09,0l.07,0a.93.93,0,0,0,.33,0h0l.09,0,.1,0a.66.66,0,0,0,.35-.38Zm-10-4.56-2.27-.86c-8.6-3.29-19.42-7.42-23.47-8.64.54-2,1.54-6.27,2.53-10.74.31-1.41.62-2.85.92-4.24.88-4.17,1.62-8,1.85-10,.58.17,1.3.38,2.1.63l1.68.55c1.26.41,2.63.88,4,1.34,2.53.9,4.9,1.79,6,2.32,0,.32-.14.75-.25,1.21-.22,1-.54,2.2-.77,2.9l0,.06a1,1,0,0,0,.58,1.13c1.34.61,5,2.1,8.87,3.57,1.64.62,3.32,1.24,4.87,1.79.75.27,1.47.51,2.15.74a33.92,33.92,0,0,0,3.68,1c-.56,3.91-1.06,6.81-1.6,9.53h0c-.47,2.4-1,4.66-1.57,7.35-.26,1.18-.53,2.42-.73,3.31a.85.85,0,0,1,0,.17C165.31,101,162.16,99.8,158.32,98.33Z"/></g></g></svg>