<svg xmlns="http://www.w3.org/2000/svg" viewBox="0 0 231.81 121.02"><defs><style>.cls-1{fill:#ede3d6;}.cls-2{fill:#d8d8d8;}</style></defs><title>profile-asset_1_1</title><g id="Layer_2" data-name="Layer 2"><g id="Layer_1-2" data-name="Layer 1"><path class="cls-1" d="M2.28,10.73,5.7,14.08l4.5,28.09,8.31,1.32,14.7,5s-21.06,6.31-24.48,3.8S2.5,12.13,2.5,12.13Z"/><path class="cls-2" d="M9.48,52.5c8.07-.29,20-2.84,31-5.17,9.61-2,18.45-3.93,23.43-4-.73-7.55-2.09-15.43-3.38-22.89C59.4,14,58.33,7.78,57.77,2.41c-4.67-.1-19,2.33-32.12,4.58C16,8.64,6.89,10.19,2.53,10.57c.77,8.4,2.52,17.51,4.15,26,1.1,5.78,2.15,11.24,2.8,16ZM41,49.7c-11.56,2.46-24.24,5.16-32.53,5.24h0a1.21,1.21,0,0,1-1.22-1.06C6.61,49,5.49,43.16,4.3,37,2.59,28.06.73,18.4,0,9.59c0,0,0-.08,0-.12A1.22,1.22,0,0,1,1.17,8.22c3.54-.11,13.44-1.8,24.08-3.61C39.58,2.16,55.23-.51,59,.08h0a1.2,1.2,0,0,1,1,1.08c.52,5.56,1.64,12,2.82,18.85,1.38,8,2.84,16.42,3.53,24.4a.88.88,0,0,1,0,.23,1.21,1.21,0,0,1-1.29,1.12C60.9,45.45,51.4,47.48,41,49.7Z"/><path class="cls-2" d="M11.32,13.62c-.3,0-.62,0-.93.06s-.8,0-1.13.08c-.74.1-1.32.43-1.14,1.76.22,1.66,1.52,8.88,2.66,15.17.88,4.85,1.65,9.15,1.78,10a2.46,2.46,0,0,0,.1.47,1,1,0,0,0,.44.62,1.79,1.79,0,0,0,1,.08,4.84,4.84,0,0,0,.87-.2c1.7-.53,18.06-2.59,29.92-4.09,6-.75,10.78-1.35,12-1.54a4.7,4.7,0,0,0,1.74-.44c.15-.14.17-.57.1-1.45-.48-5.5-2-17.51-2.59-22.3-.15-1.18-.24-1.93-.25-2-.18-1.69-.52-2.6-1-3a3.15,3.15,0,0,0-2.35,0c-1,.24-13.71,2.41-24.79,4.23C20,12.36,13,13.46,11.32,13.62Zm-1.06-2.36c.28,0,.56,0,.83,0,1.67-.16,8.56-1.25,16.21-2.5,11-1.81,23.58-4,24.63-4.21,1.75-.41,3.15-.41,4.3.4s1.77,2.22,2,4.67c0,.17.11.88.25,2,.6,4.83,2.12,17,2.6,22.39.15,1.7-.09,2.69-.84,3.41a5.41,5.41,0,0,1-3,1.08c-1.24.19-6.06.8-12,1.55-11.76,1.48-28,3.52-29.51,4a7.94,7.94,0,0,1-1.24.29A4.1,4.1,0,0,1,12,44a3.24,3.24,0,0,1-1.67-2.07,5.4,5.4,0,0,1-.19-.85c-.11-.81-.88-5.1-1.76-9.92C7.26,24.8,6,17.56,5.72,15.85c-.45-3.37,1.18-4.21,3.22-4.48.46-.06.89-.08,1.32-.11Z"/><path class="cls-2" d="M25.7,52.15a1.21,1.21,0,1,1,2.2-1,13.73,13.73,0,0,1,1.26,5.12,8.88,8.88,0,0,1-.2,2.27c2.8-.15,6.94-.6,10.92-1.22a72.37,72.37,0,0,0,8.71-1.78A26.63,26.63,0,0,1,47,52.3a17.4,17.4,0,0,1-1.3-4.76,1.21,1.21,0,0,1,2.41-.21,14.84,14.84,0,0,0,1.14,4.05,18.16,18.16,0,0,0,2.16,4h0a1.19,1.19,0,0,1-.49,1.88,58.78,58.78,0,0,1-10.66,2.41A99.83,99.83,0,0,1,27.13,61a1.21,1.21,0,0,1-.67-2.23,4.55,4.55,0,0,0,.28-2.4,11.37,11.37,0,0,0-1-4.23Z"/><path class="cls-1" d="M98.8,36.35S101.88,55.2,114.28,57c0,0-15.38-1-19.17-2.72Z"/><path class="cls-1" d="M101.21,23.46l11.73-7.15-2.71,8.43A7.53,7.53,0,0,1,101.21,23.46Z"/><path class="cls-2" d="M128.14,59.94a130.65,130.65,0,0,0-13.64-1.7c-6.68-.63-13.83-1.3-19.55-2.78a.94.94,0,0,1-.45-.14.92.92,0,0,1-.48-1,1.11,1.11,0,0,1,.12-.27c.12-.45,1.74-10,3.15-18.25,1-5.91,1.9-11.18,2.11-12.15a.88.88,0,0,1,.55-.67,44.7,44.7,0,0,0,6.14-3.77c2.2-1.55,4.35-3.21,6-4.52a.87.87,0,0,1,.69-.18l1.44.14c8.28.86,17.84,1.84,22,3.43a.91.91,0,0,1,.55,1.12h0c-1,3.24-1.79,8.91-2.68,15.2-1.22,8.7-2.62,18.56-4.89,25a.9.9,0,0,1-1.1.58Zm-13.46-3.53c4.84.45,9.45.88,13.08,1.58,2.08-6.31,3.39-15.64,4.56-23.9a146.92,146.92,0,0,1,2.49-14.62c-4.33-1.35-13.11-2.25-20.78-3l-1.09-.12c-1.64,1.29-3.7,2.87-5.79,4.35a47.58,47.58,0,0,1-6,3.74c-.31,1.66-1.12,6.41-2,11.66C97.91,43,96.57,50.91,96,53.82c5.5,1.36,12.32,2,18.71,2.59Z"/><path class="cls-2" d="M111.45,15.7a.92.92,0,1,1,1.83.12,30.65,30.65,0,0,1-.73,4.46,18.94,18.94,0,0,0-.66,5.29.91.91,0,0,1-.71,1,15,15,0,0,1-6.21.32,9.64,9.64,0,0,1-5-2.28.92.92,0,0,1,0-1.3.91.91,0,0,1,1.29,0,7.93,7.93,0,0,0,4.09,1.81,13,13,0,0,0,4.75-.14,24.82,24.82,0,0,1,.73-5,29.66,29.66,0,0,0,.7-4.2Z"/><path class="cls-2" d="M102.21,50.13a.92.92,0,0,1-.78-1,.9.9,0,0,1,1-.78l3.53.52c3.6.54,8.18,1.52,8.4,1.4a.92.92,0,0,1,1.25.37.91.91,0,0,1-.37,1.24c-.32.18-5.69-.62-9.55-1.2l-3.52-.51Z"/><path class="cls-2" d="M103,44.29a.92.92,0,0,1,.26-1.82l4.19.61c6.37.93,17.29,2.82,17.5,2.7a.92.92,0,0,1,.88,1.61c-.33.18-12.05-1.53-18.64-2.49L103,44.29Z"/><path class="cls-2" d="M103.94,37.9a.92.92,0,1,1,.26-1.82l4.2.61c6.37.93,17.29,2.82,17.5,2.7a.92.92,0,0,1,1.24.36.93.93,0,0,1-.36,1.25c-.33.18-12.06-1.53-18.64-2.49l-4.2-.61Z"/><path class="cls-2" d="M104.77,32.06a.92.92,0,1,1,.26-1.82l4.19.61c6.36.93,17.29,2.82,17.5,2.7a.92.92,0,0,1,.89,1.61c-.32.18-12.07-1.53-18.65-2.49l-4.19-.61Z"/><path class="cls-1" d="M72.56,83.28a12.58,12.58,0,0,0,2.26,3.63,9.14,9.14,0,0,0-3.66,9.37l0,.16s-2.23,1.2-3.47,1h0A.92.92,0,0,1,67,97h0a2.29,2.29,0,0,1,.08-1.76h0l-.79-2.83a15.82,15.82,0,0,1,2.13-4.26,27,27,0,0,1-4.12-3.45l-.23-.24L63,80.61l0,0,0-.06,1-2a25.8,25.8,0,0,1,6.41-1.28l1-.1a30,30,0,0,1,2.67-6c.37-.64.75-1.23,1.13-1.76l1.34.6a0,0,0,0,1,0,0c-.06.32-1.65,8.8.57,11Z"/><path class="cls-2" d="M93.72,78.15a.65.65,0,0,0-.25-.47,7.82,7.82,0,0,0-4.25-1.56,25.19,25.19,0,0,0-5.84.12,28.76,28.76,0,0,0-2.28-5.16c-1.12-2-2.35-3.59-3.12-3.88a.8.8,0,0,0-.46,0,5.71,5.71,0,0,0-2.33,2.19c-.38.53-.76,1.12-1.13,1.76a30,30,0,0,0-2.67,6l-1,.1A25.8,25.8,0,0,0,64,78.54c-.71.25-1.47.56-2.29.94l0,0a.73.73,0,0,0-.38,1,14.19,14.19,0,0,0,2.77,4l.23.24a27,27,0,0,0,4.12,3.45,15.82,15.82,0,0,0-2.13,4.26c-.08.23-.15.45-.21.68-.59,2-.79,4-.22,5.4h0a.77.77,0,0,0,.6.44,10.46,10.46,0,0,0,5.13-1.21,25.59,25.59,0,0,0,5.3-3.36,24.71,24.71,0,0,0,5.8,3.88c2.5,1.21,4.85,1.8,5.88,1.32h0a.66.66,0,0,0,.34-.32c.54-1,.23-3.2-.39-5.49a34.81,34.81,0,0,0-2.39-6.32,20.5,20.5,0,0,0,4.76-4c1.59-1.78,2.81-3.71,2.81-5A1.34,1.34,0,0,0,93.72,78.15Zm-3.89,4.22c-1.67,1.87-3.75,3.61-5,4a.72.72,0,0,0-.47.92.73.73,0,0,0,.26.36c.43.37,1.67,3.49,2.47,6.43a11.63,11.63,0,0,1,.6,4.17,10.43,10.43,0,0,1-4.38-1.38,22.18,22.18,0,0,1-5.89-4.07.74.74,0,0,0-1,0,23.91,23.91,0,0,1-5.28,3.47l-.16.08a11.82,11.82,0,0,1-3.28,1h0c-.21,0-.41,0-.61,0A3.61,3.61,0,0,1,67,97h0a6.71,6.71,0,0,1,.08-1.76h0a11.56,11.56,0,0,1,.4-1.75,12.85,12.85,0,0,1,2.56-5,.73.73,0,0,0,0-1,1.09,1.09,0,0,0-.17-.13h0a23.44,23.44,0,0,1-4.54-3.67,14.61,14.61,0,0,1-2.34-3l0-.09.07,0a22.77,22.77,0,0,1,7.53-1.78l1.47-.16a.75.75,0,0,0,.63-.58,26.94,26.94,0,0,1,2.63-6.12c.41-.71.83-1.35,1.2-1.88a0,0,0,0,0,0,0,5.45,5.45,0,0,1,1.15-1.26,13.25,13.25,0,0,1,2.14,3.08,25.71,25.71,0,0,1,2.32,5.44.74.74,0,0,0,.85.53,25.24,25.24,0,0,1,6.06-.19,7.15,7.15,0,0,1,3.21,1C92.14,79.46,91.11,80.93,89.83,82.37Z"/><path class="cls-1" d="M143.87,116.05a7.79,7.79,0,0,1-4.61,2.17c-2.75.37-6.17-.3-10.12-1.8a33.27,33.27,0,0,1-5.22-2.51,23.22,23.22,0,0,1-7.34-6.46,9.17,9.17,0,0,1-1.72-7l1.45,1.1c2.12,1.57,5,3.63,8.29,5.71l1.35.85c5.07,3.13,10.85,6.18,16,7.55C142.58,115.79,143.23,115.94,143.87,116.05Z"/><path class="cls-2" d="M137.14,97.6A35.66,35.66,0,0,0,133,94.65a15.75,15.75,0,0,0-8.71-2.57,9.55,9.55,0,0,0-7.07,3.72,13.69,13.69,0,0,0-1.27,1.83,8.34,8.34,0,0,0-.7,1.45,7.29,7.29,0,0,0-.38,1.32,9.17,9.17,0,0,0,1.72,7,23.22,23.22,0,0,0,7.34,6.46,33.27,33.27,0,0,0,5.22,2.51c4,1.5,7.37,2.17,10.12,1.8a7.79,7.79,0,0,0,4.61-2.17,8.45,8.45,0,0,0,1.71-2.54c.78-1.76,0-4.59-1.6-7.49A30.78,30.78,0,0,0,137.14,97.6Zm5.46,9.18c1.37,2.5,2.1,4.82,1.53,6.08a6.33,6.33,0,0,1-2.21,2.75,6.72,6.72,0,0,1-2.87,1c-2.48.33-5.64-.3-9.35-1.71a33.36,33.36,0,0,1-4.91-2.35l-.07,0c-.48-.29-1-.59-1.43-.9a20,20,0,0,1-5.4-5.09,8,8,0,0,1-1.58-5.06,6.53,6.53,0,0,1,.4-1.86,8.56,8.56,0,0,1,.4-.88l.18-.32a12.72,12.72,0,0,1,.81-1.21c.1-.15.22-.29.33-.43a8.06,8.06,0,0,1,5.94-3.15A14.3,14.3,0,0,1,132.18,96l.26.16c.46.28.93.59,1.4.91.75.53,1.52,1.1,2.3,1.74A29.31,29.31,0,0,1,142.6,106.78Z"/><path class="cls-2" d="M115.52,95.75a.79.79,0,1,1-.66,1.43,6.46,6.46,0,0,1-3.08-2.78,4.14,4.14,0,0,1,0-3.69c1.12-2.55,4.41-2.79,7.91-3.06,3.11-.23,6.4-.48,7.9-2.41A7.38,7.38,0,0,0,129,81.38a14.4,14.4,0,0,0-.33-4.31.79.79,0,0,1,1.55-.32,16.17,16.17,0,0,1,.35,4.79,8.85,8.85,0,0,1-1.81,4.67c-1.92,2.48-5.58,2.76-9,3-3,.22-5.84.44-6.59,2.12a2.65,2.65,0,0,0,0,2.34,5,5,0,0,0,2.33,2.06Z"/><path class="cls-2" d="M117.35,98.75a.79.79,0,0,1-.34-1.54c1-.22,3.06.47,5.19,1.48a27.72,27.72,0,0,1,5.85,3.64A.79.79,0,0,1,127,103.5a25.81,25.81,0,0,0-5.46-3.38c-1.86-.89-3.56-1.51-4.17-1.37Z"/><path class="cls-2" d="M133,95.77a.8.8,0,0,1,1.11.17.79.79,0,0,1-.17,1.1,26,26,0,0,0-6.16,7.45c-1.7,2.93-2.9,6-2.93,8.12a.79.79,0,0,1-1.58,0c0-2.42,1.32-5.75,3.14-8.88A27.69,27.69,0,0,1,133,95.77Z"/><path class="cls-2" d="M120.14,101.24A2.23,2.23,0,0,1,118.82,99a2.8,2.8,0,0,1,.32-1.1,2.32,2.32,0,0,1,.77-.87,1.77,1.77,0,0,1,2.15.12,23.56,23.56,0,0,0,2.9,1.62l1.13.57a2,2,0,0,1,1,2.17,2.76,2.76,0,0,1-.49,1.17,2.56,2.56,0,0,1-1,.84,1.8,1.8,0,0,1-2.17-.4,15.43,15.43,0,0,0-1.43-.85c-.59-.32-1.28-.68-2-1Z"/><path class="cls-2" d="M120.4,99.07a.71.71,0,0,0,.39.73c.73.33,1.46.7,2.07,1a11.82,11.82,0,0,1,1.78,1.11.3.3,0,0,0,.37.09,1,1,0,0,0,.35-.32,1.34,1.34,0,0,0,.22-.51.47.47,0,0,0-.21-.52l-1.12-.56a22.24,22.24,0,0,1-3.12-1.76c-.15-.11-.27-.12-.36-.06a.72.72,0,0,0-.23.28,1.08,1.08,0,0,0-.14.48Z"/><path class="cls-1" d="M170.82,84.21l-1-1a4.37,4.37,0,0,0-.31,2.66,6.17,6.17,0,0,0,1.88,3.29,5.3,5.3,0,0,0,1,.69,6.59,6.59,0,0,0,3,.81,6.12,6.12,0,0,0,2.33-.4l-.92-1.08-.26-.32S174,87.08,170.82,84.21Z"/><path class="cls-1" d="M159,81.56a.56.56,0,0,0-.12.2.66.66,0,0,0,.4.84,14,14,0,0,1,2.4,1.27,11.6,11.6,0,0,0,2.42,1.24.65.65,0,0,0,.76-.31.59.59,0,0,0,0-.08c0-.1.08-.2.13-.3A10.67,10.67,0,0,1,167.44,81c-.31-.31-.61-.62-.91-1-.68-.72-1.35-1.46-2-2.23l-.84-1A27,27,0,0,0,159,81.56Z"/><path class="cls-1" d="M151.2,77.65l0,0a.67.67,0,0,0,.4.85A13.64,13.64,0,0,1,154,79.8,11.6,11.6,0,0,0,156.4,81h0a.66.66,0,0,0,.81-.46,10.3,10.3,0,0,1,2.08-3.83,16.81,16.81,0,0,1,2.53-2.44c-.26-.36-.51-.72-.75-1.09a28.28,28.28,0,0,1-1.91-3.36c-.2-.41-.39-.81-.55-1.22a25.35,25.35,0,0,0-4.45,4.07A16.55,16.55,0,0,0,151.2,77.65Z"/><path class="cls-2" d="M169.77,83.24a4.37,4.37,0,0,0-.31,2.66,6.17,6.17,0,0,0,1.88,3.29,5.3,5.3,0,0,0,1,.69,6.59,6.59,0,0,0,3,.81,6.12,6.12,0,0,0,2.33-.4,4.54,4.54,0,0,0,1.69-1.15h0a6.55,6.55,0,0,0,.52-.66,5.53,5.53,0,0,0,.93-3.31,4.85,4.85,0,0,0-1.59-3.34,5.62,5.62,0,0,0-.7-.54h0c-.24-.16-.48-.3-.72-.44a6.26,6.26,0,0,0-3.81-.91,4.61,4.61,0,0,0-2,.78,6.57,6.57,0,0,0-1.74,1.81h0A6.24,6.24,0,0,0,169.77,83.24Zm1,1a3.41,3.41,0,0,1,.45-.95h0a5.44,5.44,0,0,1,1.33-1.43,3.3,3.3,0,0,1,1.51-.59h0a5.48,5.48,0,0,1,3.64,1.14h0a4.85,4.85,0,0,1,.54.43,3.47,3.47,0,0,1,1.16,2.43,4.17,4.17,0,0,1-.71,2.51,3.81,3.81,0,0,1-.4.5,3.46,3.46,0,0,1-1.63,1,4.81,4.81,0,0,1-1.37.16,4.65,4.65,0,0,1-4.6-3.71A3.25,3.25,0,0,1,170.82,84.21Z"/><path class="cls-2" d="M158.86,81.76a.66.66,0,0,0,.4.84,14,14,0,0,1,2.4,1.27,11.6,11.6,0,0,0,2.42,1.24.65.65,0,0,0,.76-.31.59.59,0,0,0,0-.08c0-.1.08-.2.13-.3A10.67,10.67,0,0,1,167.44,81a11.92,11.92,0,0,1,4.5-2.68,16.31,16.31,0,0,1,11.31.64l.62.26a.67.67,0,0,0,.69-.09,10,10,0,0,0,2-2.81c.22-.4.45-.82.69-1.23l0,0a.66.66,0,0,0-.27-.89,19.51,19.51,0,0,0-14.66-1.83,24,24,0,0,0-8.63,4.45,27,27,0,0,0-4.7,4.81A.56.56,0,0,0,158.86,81.76Zm1.67-.05a25.68,25.68,0,0,1,4-3.94,22.58,22.58,0,0,1,8.13-4.2A18.18,18.18,0,0,1,185.74,75c-.13.22-.24.44-.37.66A12.5,12.5,0,0,1,184,77.79l-.26-.1A17.63,17.63,0,0,0,171.51,77a13.12,13.12,0,0,0-5,3,11.88,11.88,0,0,0-2.61,3.63,16.68,16.68,0,0,1-1.57-.89C161.76,82.38,161.14,82,160.53,81.71Z"/><path class="cls-2" d="M151.2,77.65l0,0a.67.67,0,0,0,.4.85A13.64,13.64,0,0,1,154,79.8,11.6,11.6,0,0,0,156.4,81h0a.66.66,0,0,0,.81-.46,10.3,10.3,0,0,1,2.08-3.83,16.81,16.81,0,0,1,2.53-2.44,25.52,25.52,0,0,1,8.1-4.15,23.74,23.74,0,0,1,13-.63,12.75,12.75,0,0,1,4.78,2.4.67.67,0,0,0,.86,0,9.85,9.85,0,0,0,2-2.81c.21-.39.43-.79.67-1.19a.65.65,0,0,0-.12-.87,18.86,18.86,0,0,0-5.79-3.35c-5.36-2-11.52-1.63-17.15.15a33.21,33.21,0,0,0-9.52,4.77,25.35,25.35,0,0,0-4.45,4.07A16.55,16.55,0,0,0,151.2,77.65Zm4-4.09a24.06,24.06,0,0,1,4-3.7,32.09,32.09,0,0,1,9.36-4.74c5.38-1.69,11.24-2,16.31-.16a17.37,17.37,0,0,1,5,2.77c-.14.25-.28.51-.43.76a14.18,14.18,0,0,1-1.28,2.07,14.23,14.23,0,0,0-4.82-2.3,25.05,25.05,0,0,0-13.73.64,26.93,26.93,0,0,0-8.46,4.32,18.41,18.41,0,0,0-2.8,2.69,12.36,12.36,0,0,0-2.11,3.62,16.41,16.41,0,0,1-1.5-.86,20.13,20.13,0,0,0-2-1.12A16.18,16.18,0,0,1,155.18,73.56Z"/><path class="cls-1" d="M172.3,43.46c-.11.24-.21.48-.3.7a.57.57,0,0,1-.73.33,17.23,17.23,0,0,1-3.61-2c-1.18-.83-2.36-1.78-3.52-2.72a29.25,29.25,0,0,0-6.08-4.15.55.55,0,0,1-.29-.74.45.45,0,0,1,.11-.17,10.12,10.12,0,0,0,1.22-2.1A6.32,6.32,0,0,1,161,30a.57.57,0,0,1,.42-.08h0a7.22,7.22,0,0,1,2.05.81,10.41,10.41,0,0,0,.16,1.39c.51,3,2.35,7,7.75,10.72Z"/><path class="cls-2" d="M184.62,21.61a3.12,3.12,0,0,1-1.69-1.23,11.11,11.11,0,0,0-2.88-2.55.52.52,0,0,0-.27-.1.56.56,0,0,0-.61.51c-.22,2.22-4.25,8.82-7,13.41-1,1.64-1.85,3-2.33,3.9A36,36,0,0,0,165.46,32a21.47,21.47,0,0,0-2-1.27,7.22,7.22,0,0,0-2.05-.81h0A.57.57,0,0,0,161,30a6.32,6.32,0,0,0-1.86,2.64,10.12,10.12,0,0,1-1.22,2.1.45.45,0,0,0-.11.17.55.55,0,0,0,.29.74,29.25,29.25,0,0,1,6.08,4.15c1.16.94,2.34,1.89,3.52,2.72a17.23,17.23,0,0,0,3.61,2,.57.57,0,0,0,.73-.33c.09-.22.19-.46.3-.7a105.35,105.35,0,0,1,6.95-11.73c2.19-3.41,4.34-6.74,5.67-9.28a.67.67,0,0,0,.06-.12A.57.57,0,0,0,184.62,21.61Zm-6.33,9.51a114.76,114.76,0,0,0-6.95,11.7l-.18.4a30.53,30.53,0,0,1-6.32-4.32,34.62,34.62,0,0,0-5.68-4,16.26,16.26,0,0,0,1-1.79,6.51,6.51,0,0,1,1.28-2,8.92,8.92,0,0,1,2.19,1c.4.25.81.51,1.22.8a33.21,33.21,0,0,1,4.72,4,.57.57,0,0,0,.8,0,.44.44,0,0,0,.14-.22h0a50.79,50.79,0,0,1,2.61-4.47c2.56-4.2,6.13-10.06,7-13a9,9,0,0,1,2,1.85,4.1,4.1,0,0,0,1.59,1.35C182.33,24.85,180.33,28,178.29,31.12Z"/><path class="cls-1" d="M25.33,119.05a4.45,4.45,0,0,0-.57.22,4.11,4.11,0,0,0-.86.5,3.16,3.16,0,0,0-.8.79l0,.06a1,1,0,0,1-1.3.25,46.24,46.24,0,0,1-4.72-3.8c-.77-.66-1.55-1.36-2.38-2-1.55.66-2.9,1.09-4.29,1.55-1.21.38-2.46.78-3.84,1.33a.93.93,0,0,1-1.23-.47c-.25-.55-.61-1.42-1-2.42-1.2-2.83-2.9-6.83-4-8.76l-.06-.14a.94.94,0,0,1,.54-1.2c1.71-.64,3.12-1.2,4.45-1.79.65-.29,1.27-.6,1.9-.94s1-.57,1.56-.91c.06-.4.11-.92.16-1.5.47.78,1,1.6,1.54,2.46,3.33,5.2,8,11.45,13.25,15.54C24.15,118.23,24.74,118.65,25.33,119.05Z"/><path class="cls-2" d="M22.75,103c-2.44-6.08-5.08-12-6.29-13.63a.94.94,0,0,0-1.1-.31l-.07,0-.25.13c-.77.43-3.35,1.83-4,1.67a.93.93,0,0,0-1.09.6,28.13,28.13,0,0,0-1.06,7c0,.45-.07.88-.1,1.29,0,.58-.1,1.1-.16,1.5-.53.34-1.05.64-1.56.91s-1.25.65-1.9.94c-1.33.59-2.74,1.15-4.45,1.79a.94.94,0,0,0-.54,1.2l.06.14c1.13,1.93,2.83,5.93,4,8.76.43,1,.79,1.87,1,2.42a.93.93,0,0,0,1.23.47c1.38-.55,2.63-1,3.84-1.33,1.39-.46,2.74-.89,4.29-1.55.83.68,1.61,1.38,2.38,2a46.24,46.24,0,0,0,4.72,3.8,1,1,0,0,0,1.3-.25l0-.06a3.16,3.16,0,0,1,.8-.79,4.11,4.11,0,0,1,.86-.5,4.45,4.45,0,0,1,.57-.22,3.19,3.19,0,0,1,1.48-.16.93.93,0,0,0,1.08-.74.74.74,0,0,0,0-.33C27.62,115.8,25.29,109.29,22.75,103ZM25.83,117a6.33,6.33,0,0,0-1.83.53,2.74,2.74,0,0,0-.42.21,6.28,6.28,0,0,0-1.18.8l-.27.25a49.48,49.48,0,0,1-3.85-3.15c-.86-.76-1.75-1.54-2.84-2.42a.93.93,0,0,0-1-.16,42.14,42.14,0,0,1-4.63,1.7c-1,.31-2,.64-3.15,1.07-.19-.46-.42-1-.67-1.57-1.05-2.49-2.48-5.85-3.6-8,1.32-.5,2.47-1,3.55-1.45.78-.36,1.54-.73,2.29-1.15.58-.31,1.16-.65,1.76-1a1,1,0,0,0,.35-.4,1.06,1.06,0,0,0,.06-.19,31.29,31.29,0,0,0,.36-3.44,33.56,33.56,0,0,1,.75-5.92,15,15,0,0,0,3.9-1.55A120.68,120.68,0,0,1,21,103.67,141,141,0,0,1,25.83,117Z"/><path class="cls-2" d="M23.7,94.11a.93.93,0,0,1,.39-1.82,9.59,9.59,0,0,1,4.66,2.46,12.66,12.66,0,0,1,3.41,5.93,14.14,14.14,0,0,1,.24,6.57,8.31,8.31,0,0,1-2,4A.93.93,0,0,1,29.08,110a6.51,6.51,0,0,0,1.5-3.13,12.28,12.28,0,0,0-.22-5.69,10.9,10.9,0,0,0-2.89-5.07,7.81,7.81,0,0,0-3.77-2Z"/><path class="cls-2" d="M24.46,88.94a.93.93,0,0,1,.4-1.82,17.41,17.41,0,0,1,6.79,3,16.37,16.37,0,0,1,5.68,7.73,17.58,17.58,0,0,1,.58,9.61,18.93,18.93,0,0,1-3.32,7.25.93.93,0,0,1-1.5-1.11,16.88,16.88,0,0,0,3-6.54,15.72,15.72,0,0,0-.51-8.59,14.5,14.5,0,0,0-5-6.85,15.52,15.52,0,0,0-6.08-2.71Z"/><path class="cls-2" d="M25.32,83.58a.93.93,0,1,1,.38-1.82,22.5,22.5,0,0,1,9,4.12A23.08,23.08,0,0,1,42.1,95.5,21.35,21.35,0,0,1,43.25,108a24.62,24.62,0,0,1-4.61,9.82.94.94,0,0,1-1.49-1.13,22.61,22.61,0,0,0,4.27-9.07,19.48,19.48,0,0,0-1-11.44,21.36,21.36,0,0,0-6.83-8.84,20.84,20.84,0,0,0-8.23-3.78Z"/><path class="cls-1" d="M227.81,62.35a.51.51,0,0,1-.32,0,.54.54,0,0,1-.35-.24A22.93,22.93,0,0,0,223.28,58a24.78,24.78,0,0,1-5.07-5.72.6.6,0,0,1,0-.58,7.76,7.76,0,0,1,1.54-1.81l0,0a10.65,10.65,0,0,1-6.26,2.08h-.2a10.39,10.39,0,0,1-6.66-2.89,9.5,9.5,0,0,1-3.18-6.76v-.22a11,11,0,0,1,.12-1.42,10.52,10.52,0,0,1,2.85-5.75,8.24,8.24,0,0,1,6.16-2.5,9.64,9.64,0,0,1,1.3.11l.21,0,.49.1c.14.4.28.83.44,1.28s.33,1,.51,1.49l.5,1.43a10.4,10.4,0,0,0-2.32-.66l-.14,0a5.91,5.91,0,0,0-.81-.07A5.05,5.05,0,0,0,209,37.61a6.67,6.67,0,0,0-1.78,3.63,5.67,5.67,0,0,0-.08.9v.13a5.86,5.86,0,0,0,2,4.18,6.53,6.53,0,0,0,4.17,1.83h.12a6.79,6.79,0,0,0,4-1.34A5,5,0,0,0,219,44.79l.58,1.44c.21.51.42,1,.64,1.54s.33.79.51,1.19l0,0c.16.37.31.73.48,1.1,1.26,2.85,2.61,5.65,4,8.14A47.34,47.34,0,0,0,227.81,62.35Z"/><path class="cls-2" d="M223,44.45a1.06,1.06,0,0,1,0-.18c.52-3.35-.07-6-1.62-8a10.94,10.94,0,0,0-6.78-3.65l-.49-.1-.21,0a9.64,9.64,0,0,0-1.3-.11,8.24,8.24,0,0,0-6.16,2.5,10.52,10.52,0,0,0-2.85,5.75,11,11,0,0,0-.12,1.42v.22a9.5,9.5,0,0,0,3.18,6.76,10.39,10.39,0,0,0,6.66,2.89h.2a10.65,10.65,0,0,0,6.26-2.08l.1-.08a8.67,8.67,0,0,0,.66-.57l.25-.25A8.45,8.45,0,0,0,223,44.45Zm-3.82,4.42a9.51,9.51,0,0,1-5.65,1.91h-.17a9.13,9.13,0,0,1-5.89-2.58,8.33,8.33,0,0,1-2.81-5.91V42.1a9.7,9.7,0,0,1,2.64-6.38,7.1,7.1,0,0,1,5.3-2.16,9.58,9.58,0,0,1,1.15.1l.19,0,1.13.23a9.42,9.42,0,0,1,5.42,3.1c1.35,1.71,1.86,4.06,1.39,7.07a1,1,0,0,0,0,.17,7.21,7.21,0,0,1-2.67,4.61Z"/><path class="cls-2" d="M220.48,43.87l0-.13a7.39,7.39,0,0,0-1.21-5.92,7.48,7.48,0,0,0-3.76-2.41A14.46,14.46,0,0,0,213.9,35l-.15,0a6.48,6.48,0,0,0-5.56,1.78,7.76,7.76,0,0,0-2.1,4.27,7.19,7.19,0,0,0-.1,1v.16a7.07,7.07,0,0,0,2.36,5,7.68,7.68,0,0,0,5,2.14h.15a8,8,0,0,0,4.72-1.6,6.09,6.09,0,0,0,1.44-1.62A6.37,6.37,0,0,0,220.48,43.87Zm-3,3.07a6.79,6.79,0,0,1-4,1.34h-.12a6.53,6.53,0,0,1-4.17-1.83,5.86,5.86,0,0,1-2-4.18v-.13a5.67,5.67,0,0,1,.08-.9A6.67,6.67,0,0,1,209,37.61a5.05,5.05,0,0,1,3.74-1.52,5.91,5.91,0,0,1,.81.07l.14,0a10.4,10.4,0,0,1,2.32.66,5.69,5.69,0,0,1,2.34,1.7,6.29,6.29,0,0,1,1,5l0,.12a6,6,0,0,1-.3,1.11h0A5,5,0,0,1,217.45,46.94Z"/><path class="cls-2" d="M231.66,58.16c-.76-.84-1.82-1.88-3-3a51,51,0,0,1-6.07-6.67.58.58,0,0,0-.75-.2h0a7.15,7.15,0,0,0-1.09.72l-.27.21c-.25.2-.51.42-.76.65l0,0a7.76,7.76,0,0,0-1.54,1.81.6.6,0,0,0,0,.58A24.78,24.78,0,0,0,223.28,58a22.93,22.93,0,0,1,3.86,4.13.54.54,0,0,0,.35.24.51.51,0,0,0,.32,0,.16.16,0,0,0,.11-.05l.2-.11a8.76,8.76,0,0,0,3.63-3.38.62.62,0,0,0-.09-.65ZM227.79,61a20.54,20.54,0,0,0-2.53-2.79c-.39-.37-.79-.73-1.2-1.1A24.56,24.56,0,0,1,219.38,52a8.45,8.45,0,0,1,1.12-1.2c.25-.23.51-.45.76-.65s.49-.38.7-.52a58.46,58.46,0,0,0,5.92,6.4c1,1,1.9,1.88,2.63,2.66A7.93,7.93,0,0,1,227.79,61Z"/></g></g></svg>