<svg xmlns="http://www.w3.org/2000/svg" viewBox="0 0 249.9 135.78"><defs><style>.cls-1{fill:#ede3d6;}.cls-2,.cls-3{fill:#d8d8d8;}.cls-3{fill-rule:evenodd;}</style></defs><title>profile-asset_2</title><g id="Layer_2" data-name="Layer 2"><g id="Layer_1-2" data-name="Layer 1"><path class="cls-1" d="M29,129.21c-11.38-2.32-21.83-4.36-23.28-4.32A7.92,7.92,0,0,1,4,124.78a4.77,4.77,0,0,1-2.79-1.46A5.06,5.06,0,0,1,0,120a10.33,10.33,0,0,1,.19-2.1c.25-1.46,1.38-9.09,2.65-17.69S5.55,81.77,6.38,76.48c.62,1.92,1.3,4,2,6.13a302.14,302.14,0,0,0,13.79,34.05c.53,1.11,1.08,2.2,1.64,3.28q1.51,3,3.14,5.87C27.63,127,28.28,128.09,29,129.21Z"/><path class="cls-2" d="M75.06,79.58c-1-1.9-2.8-2.58-5.23-2.73-1.41-.09-18.15-2.52-32.75-4.77-10.15-1.56-19.26-3-21.42-3.58-.37-.09-.71-.19-1.05-.3a15.57,15.57,0,0,0-1.82-.48c-2.58-.48-4.89.13-5.86,5.43-.12.66-.31,1.81-.55,3.33-.83,5.29-2.26,15-3.54,23.76S.44,116.47.19,117.93A10.33,10.33,0,0,0,0,120a5.06,5.06,0,0,0,1.19,3.29A4.77,4.77,0,0,0,4,124.78a7.92,7.92,0,0,0,1.69.11c1.45,0,11.9,2,23.28,4.32,5.2,1,10.59,2.16,15.42,3.15,7.8,1.61,14.1,2.91,15.76,3.18,1.91.31,3.19.44,4.41-.36s1.8-2.14,2.38-4.81C69,120.92,73,99.68,74.6,91.24c.36-2,.6-3.22.66-3.49C76.07,83.79,76,81.24,75.06,79.58Zm-2.68,7.59c0,.21-.29,1.5-.67,3.53-1.29,6.87-4.19,22.23-6.35,32.81-.2,1-.4,2-.6,2.89-.25,1.23-.49,2.36-.71,3.36-.4,1.83-.73,2.7-1.14,3s-1.1.11-2.29-.08c-1.57-.25-7.87-1.56-15.67-3.16-5.61-1.16-12-2.47-18-3.68C16.43,123.69,7.13,121.9,5.58,122a5.94,5.94,0,0,1-1.08-.06,1.91,1.91,0,0,1-1.12-.54A2.19,2.19,0,0,1,3,119.93a6.63,6.63,0,0,1,.12-1.48c.06-.37.19-1.13.35-2.19.12-.81.27-1.78.44-2.91C4.35,110,5,105.51,5.74,100.68c.91-6.17,1.88-12.84,2.68-18.07.64-4.29,1.16-7.62,1.4-9,.52-2.86,1.45-3.25,2.46-3a10.71,10.71,0,0,1,1.48.4c.42.12.84.26,1.2.34,2.18.55,11.4,2.05,21.68,3.63,14.68,2.26,31.53,4.7,33,4.8s2.43.39,2.85,1.19C73,82,73.05,83.92,72.38,87.17Z"/><path class="cls-2" d="M47.88,99.76c-1.33-.91-5.31-6-8-9.41-1.08-1.38-2-2.53-2.68-3.23a1.55,1.55,0,0,0-.5-.52,1.46,1.46,0,0,0-2,.47c-.89,1.42-2,6.22-2.84,11.08-.86,5-1.43,10.28-1.08,11.89h0a1,1,0,0,0,.14.38,1.46,1.46,0,0,0,2,.61c1.46-.77,2.88-1.46,4.22-2.1,1.83-.88,3.48-1.67,5.21-2.7A43.67,43.67,0,0,0,48,102.09a1.35,1.35,0,0,0,.28-.3A1.46,1.46,0,0,0,47.88,99.76Zm-12.1,6.53-2.22,1.08c.13-2.15.57-5.45,1.13-8.74.53-3.11,1.16-6.16,1.72-8.12a13.33,13.33,0,0,0,1.13,1.66c2.22,2.82,5.24,6.65,7.27,8.73A42.82,42.82,0,0,1,35.78,106.29Z"/><path class="cls-2" d="M3.19,116.22a1.47,1.47,0,0,1,.48-2.9c3.83.64,9.57,1.69,16,2.87,15.71,2.9,35.54,6.55,46.42,7.38a1.46,1.46,0,0,1,1.35,1.57,1.47,1.47,0,0,1-1.58,1.35c-11-.84-30.94-4.51-46.72-7.41-6-1.12-11.48-2.12-15.92-2.86Z"/><path class="cls-3" d="M17.46,114.51a3.8,3.8,0,0,0-5.12-.51,3.39,3.39,0,0,0-1,4.3c1.28,2.25,3.18,2.59,5.35,1.33a3.4,3.4,0,0,0,.73-5.12Z"/><path class="cls-1" d="M133.51,121.47v0a1.2,1.2,0,0,1-1,1.43c-1.15.24-2.73.6-4.55,1l-4.22.94-.92-2.31,4.61-1c1.24-.28,2.37-.54,3.38-.75-.32-1.4-.64-2.8-1-4.12-.24-.82-.49-1.6-.78-2.33a11.08,11.08,0,0,0-1.19-2.28,14.06,14.06,0,0,0-6.36-5.36,13.24,13.24,0,0,0-5.28-.76l-.25-.6-.71-1.79-.19-.49a4.67,4.67,0,0,0,.66-.23,8.79,8.79,0,0,0,4.12-3.4,5.93,5.93,0,0,0,.66-1.62,4.45,4.45,0,0,0,.14-1,5.86,5.86,0,0,0-.1-1.54c0-.08,0-.17-.06-.26h0c-.06-.25-.12-.49-.2-.72a7,7,0,0,0-3.37-4.5l-.07,0a7.07,7.07,0,0,0-2.59-.69,11,11,0,0,0-2.48.07,16.8,16.8,0,0,0-1.76.32h0l-.34.08-.11-.3-.79-2c.21-.07.44-.13.67-.19h0l.44-.1a16.16,16.16,0,0,1,1.72-.28,9.29,9.29,0,0,1,.76-3.31A8.68,8.68,0,0,1,116.63,79c.18.77.37,1.59.58,2.47.49,2,1.09,4.34,1.78,6.8.55,2,1.17,4.06,1.86,6.17.08.27.17.53.26.79q.27.87.57,1.74c.07.2.14.39.2.59l.68,1.91c.8,2.19,1.66,4.37,2.58,6.45a59.61,59.61,0,0,0,4.42,8.37c.51.77,1,1.49,1.54,2.18a24.05,24.05,0,0,0,1.7,2c.18.73.34,1.46.51,2.19C133.36,120.81,133.42,121.05,133.51,121.47Z"/><path class="cls-1" d="M110.39,124.83a15.16,15.16,0,0,0,1.18,2.31,69.23,69.23,0,0,1-9.58.74,1.24,1.24,0,0,1-1.22-1,27.42,27.42,0,0,1-.62-5.63,23.14,23.14,0,0,1,.51-5.41,19.73,19.73,0,0,1,3-7.11,11.19,11.19,0,0,1,4.36-3.5q-.06,1.41-.06,2.82C107.9,114.27,108.51,120.37,110.39,124.83Z"/><path class="cls-1" d="M109.9,87c-.11.7-.23,1.45-.35,2.27l-.06.36c-.52,3.46-1.06,7.87-1.35,12.52,0,.88-.1,1.77-.13,2.66a8.81,8.81,0,0,1-5.44-6.27,10.06,10.06,0,0,1,.49-6.24,8.74,8.74,0,0,1,4.83-4.7,8.1,8.1,0,0,1,.87-.3c.21-.07.44-.13.67-.19h0Z"/><path class="cls-2" d="M132.18,85.59v0c-.81-3.34-2.47-5.59-4.83-6.81s-5.22-1.37-8.59-.57h0a10.27,10.27,0,0,0-1.54.49l-.57.26a8.68,8.68,0,0,0-4.25,4.44,9.29,9.29,0,0,0-.76,3.31,9.46,9.46,0,0,0,.16,2.44,11,11,0,0,1,2.48-.07,7.77,7.77,0,0,1-.19-2.45,6.81,6.81,0,0,1,.55-2.27,6.24,6.24,0,0,1,2.59-2.93,6.46,6.46,0,0,1,.91-.46,9.76,9.76,0,0,1,1.19-.38h0c2.81-.68,5.15-.58,6.92.34s2.94,2.61,3.55,5.22l0,0a5.79,5.79,0,0,1-.65,4.39A8.73,8.73,0,0,1,125,94a7.4,7.4,0,0,1-2.17.51,8.58,8.58,0,0,1-2-.07,3.43,3.43,0,0,1-.56-.08c.08.23.14.47.2.72h0c0,.09.05.18.06.26a5.86,5.86,0,0,1,.1,1.54c.35,0,.69.07,1,.08a11.38,11.38,0,0,0,1.43,0c.25,0,.51,0,.76-.09a9.8,9.8,0,0,0,2.09-.58,12,12,0,0,0,2.57-1.46,10.39,10.39,0,0,0,2.73-3A8.14,8.14,0,0,0,132.18,85.59Z"/><path class="cls-2" d="M111.14,103.22c-.15.36-.28.72-.4,1.1l.49-.13c.81-.18,1.58-.33,2.33-.44l.18-.42A9.13,9.13,0,0,1,111.14,103.22Zm0,0c-.15.36-.28.72-.4,1.1l.49-.13c.81-.18,1.58-.33,2.33-.44l.18-.42A9.13,9.13,0,0,1,111.14,103.22Zm0,0c-.15.36-.28.72-.4,1.1s-.26.81-.38,1.23-.26,1-.39,1.44a.79.79,0,0,1,0,.13,14.12,14.12,0,0,1,1.83-.55l.9-.18a5.32,5.32,0,0,1,.16-.57,18.69,18.69,0,0,1,.73-2.07l.18-.42A9.13,9.13,0,0,1,111.14,103.22Zm31.48,8.48c-.82-3.65-1.68-7.43-3.46-9.93a16.32,16.32,0,0,0-7.5-6.23,14.79,14.79,0,0,0-3.13-.78,19.87,19.87,0,0,0-5.58.09c-.6.08-1.21.19-1.84.33l-.56.12a5.86,5.86,0,0,1,.1,1.54,4.45,4.45,0,0,1-.14,1l.57-.14.8-.17,1.2-.21a15.14,15.14,0,0,1,7.73.53,13.92,13.92,0,0,1,6.36,5.35c1.44,2,2.24,5.42,3,8.73l-3.38.75c-1.6.37-3.4.77-5.31,1.18-.62.14-1.26.27-1.91.4l-.51.11c.29.73.54,1.51.78,2.33l1.27-.26,1.13-.24,5.09-1.13c1.81-.41,3.39-.77,4.55-1a1.2,1.2,0,0,0,.95-1.43v0C142.72,112.16,142.67,111.92,142.62,111.7Zm-31.48-8.48c-.15.36-.28.72-.4,1.1l.49-.13c.81-.18,1.58-.33,2.33-.44l.18-.42A9.13,9.13,0,0,1,111.14,103.22Zm0,0c-.15.36-.28.72-.4,1.1l.49-.13c.81-.18,1.58-.33,2.33-.44l.18-.42A9.13,9.13,0,0,1,111.14,103.22Z"/><path class="cls-2" d="M111.14,103.22a9,9,0,0,1-1.44-.38,8.47,8.47,0,0,1-1.56-.71c0,.88-.1,1.77-.13,2.66l.55.23a3,3,0,0,0,.36.14,11.76,11.76,0,0,0,1.44.39c.12-.42.25-.83.38-1.23l.49-.13c.81-.18,1.58-.33,2.33-.44l.18-.42A9.13,9.13,0,0,1,111.14,103.22Zm11.73-8.74v0A10.1,10.1,0,0,0,119,88.22a8.31,8.31,0,0,0-.95-.58l-.09,0a9.62,9.62,0,0,0-3.88-1,12,12,0,0,0-2.45.08,16.16,16.16,0,0,0-1.72.28l-.44.1h0c-.23.06-.46.12-.67.19a8.1,8.1,0,0,0-.87.3,8.74,8.74,0,0,0-4.83,4.7,10.06,10.06,0,0,0-.49,6.24,8.81,8.81,0,0,0,5.44,6.27l.55.23a3,3,0,0,0,.36.14,11.76,11.76,0,0,0,1.44.39,11.47,11.47,0,0,0,2.47.27,11,11,0,0,0,1.73-.13,9.07,9.07,0,0,0,1.41-.34,6,6,0,0,0,.68-.24,12,12,0,0,0,2.57-1.46,10.35,10.35,0,0,0,2.72-3,7.76,7.76,0,0,0,.62-1.26,8.13,8.13,0,0,0,.52-2.12l0-.41a8.49,8.49,0,0,0-.16-2C122.93,94.73,122.9,94.61,122.87,94.48Zm-3,5a8.79,8.79,0,0,1-4.12,3.4,4.67,4.67,0,0,1-.66.23,8.24,8.24,0,0,1-1.33.26,9.13,9.13,0,0,1-2.6-.11,9,9,0,0,1-1.44-.38,8.47,8.47,0,0,1-1.56-.71,6.4,6.4,0,0,1-2.84-3.07,9.44,9.44,0,0,1-.36-1.1,7.7,7.7,0,0,1,.37-4.72,6.29,6.29,0,0,1,3.51-3.39,5.84,5.84,0,0,1,.67-.24,1.15,1.15,0,0,0,.17-.06l.34-.08h0a16.8,16.8,0,0,1,1.76-.32,11,11,0,0,1,2.48-.07,7.07,7.07,0,0,1,2.59.69l.07,0a7,7,0,0,1,3.37,4.5c.08.23.14.47.2.72h0c0,.09.05.18.06.26a5.86,5.86,0,0,1,.1,1.54,4.45,4.45,0,0,1-.14,1A5.93,5.93,0,0,1,119.85,99.44Z"/><path class="cls-2" d="M133.31,120.59c-.17-.73-.33-1.46-.51-2.19s-.37-1.49-.57-2.22-.48-1.59-.76-2.34a13.81,13.81,0,0,0-1.61-3.19,18.67,18.67,0,0,0-4.72-4.78,13.07,13.07,0,0,0-2.78-1.44,13.62,13.62,0,0,0-3.14-.78,17.81,17.81,0,0,0-4-.09c-.55,0-1.12.1-1.7.19-.75.11-1.52.26-2.33.44l-.49.13a14.69,14.69,0,0,0-2.18.7c-.2.08-.39.16-.57.25a11.19,11.19,0,0,0-4.36,3.5,19.73,19.73,0,0,0-3,7.11,23.14,23.14,0,0,0-.51,5.41,27.42,27.42,0,0,0,.62,5.63,1.24,1.24,0,0,0,1.22,1,69.23,69.23,0,0,0,9.58-.74c4.22-.58,8.47-1.45,12.21-2.26l4.22-.94c1.82-.41,3.4-.77,4.55-1a1.2,1.2,0,0,0,1-1.43v0C133.42,121.05,133.36,120.81,133.31,120.59Zm-5.84,1-4.61,1c-3.85.84-8.21,1.7-12.47,2.26a68,68,0,0,1-7.42.59,25.7,25.7,0,0,1-.37-4.15,20.2,20.2,0,0,1,.44-4.8,17.16,17.16,0,0,1,2.55-6.23,8.68,8.68,0,0,1,2.34-2.15,11,11,0,0,1,2-1,14.12,14.12,0,0,1,1.83-.55l.9-.18a21.61,21.61,0,0,1,3.55-.44,13.24,13.24,0,0,1,5.28.76,14.06,14.06,0,0,1,6.36,5.36,11.08,11.08,0,0,1,1.19,2.28c.29.73.54,1.51.78,2.33.38,1.32.7,2.72,1,4.12C129.84,121,128.71,121.27,127.47,121.55Z"/><path class="cls-1" d="M17.06,19.39c-1.21-6.52-2.41-13.08-2.22-17.56A1.13,1.13,0,0,1,15.25,1a3.91,3.91,0,0,1,1.5-.59c.16.67.34,1.38.53,2.12,1.93,7.43,5.36,17.69,11.06,26.62.67,1.07,1.38,2.12,2.13,3.14-.74,1-2.51,1.82-4.43,2.23a12,12,0,0,1-5.32.06,4.13,4.13,0,0,1-1.1-.5,1.15,1.15,0,0,1-.48-.78v-.07A134.31,134.31,0,0,0,17.06,19.39Z"/><path class="cls-1" d="M46.2,45.64c-7.63,1.07-15.7,2.2-23.26,3.16l-.17,0a1.15,1.15,0,0,1-1.18-1.1,8.2,8.2,0,0,0-.85-2.53c-.95-2.18-2-4.58-.48-6.78h0a1.1,1.1,0,0,1,.78-.47c3.72-.5,8-1.1,12.59-1.76.61.69,1.25,1.36,1.9,2a37.43,37.43,0,0,0,7.2,5.66A32.35,32.35,0,0,0,46.2,45.64Z"/><path class="cls-2" d="M63.21,24.78c-.62-2.06-1.44-4.77-.84-6.21a1.13,1.13,0,0,0-.61-1.48.68.68,0,0,0-.28-.07,30.83,30.83,0,0,0-4.94.14,33.35,33.35,0,0,0-5.11.74,1.15,1.15,0,0,0-.68.65c-.73,1.86-.08,4.17.56,6.46a14.07,14.07,0,0,1,.77,4.19,1.13,1.13,0,0,0,1,1.21,25.38,25.38,0,0,0,5.58-.4c2.21-.35,4.32-.9,4.86-1.43a1.14,1.14,0,0,0,.35-.83A11.76,11.76,0,0,0,63.21,24.78Zm-4.89,3a32.08,32.08,0,0,1-4,.41,22.65,22.65,0,0,0-.83-3.78,12.71,12.71,0,0,1-.77-4.51c.86-.16,2.43-.34,4-.48,1.17-.1,2.32-.18,3.19-.2a18.21,18.21,0,0,0,1.12,6.21c.2.67.38,1.27.48,1.71A31.82,31.82,0,0,1,58.32,27.78Z"/><path class="cls-2" d="M45.51,17.93A65.86,65.86,0,0,1,44,8.29s0-.08,0-.12a1.1,1.1,0,0,0-.65-.86h0l-.1,0c-1.22-.5-3.62-.44-5.8-.06a14.81,14.81,0,0,0-3.23.94,3.64,3.64,0,0,0-1.87,1.43,1.15,1.15,0,0,0-.11.6A51,51,0,0,0,33.3,16c1,4.77,2.34,11,1.88,14.55a1.11,1.11,0,0,0,.67,1.18h0a15.76,15.76,0,0,0,5.25.48c2.3-.07,4.65-.39,5.39-.84a1.13,1.13,0,0,0,.53-.89C47.4,27.23,46.45,22.57,45.51,17.93Zm-.68,11.71A25.28,25.28,0,0,1,41,30a23.43,23.43,0,0,1-3.52-.11c.21-4-1-9.78-2-14.3-.46-2.2-.86-4.07-1-5.19a10.59,10.59,0,0,1,3.29-1,14.14,14.14,0,0,1,4-.23,79.76,79.76,0,0,0,1.51,9.18C44.14,22.54,45,26.72,44.83,29.64Z"/><path class="cls-2" d="M29.48,22.83C28.18,16,26.48,7.1,26.76,2a1.12,1.12,0,0,0-.59-1A12.71,12.71,0,0,0,20.82,0a17.85,17.85,0,0,0-4.07.36,3.91,3.91,0,0,0-1.5.59,1.13,1.13,0,0,0-.41.88c-.19,4.48,1,11,2.22,17.56a134.31,134.31,0,0,1,2.07,13.79v.07a1.15,1.15,0,0,0,.48.78,4.13,4.13,0,0,0,1.1.5A12,12,0,0,0,26,34.47c1.92-.41,3.69-1.2,4.43-2.23l0-.06a2.07,2.07,0,0,0,.32-.67,1,1,0,0,0,0-.41C30.75,29.47,30.18,26.44,29.48,22.83ZM28.59,31a5.9,5.9,0,0,1-3,1.28,9.82,9.82,0,0,1-4.22.11h0C21,28.49,20.15,23.75,19.28,19,18.16,12.89,17,6.74,17.09,2.52l.19,0a20.56,20.56,0,0,1,3.51-.21,15.48,15.48,0,0,1,3.68.39c-.1,5.44,1.53,14,2.79,20.6.43,2.25.82,4.28,1.08,5.84C28.45,29.83,28.55,30.47,28.59,31Z"/><path class="cls-2" d="M65.54,36.56A11.59,11.59,0,0,1,65,33.67a1.14,1.14,0,0,0-.41-1.55,1.16,1.16,0,0,0-.72-.14c-8.41,1.07-17.77,2.41-26.41,3.65l-3.84.55c-4.59.66-8.87,1.26-12.59,1.76a1.1,1.1,0,0,0-.78.47h0c-1.52,2.2-.47,4.6.48,6.78a8.2,8.2,0,0,1,.85,2.53,1.15,1.15,0,0,0,1.18,1.1l.17,0c7.56-1,15.63-2.09,23.26-3.16l.17,0c6.64-.94,12.94-1.83,18.28-2.51a1.21,1.21,0,0,0,.49-.18C66.79,41.83,66.14,39.08,65.54,36.56ZM64,40.92c-5.26.68-11.43,1.54-17.91,2.45l-3.32.47c-6.33.89-12.86,1.8-19.08,2.59a17.89,17.89,0,0,0-.84-2.15c-.64-1.45-1.33-3-.9-4.18,4-.54,8.67-1.21,13.62-1.92l2.26-.31c8.16-1.18,17-2.44,25-3.47a22.81,22.81,0,0,0,.53,2.67A13.63,13.63,0,0,1,64,40.92Z"/><path class="cls-1" d="M113.92,58.31c0,1,0,2.07,0,3.1a1.11,1.11,0,0,1-1.09,1.11h-.06l-.38,0-.4,0a21.37,21.37,0,0,1-2.18-.24A14.65,14.65,0,0,1,101,57.75a10.45,10.45,0,0,1-2.73-7.44,18.49,18.49,0,0,1-3-.67,13.25,13.25,0,0,1-7-4.8,10.14,10.14,0,0,1-1.55-9c1-3.18,4-5.71,7.73-7.3a22.39,22.39,0,0,1,2.17-.79c.09.71.19,1.45.31,2.2,1.4,9,5.15,20.1,14.8,26.28.7.45,1.44.87,2.2,1.26C113.92,57.74,113.92,58,113.92,58.31Z"/><path class="cls-1" d="M124.84,60.61a19.31,19.31,0,0,1-4.8,1.5,1.1,1.1,0,0,1-1.27-.89.86.86,0,0,1,0-.16l-.06-1.69A32.86,32.86,0,0,0,124.84,60.61Z"/><path class="cls-2" d="M143.93,34.59a19,19,0,0,0-8.41-4.23,8.63,8.63,0,0,0-3.29-4.42A17.73,17.73,0,0,0,125.08,23a19.14,19.14,0,0,0-8.94.71,14.9,14.9,0,0,0-6.44,3.82c-.32-.1-.64-.18-1-.27-.6-.15-1.16-.27-1.68-.37a22.71,22.71,0,0,0-10.46.8,22.39,22.39,0,0,0-2.17.79c-3.73,1.59-6.74,4.12-7.73,7.3a10.14,10.14,0,0,0,1.55,9,13.25,13.25,0,0,0,7,4.8,18.49,18.49,0,0,0,3,.67A10.45,10.45,0,0,0,101,57.75a14.65,14.65,0,0,0,8.87,4.49,21.37,21.37,0,0,0,2.18.24l.4,0,.38,0h.06A1.11,1.11,0,0,0,114,61.41c0-1,0-2.07,0-3.1,0-.29,0-.57,0-.86-.06-5.16-.1-9.7,0-10.3h0a1.1,1.1,0,0,0-1.06-1.35c-.71,0-1.45,0-2.24-.08-1.28-.06-2.66-.14-4.39-.07a38.86,38.86,0,0,1,4.18-4.5,37.61,37.61,0,0,1,6.06-4.8,60.65,60.65,0,0,0,6.56,6.4c1.17,1,2.37,2.11,3.6,3.26a34.05,34.05,0,0,1-4.29-.21c-.95-.09-1.79-.17-2.47-.17a3.85,3.85,0,0,0-.49,0,1.1,1.1,0,0,0-1,.94c-.13,1,0,5,.17,9.67,0,1,.07,2.07.11,3.12l.06,1.69a.86.86,0,0,0,0,.16,1.1,1.1,0,0,0,1.27.89,19.31,19.31,0,0,0,4.8-1.5,12.82,12.82,0,0,0,2.6-1.62,11.14,11.14,0,0,0,3.63-5.28c4.49-.16,8.15-1.15,10.83-3A11.54,11.54,0,0,0,146.84,42,8.65,8.65,0,0,0,143.93,34.59Zm.73,7.15a9.44,9.44,0,0,1-4,7.15c-2.47,1.72-6,2.59-10.41,2.65a1.09,1.09,0,0,0-1.06.85,9,9,0,0,1-3.11,4.89,13.14,13.14,0,0,1-5.16,2.41c0-1.19-.08-2.37-.12-3.51-.12-3.57-.24-6.75-.23-8.35.47,0,1,.09,1.62.14,2.28.21,5.12.48,7.16-.22a1.11,1.11,0,0,0,.68-1.4,1.15,1.15,0,0,0-.26-.41c-1.76-1.76-3.54-3.33-5.23-4.84a52.56,52.56,0,0,1-6.85-6.82,1.11,1.11,0,0,0-1.33-.32,34.15,34.15,0,0,0-7.4,5.58,30.72,30.72,0,0,0-5.76,6.82,1.11,1.11,0,0,0,.49,1.48,1,1,0,0,0,.58.11h0a40.89,40.89,0,0,1,6.31-.06l1.16.05c-.07,1.72,0,4.79,0,8.24,0,.7,0,1.41,0,2.14l0,1.93c-.54,0-1.07-.11-1.56-.19a12.48,12.48,0,0,1-7.57-3.78,8.26,8.26,0,0,1-2.17-6c0-.27,0-.52.08-.77a1.1,1.1,0,0,0-.91-1.26h-.11a17.41,17.41,0,0,1-3.6-.7,11.23,11.23,0,0,1-5.89-4,8.14,8.14,0,0,1-1.55-5.49,8.44,8.44,0,0,1,.32-1.62c.79-2.52,3.32-4.58,6.5-5.93.52-.23,1.07-.42,1.62-.61a20.57,20.57,0,0,1,9.76-.84c.53.1,1,.21,1.52.33s1,.28,1.51.46a1.13,1.13,0,0,0,1.26-.42,12.11,12.11,0,0,1,5.84-3.62,17,17,0,0,1,7.89-.64,15.51,15.51,0,0,1,6.23,2.53,6.11,6.11,0,0,1,2.61,3.76,1.09,1.09,0,0,0,.93.89,17.16,17.16,0,0,1,8,3.81A6.59,6.59,0,0,1,144.66,41.74Z"/><path class="cls-1" d="M177.65,55a.14.14,0,0,0,0,.06.76.76,0,0,1,0,.26,8.47,8.47,0,0,1-2.55,5,14.57,14.57,0,0,1-4.25,3,9.51,9.51,0,0,1-4.67,1,4.66,4.66,0,0,1-2.9-1.23,2.78,2.78,0,0,1-.86-2.16,5.1,5.1,0,0,1,1.2-2.82,10.33,10.33,0,0,1,2.66-2.34,9.36,9.36,0,0,1,5.32-1.53l-1-3.06c-.88-2.68-2-6.23-3.16-9.45q1.34,1.65,2.85,3.36c1.13,1.27,2.34,2.55,3.62,3.82.8.79,1.63,1.58,2.48,2.36l.48,1.47C177.23,53.72,177.48,54.51,177.65,55Z"/><path class="cls-1" d="M192.15,62.37a14.54,14.54,0,0,1-3.21,2.2,6.94,6.94,0,0,1-4.54.77,4.32,4.32,0,0,1-2.08-1.13,3.55,3.55,0,0,1-1.08-2.2,4.88,4.88,0,0,1,.83-3,7.31,7.31,0,0,1,1.67-1.82c.46.33.92.65,1.4,1,1.74,1.19,3.57,2.33,5.48,3.4C191.13,61.83,191.64,62.1,192.15,62.37Z"/><path class="cls-2" d="M195.66,56.53c-.57-1-2.14-6.26-3.94-12.31-2.69-9-5.89-19.79-7.39-21.5a.81.81,0,0,0-1.14-.07c-2.8,2.23-7.18,4.26-11,6-3.3,1.53-6.21,2.88-7.56,4.1a.81.81,0,0,0-.23.8.67.67,0,0,0,.07.18,79.53,79.53,0,0,1,3,7.93c1.11,3.22,2.28,6.77,3.16,9.45l1,3.06a9.36,9.36,0,0,0-5.32,1.53,10.33,10.33,0,0,0-2.66,2.34,5.1,5.1,0,0,0-1.2,2.82,2.78,2.78,0,0,0,.86,2.16,4.66,4.66,0,0,0,2.9,1.23,9.51,9.51,0,0,0,4.67-1,14.57,14.57,0,0,0,4.25-3,8.47,8.47,0,0,0,2.55-5,.76.76,0,0,0,0-.26.14.14,0,0,1,0-.06c-.17-.49-.42-1.28-.75-2.3l-.48-1.47c-1-3.24-2.48-7.62-3.51-10.11a24.33,24.33,0,0,1,5.44-3.31,21.11,21.11,0,0,0,4.58-2.72c.36,1,1.09,3.2,1.94,5.8,1.67,5.11,3.68,11.67,4.47,14.37a9.09,9.09,0,0,0-4.72,1.29,9.25,9.25,0,0,0-.88.62A7.31,7.31,0,0,0,182.07,59a4.88,4.88,0,0,0-.83,3,3.55,3.55,0,0,0,1.08,2.2,4.32,4.32,0,0,0,2.08,1.13,6.94,6.94,0,0,0,4.54-.77,14.54,14.54,0,0,0,3.21-2.2c.29-.26.57-.53.83-.8a10.47,10.47,0,0,0,2.77-4.44A.82.82,0,0,0,195.66,56.53Zm-3.84,3.9a14.08,14.08,0,0,1-1.2,1.11,12.84,12.84,0,0,1-2.39,1.58,5.43,5.43,0,0,1-3.47.64,2.71,2.71,0,0,1-1.31-.72,1.94,1.94,0,0,1-.59-1.19,3.28,3.28,0,0,1,.58-2,6.3,6.3,0,0,1,1.7-1.72l.32-.2a7.47,7.47,0,0,1,4.79-1,.86.86,0,0,0,.39,0,.81.81,0,0,0,.58-1c-.31-1.2-2.8-9.42-4.8-15.56a60.3,60.3,0,0,0-2.49-6.75.79.79,0,0,0-.21-.39,1.31,1.31,0,0,0-.12-.11h0a.8.8,0,0,0-1,.09,17.74,17.74,0,0,1-4.93,3.12c-1,.47-2,1-3,1.58a20.2,20.2,0,0,0-3.22,2.36.8.8,0,0,0-.21.92c.74,1.69,1.8,4.77,2.75,7.66.53,1.58,1,3.1,1.41,4.32l.7,2.17A7,7,0,0,1,174,59.14a12.85,12.85,0,0,1-3.76,2.66,8,8,0,0,1-3.86.86,3,3,0,0,1-1.9-.78,1.18,1.18,0,0,1-.36-.93,3.46,3.46,0,0,1,.85-1.88,8.6,8.6,0,0,1,2.23-2A9.13,9.13,0,0,1,169.66,56a5.69,5.69,0,0,1,3,0,.77.77,0,0,0,.67-.1.81.81,0,0,0,.24-1.12s-.58-1.73-1.38-4.15c-.54-1.63-1.18-3.58-1.85-5.58-1.5-4.52-3.17-9.32-4.14-11.45a47.12,47.12,0,0,1,6.67-3.45,66.69,66.69,0,0,0,10.66-5.71c1.45,2.78,4.26,12.21,6.66,20.25,1.7,5.71,3.2,10.73,3.93,12.34A9.46,9.46,0,0,1,191.82,60.43Z"/><path class="cls-1" d="M182.73,115.69a18.34,18.34,0,0,1-8.49-5.28A14.71,14.71,0,0,1,170,99.07h0a15.71,15.71,0,0,1,5.17-10,13.29,13.29,0,0,1,2.39-1.67c0,.64-.05,1.29-.05,2a61.12,61.12,0,0,0,4.28,24.36C182.1,114.35,182.41,115,182.73,115.69Z"/><path class="cls-2" d="M195.4,114a17.44,17.44,0,0,1-10.5,2.13h0a13.62,13.62,0,0,1-2.17-.42,18.34,18.34,0,0,1-8.49-5.28A14.71,14.71,0,0,1,170,99.07h0a15.71,15.71,0,0,1,5.17-10,13.61,13.61,0,0,1,10.15-3.3.82.82,0,0,1-.14,1.64,11.74,11.74,0,0,0-7.67,1.94,10.62,10.62,0,0,0-1.25,1,14,14,0,0,0-4.62,9,11.21,11.21,0,0,0,.77,5.34,15.39,15.39,0,0,0,3,4.71,17.14,17.14,0,0,0,6.38,4.38,13.65,13.65,0,0,0,3.26.81,17,17,0,0,0,4.68-.17,14.54,14.54,0,0,0,4.8-1.74,11,11,0,0,0,5.06-6.7,15.15,15.15,0,0,0,.2-8.77,11.75,11.75,0,0,0-4.93-6.23.82.82,0,1,1,.91-1.37,13.34,13.34,0,0,1,5.59,7.1,16.86,16.86,0,0,1-.18,9.73A12.64,12.64,0,0,1,195.4,114Z"/><path class="cls-2" d="M191.32,96.21c1.09-3.94,2.52-9,4-11.5a.35.35,0,0,0,.06-.14.82.82,0,0,0-.05-.67,4.88,4.88,0,0,0-2.38-1.64,7.56,7.56,0,0,0-3.28-.68.78.78,0,0,0-.55.44c-1.27,2.24-2.38,5.89-3.48,9.51A79.23,79.23,0,0,1,183,99a.83.83,0,0,0,.05.75,2.62,2.62,0,0,0,.45.57,6.91,6.91,0,0,0,2.76,1.33,4.5,4.5,0,0,0,3,0,1.46,1.46,0,0,0,.42-.32.61.61,0,0,0,.15-.24h0C190.2,100.2,190.71,98.38,191.32,96.21Zm-2.93,4a3.64,3.64,0,0,1-1.69-.14,5.41,5.41,0,0,1-2-.87c.83-2,1.62-4.63,2.41-7.22a61.16,61.16,0,0,1,3.15-8.83,10.21,10.21,0,0,1,2,.61,6.8,6.8,0,0,1,1.27.63c-1.42,2.77-2.77,7.58-3.82,11.34C189.19,97.7,188.72,99.36,188.39,100.24Z"/><path class="cls-1" d="M227.67,84c-4.13-.75-8.32-1.58-12.14-2.58l-.07,0a.64.64,0,0,1-.36-.81,116.49,116.49,0,0,0,2.46-11.75c1.29-7.06,2.7-14.75,3.81-16.46a.63.63,0,0,1,.7-.3c.71.18,1.44.36,2.21.53-.11.38-.21.79-.32,1.22-1.75,7.15-3.29,19.24,2.71,28.71C227,83.07,227.31,83.56,227.67,84Z"/><path class="cls-2" d="M234.69,62.6a.65.65,0,0,0-.31,0,2.92,2.92,0,0,0-1.47.94,2.62,2.62,0,0,0-.56,1.61,3.17,3.17,0,0,0,.25,1.34,3.52,3.52,0,0,0,.69,1.06.63.63,0,0,0,.89,0,.54.54,0,0,0,.18-.33h0c.15-.71.3-1.4.43-2.06s.27-1.27.39-1.85A.63.63,0,0,0,234.69,62.6Zm-.91,3.66a1.43,1.43,0,0,1,.44-2.34C234.13,64.47,233.81,66.21,233.78,66.26Z"/><path class="cls-2" d="M237.54,73.25a3.94,3.94,0,0,0-1.7-1.84.63.63,0,0,0-.86.23.54.54,0,0,0-.09.24c-.17.83-.33,1.65-.49,2.44s-.32,1.59-.46,2.32a.63.63,0,0,0,.5.73.34.34,0,0,0,.14,0l.46,0,.47,0a2.49,2.49,0,0,0,1.46-.77,2.9,2.9,0,0,0,.75-1.49A3.06,3.06,0,0,0,237.54,73.25Zm-1.48,2.42a1.23,1.23,0,0,1-.71.39h0c.09-.48.19-1,.29-1.49l.31-1.5a2.66,2.66,0,0,1,.44.67,1.82,1.82,0,0,1,.11,1.07A1.71,1.71,0,0,1,236.06,75.67Z"/><path class="cls-2" d="M240.63,73.51a4.31,4.31,0,0,0-1.08-3A8.88,8.88,0,0,0,238,69.23c-.38-.27-.77-.52-1.16-.75l.3-1.45a.61.61,0,0,0,.27.16,16.4,16.4,0,0,0,2.53.5c.34,0,.64.09.86.14h0a.63.63,0,0,0,.74-.49,6.68,6.68,0,0,0-.49-4.21,6.82,6.82,0,0,0-2.55-2.87c0-.3.09-.65.12-.91.06-.46.09-1.1-.6-1.07a3.82,3.82,0,0,1-1.26-.2,13.89,13.89,0,0,0-1.42-.26c-.58,0-.6.59-.65,1,0,.14,0,.29-.05.43l-.38,0a6.27,6.27,0,0,0-3.92,1.81,6,6,0,0,0-1.49,4,5.7,5.7,0,0,0,1.1,3.8,7.81,7.81,0,0,0,2.31,2c-.18.84-.35,1.66-.53,2.46-.06.3-.2,1.81-.4,1.22a3.48,3.48,0,0,1-.1-1.71.63.63,0,0,0-.44-.71,7.88,7.88,0,0,0-2.82-.4c-1.08,0-1.17,0-1.15,1.35,0,2.27.08,4.36,3.65,6.08l-.37,1.65c-.1.38-.2.78.29,1a16.07,16.07,0,0,0,2.76.71c.87.1,1,0,1.21-1.39q.06-.47.18-1.14a6.63,6.63,0,0,0,2.72-.79A5.86,5.86,0,0,0,239.62,77,7.24,7.24,0,0,0,240.63,73.51Zm-2.09,2.84a4.87,4.87,0,0,1-1.83,1.78,5.54,5.54,0,0,1-2.65.66.64.64,0,0,0-.63.54c-.12.7-.21,1.27-.27,1.66l0,.28a2.24,2.24,0,0,1-.56,0,6.59,6.59,0,0,1-1.14-.34c.1-.42.24-1.08.43-1.92h0a.63.63,0,0,0-.37-.7h-.05c-3.25-1.44-3.28-3.21-3.31-5.14V73a6.76,6.76,0,0,1,1.85.2,4.56,4.56,0,0,0,.21,1.77,3.23,3.23,0,0,0,1.29,1.69.63.63,0,0,0,.87-.18.87.87,0,0,0,.1-.25c.18-.81.36-1.7.56-2.63l.62-2.9h0a.63.63,0,0,0-.3-.66,7.56,7.56,0,0,1-2.33-1.9,4.52,4.52,0,0,1-.85-3A4.8,4.8,0,0,1,231.31,62a5,5,0,0,1,3.15-1.42l.37,0h.39a.62.62,0,0,0,.64-.57c0-.18.07-.5.11-.78.16,0,.33.08.5.13a8.09,8.09,0,0,0,.91.21c0,.37-.1.79-.14,1a.65.65,0,0,0,.32.68,5.53,5.53,0,0,1,2.4,2.52,5.39,5.39,0,0,1,.49,2.84l-.29,0c-.55-.08-1.2-.17-1.78-.3a4.19,4.19,0,0,0,0-1,3.84,3.84,0,0,0-.66-1.59.64.64,0,0,0-.88-.14.61.61,0,0,0-.25.42c-.14.69-.3,1.43-.46,2.21s-.36,1.73-.54,2.63a.62.62,0,0,0,.3.67c.48.28,1,.57,1.46.92a7.76,7.76,0,0,1,1.3,1.14,3.07,3.07,0,0,1,.75,2.1A6,6,0,0,1,238.54,76.35Z"/><path class="cls-2" d="M247.54,70.6c.67-5.22,1.28-10,2.28-11.83a.63.63,0,0,0-.26-.86.49.49,0,0,0-.17-.06c-4.94-1.27-10.31-2.29-15.38-3.25-3.46-.66-6.78-1.29-9.73-2-.77-.17-1.5-.35-2.21-.53a.63.63,0,0,0-.7.3c-1.11,1.71-2.52,9.4-3.81,16.46a116.49,116.49,0,0,1-2.46,11.75.64.64,0,0,0,.36.81l.07,0c3.82,1,8,1.83,12.14,2.58l5.22.93c4,.69,7.7,1.34,10.79,2h0a.62.62,0,0,0,.71-.37C246,82.78,246.79,76.41,247.54,70.6Zm-4.11,15.06c-3-.66-6.56-1.28-10.32-1.94-2.1-.37-4.27-.75-6.44-1.15-3.47-.64-6.94-1.35-10.18-2.18.62-2.12,1.44-6.56,2.31-11.3,1.19-6.5,2.48-13.57,3.43-15.64l1.73.41c3,.67,6.33,1.31,9.82,2,4.8.91,9.87,1.87,14.61,3.06-.91,2.34-1.48,6.75-2.1,11.54C245.58,75.92,244.81,81.92,243.43,85.66Z"/><path class="cls-2" d="M234.69,62.6a.65.65,0,0,0-.31,0,2.92,2.92,0,0,0-1.47.94,2.62,2.62,0,0,0-.56,1.61,3.17,3.17,0,0,0,.25,1.34,3.52,3.52,0,0,0,.69,1.06.63.63,0,0,0,.89,0,.54.54,0,0,0,.18-.33h0c.15-.71.3-1.4.43-2.06s.27-1.27.39-1.85A.63.63,0,0,0,234.69,62.6Zm-.91,3.66a1.43,1.43,0,0,1,.44-2.34C234.13,64.47,233.81,66.21,233.78,66.26Z"/><path class="cls-2" d="M237.54,73.25a3.94,3.94,0,0,0-1.7-1.84.63.63,0,0,0-.86.23.54.54,0,0,0-.09.24c-.17.83-.33,1.65-.49,2.44s-.32,1.59-.46,2.32a.63.63,0,0,0,.5.73.34.34,0,0,0,.14,0l.46,0,.47,0a2.49,2.49,0,0,0,1.46-.77,2.9,2.9,0,0,0,.75-1.49A3.06,3.06,0,0,0,237.54,73.25Zm-1.48,2.42a1.23,1.23,0,0,1-.71.39h0c.09-.48.19-1,.29-1.49l.31-1.5a2.66,2.66,0,0,1,.44.67,1.82,1.82,0,0,1,.11,1.07A1.71,1.71,0,0,1,236.06,75.67Z"/><path class="cls-2" d="M234.69,62.6a.65.65,0,0,0-.31,0,2.92,2.92,0,0,0-1.47.94,2.62,2.62,0,0,0-.56,1.61,3.17,3.17,0,0,0,.25,1.34,3.52,3.52,0,0,0,.69,1.06.63.63,0,0,0,.89,0,.54.54,0,0,0,.18-.33h0c.15-.71.3-1.4.43-2.06s.27-1.27.39-1.85A.63.63,0,0,0,234.69,62.6Zm-.91,3.66a1.43,1.43,0,0,1,.44-2.34C234.13,64.47,233.81,66.21,233.78,66.26Z"/><path class="cls-2" d="M237.54,73.25a3.94,3.94,0,0,0-1.7-1.84.63.63,0,0,0-.86.23.54.54,0,0,0-.09.24c-.17.83-.33,1.65-.49,2.44s-.32,1.59-.46,2.32a.63.63,0,0,0,.5.73.34.34,0,0,0,.14,0l.46,0,.47,0a2.49,2.49,0,0,0,1.46-.77,2.9,2.9,0,0,0,.75-1.49A3.06,3.06,0,0,0,237.54,73.25Zm-1.48,2.42a1.23,1.23,0,0,1-.71.39h0c.09-.48.19-1,.29-1.49l.31-1.5a2.66,2.66,0,0,1,.44.67,1.82,1.82,0,0,1,.11,1.07A1.71,1.71,0,0,1,236.06,75.67Z"/></g></g></svg>