<svg xmlns="http://www.w3.org/2000/svg" viewBox="0 0 232.08 130.1"><defs><style>.cls-1{fill:#ede3d6;}.cls-2,.cls-3{fill:#d8d8d8;}.cls-3{fill-rule:evenodd;}</style></defs><title>profile-asset_4</title><g id="Layer_2" data-name="Layer 2"><g id="Layer_1-2" data-name="Layer 1"><path class="cls-1" d="M206.87,22.48a1.16,1.16,0,0,1-1.24,1.08,19.63,19.63,0,0,0-3.84.4c-.53-.7-1.07-1.39-1.6-2.07s-1.11-1.41-1.66-2.1-1.17-1.43-1.74-2.12l3.14-.44c.29-.05.39,0,.43,0s-.13,0-.15-.13c-.24-2.47-1-7.79-1.26-9.9-.08-.54-.13-.89-.13-.92-.07-.55-.13-.81-.21-.87a2.89,2.89,0,0,0-.53.1c-.45.11-5.64,1.07-10.41,1.91l-1.93-2-.43-.45-2-2,2.42-.44c7-1.29,14.74-2.7,16.72-2.43h0a1.16,1.16,0,0,1,1,1c.28,2.72.88,5.87,1.49,9.19.73,3.93,1.5,8.07,1.88,12A.6.6,0,0,1,206.87,22.48Z"/><path class="cls-1" d="M232.08,50.29a1.16,1.16,0,0,1-1.24,1.08,37,37,0,0,0-7.54,1.15c.1.29.22.6.34.91a8.59,8.59,0,0,0,1,1.82,1.2,1.2,0,0,1,.18.31,1.18,1.18,0,0,1-.33,1.33,1.08,1.08,0,0,1-.31.19,23.83,23.83,0,0,1-4.09,1.06c-.2-.75-.43-1.5-.67-2.24s-.51-1.57-.79-2.35-.53-1.47-.82-2.2c-.36-.92-.75-1.85-1.15-2.77-.33-.74-.66-1.48-1-2.22l3.39-.47c.26,0,.52-.08.78-.1l5.32-.75c.3-.06.39,0,.43,0s-.13,0-.15-.13c-.25-2.48-1-7.8-1.27-9.91-.08-.53-.12-.88-.13-.91-.06-.55-.13-.81-.2-.86a1.41,1.41,0,0,0-.55.09c-.45.12-6.1,1.16-11.05,2l-.67.13-1.68.29c-.44-.72-.88-1.43-1.34-2.14-.1-.15-.2-.3-.29-.45-.46-.71-.93-1.41-1.4-2.11l.81-.14,3.3-.61c7.05-1.29,14.75-2.7,16.73-2.43h0a1.17,1.17,0,0,1,1,1c.29,2.72.87,5.87,1.49,9.2.73,3.91,1.5,8.06,1.88,12A.89.89,0,0,1,232.08,50.29Z"/><path class="cls-2" d="M193.36,56.54c-.09-1-.22-2-.36-3-.1-.77-.21-1.54-.33-2.32-.37-2.25-.79-4.51-1.19-6.7-.62-3.32-1.2-6.47-1.49-9.19a1.19,1.19,0,0,0-1-1h0c-2-.26-9.68,1.14-16.72,2.44-5.19.94-10,1.83-11.73,1.91a1.16,1.16,0,0,0-1.12,1.21.45.45,0,0,0,0,.12,133.52,133.52,0,0,0,2.28,13.45c.61,3,1.19,5.87,1.52,8.24a1.17,1.17,0,0,0,1.16,1h0a50.67,50.67,0,0,0,8.19-1.09h0c.76-.14,1.51-.3,2.3-.47h0c1.85-.38,3.73-.8,5.55-1.22l1.85-.41c.79-.17,1.55-.35,2.29-.5a35.39,35.39,0,0,1,7.54-1.14,1.17,1.17,0,0,0,1.24-1.1A.81.81,0,0,0,193.36,56.54Zm-13.42,1.09c-5.11,1.15-10.67,2.41-14.57,2.68C165,58.09,164.52,55.6,164,53c-.81-3.93-1.67-8.15-2.12-12.09,2.32-.29,6.44-1,10.8-1.83,6-1.11,12.53-2.29,15.13-2.43.31,2.52.84,5.37,1.39,8.35.64,3.44,1.31,7.07,1.72,10.57A94.42,94.42,0,0,0,179.94,57.63Z"/><path class="cls-2" d="M189,51.11c-.25-2.4-1-7.81-1.29-10-.06-.48-.1-.79-.12-.87a3.24,3.24,0,0,0-1.19-2.51,2.8,2.8,0,0,0-2.42-.26c-.48.12-6.05,1.14-10.91,2-3.39.6-6.44,1.11-7.18,1.2l-.34,0a3.9,3.9,0,0,0-.64.07c-1.24.18-2.24.69-1.94,2.71.12.79.73,4,1.29,6.83.2,1.07.39,2.08.55,2.86l.28,1.52a3.61,3.61,0,0,0,.1.48,2.08,2.08,0,0,0,1.08,1.29,2.48,2.48,0,0,0,1.46.18,3.42,3.42,0,0,0,.65-.15c.64-.21,7.81-1.2,13-1.92,2.65-.37,4.8-.66,5.37-.77a2.76,2.76,0,0,0,1.68-.66A2.26,2.26,0,0,0,189,51.11Zm-2.18.36s-.13,0-.43,0c-.52.1-2.67.39-5.32.76-5.3.73-12.61,1.73-13.41,2l-.26.08c-.07-.42-.44-2.32-.86-4.46-.53-2.79-1.15-6-1.26-6.72,0-.06,0-.07,0-.08l.45,0,.44,0c.75-.09,3.87-.62,7.33-1.23,5-.87,10.6-1.91,11.05-2a2.14,2.14,0,0,1,.55-.11,1.9,1.9,0,0,1,.2.87s.05.38.13.92c.29,2.11,1,7.42,1.27,9.89C186.73,51.52,187,51.39,186.86,51.47Z"/><path class="cls-2" d="M172.32,60.89a1.17,1.17,0,0,1,2.12-1,7.29,7.29,0,0,1,.7,2.72,4.51,4.51,0,0,1,0,.52c1.3-.11,3-.33,4.6-.6,1.28-.21,2.52-.46,3.5-.72-.16-.32-.32-.66-.47-1a9.43,9.43,0,0,1-.71-2.5A1.17,1.17,0,0,1,183.11,57a1.18,1.18,0,0,1,1.28,1.05,6.59,6.59,0,0,0,.54,1.82,8.52,8.52,0,0,0,1,1.83h0a1.14,1.14,0,0,1-.45,1.82,29.13,29.13,0,0,1-5.34,1.28,48.78,48.78,0,0,1-6.51.72,1.15,1.15,0,0,1-1-.53,1.17,1.17,0,0,1,.36-1.62c.05,0-.12-.19-.15-.66a4.92,4.92,0,0,0-.48-1.86Z"/><path class="cls-2" d="M232.07,50.06c-.38-3.92-1.15-8.07-1.88-12-.62-3.33-1.2-6.48-1.49-9.2a1.17,1.17,0,0,0-1-1h0c-2-.27-9.68,1.14-16.73,2.43l-3.3.61-.81.14c-3.47.62-6.37,1.1-7.61,1.16a1.17,1.17,0,0,0-1.12,1.22.45.45,0,0,0,0,.11A130.11,130.11,0,0,0,200.4,47c.19.95.38,1.88.56,2.77h0c.16.79.3,1.56.44,2.29.2,1.12.39,2.2.52,3.18a1.18,1.18,0,0,0,1.16,1h0a50.78,50.78,0,0,0,8.2-1.09l2.3-.46,5-1.11.54-.12L221,53l1.68-.38.6-.12a37,37,0,0,1,7.54-1.15,1.16,1.16,0,0,0,1.24-1.08A.89.89,0,0,0,232.07,50.06Zm-10.43.43c-1,.2-2,.43-3,.67l-.84.19a103,103,0,0,1-13.73,2.47c-.34-2.2-.85-4.7-1.39-7.33-.81-3.92-1.68-8.15-2.13-12.09,1.76-.22,4.54-.7,7.68-1.27l1.21-.21,1.92-.36c6-1.09,12.53-2.29,15.13-2.41.31,2.51.85,5.36,1.39,8.35.64,3.44,1.32,7.06,1.72,10.56A63.58,63.58,0,0,0,221.64,50.49Z"/><path class="cls-2" d="M227.75,44.63c-.25-2.39-1-7.84-1.28-10-.07-.47-.11-.78-.13-.86a3.31,3.31,0,0,0-1.19-2.52,2.88,2.88,0,0,0-2.43-.25c-.46.12-6,1.14-10.9,2l-2,.36-1.29.22c-1.92.33-3.4.57-3.89.62l-.34,0a5.27,5.27,0,0,0-.64,0c-1.24.18-2.23.71-1.94,2.73.12.78.73,4,1.28,6.82.42,2.14.78,4,.84,4.39a4.24,4.24,0,0,0,.1.47A2.09,2.09,0,0,0,205,50a2.44,2.44,0,0,0,1.45.18,3.43,3.43,0,0,0,.65-.16c.5-.16,5.07-.81,9.53-1.43l3.49-.48.18,0c2.57-.35,4.64-.64,5.19-.74a2.74,2.74,0,0,0,1.69-.67A2.25,2.25,0,0,0,227.75,44.63Zm-2.18.37s-.13,0-.43,0l-5.32.75c-.26,0-.52.07-.78.1l-3.39.47c-4.35.61-8.64,1.23-9.23,1.43a.88.88,0,0,1-.28.06c-.06-.43-.44-2.32-.85-4.45-.53-2.8-1.15-6-1.25-6.72,0-.06,0-.07,0-.07l.45,0a3.19,3.19,0,0,0,.45,0c.57-.06,2.53-.38,5-.81l1.68-.29.67-.13c4.95-.86,10.6-1.9,11.05-2a1.41,1.41,0,0,1,.55-.09c.07.05.14.31.2.86,0,0,0,.38.13.91.29,2.11,1,7.43,1.27,9.91C225.44,45.05,225.66,44.91,225.57,45Z"/><path class="cls-2" d="M224.49,56.89a1.08,1.08,0,0,1-.31.19,23.83,23.83,0,0,1-4.09,1.06l-1.25.22a48.78,48.78,0,0,1-6.51.72,1.17,1.17,0,0,1-.68-2.15c.06,0-.11-.19-.14-.66a4.28,4.28,0,0,0-.2-1.15,7.31,7.31,0,0,0-.27-.72,1.15,1.15,0,0,1,.56-1.54,1.17,1.17,0,0,1,1.55.56,7.27,7.27,0,0,1,.7,2.72,4.51,4.51,0,0,1,0,.52c1.29-.11,3-.33,4.6-.6l1-.16c.93-.18,1.8-.37,2.53-.56-.16-.32-.32-.66-.47-1A10.17,10.17,0,0,1,221,53a5.55,5.55,0,0,1-.25-1.18,1.15,1.15,0,0,1,.91-1.25l.13,0a1.18,1.18,0,0,1,1.29,1.06,5.32,5.32,0,0,0,.2.9c.1.29.22.6.34.91a8.59,8.59,0,0,0,1,1.82,1.2,1.2,0,0,1,.18.31A1.18,1.18,0,0,1,224.49,56.89Z"/><path class="cls-2" d="M206.86,22.25c-.38-3.92-1.15-8.06-1.88-12-.61-3.32-1.21-6.47-1.49-9.19a1.16,1.16,0,0,0-1-1h0c-2-.27-9.67,1.14-16.72,2.43l-2.42.44c-2.21.4-4.26.76-5.92,1a33.94,33.94,0,0,1-3.37.44,1.17,1.17,0,0,0-1.13,1.22s0,.07,0,.11a133.52,133.52,0,0,0,2.28,13.45c.62,3,1.2,5.86,1.53,8.25a1.17,1.17,0,0,0,1.18,1h0a51.66,51.66,0,0,0,8.19-1.1h0c.75-.14,1.51-.3,2.28-.46h0c1.85-.4,3.73-.81,5.55-1.23l1.85-.41,2.29-.5h0c1.11-.24,2.13-.45,3.07-.63l.63-.12a19.63,19.63,0,0,1,3.84-.4,1.16,1.16,0,0,0,1.24-1.08A.6.6,0,0,0,206.86,22.25Zm-6.67-.36-1.06.2c-1.76.36-3.68.8-5.69,1.25-5.11,1.16-10.67,2.41-14.57,2.67-.34-2.2-.86-4.7-1.39-7.32-.8-3.93-1.67-8.16-2.11-12.1,1.15-.14,2.75-.41,4.61-.71l5.33-1,.84-.16c6-1.09,12.54-2.29,15.14-2.41.31,2.51.84,5.36,1.4,8.35.63,3.44,1.31,7.06,1.71,10.56A36.34,36.34,0,0,0,200.19,21.89Z"/><path class="cls-2" d="M202.54,16.82c-.23-2.39-1-7.82-1.28-10-.07-.47-.12-.78-.12-.86a3.29,3.29,0,0,0-1.2-2.52,2.88,2.88,0,0,0-2.43-.25c-.47.12-6,1.14-10.91,2l-.86.16c-2.16.37-4.1.71-5.27.89-.48.08-.84.12-1,.15l-.35,0a5.12,5.12,0,0,0-.64.05c-1.24.18-2.23.71-1.93,2.73.11.78.74,4,1.28,6.82.41,2.14.78,4,.82,4.39,0,.18.07.34.11.48a2.15,2.15,0,0,0,1.08,1.28,2.41,2.41,0,0,0,1.46.17,2.45,2.45,0,0,0,.65-.15c.64-.2,7.82-1.19,13-1.91.7-.11,1.37-.19,2-.27l1.61-.23c.88-.13,1.51-.21,1.78-.26a2.78,2.78,0,0,0,1.69-.68A2.26,2.26,0,0,0,202.54,16.82Zm-2.18.37s-.14,0-.43,0l-3.14.44-2.12.3h-.06c-5.29.73-12.6,1.74-13.41,2a.78.78,0,0,1-.27.06c-.06-.43-.43-2.32-.84-4.45-.54-2.8-1.16-6-1.27-6.72,0-.06,0-.07,0-.07l.45-.05c.15,0,.29,0,.43,0,.44-.05,1.68-.24,3.32-.52,1.18-.2,2.56-.44,4-.71l.66-.11c4.77-.84,10-1.8,10.41-1.91a2.89,2.89,0,0,1,.53-.1c.08.06.14.32.21.87,0,0,.05.38.13.92.29,2.11,1,7.43,1.26,9.9C200.23,17.24,200.45,17.1,200.36,17.19Z"/><path class="cls-2" d="M185.83,26.6a1.17,1.17,0,1,1,2.11-1,7.29,7.29,0,0,1,.7,2.72,4.51,4.51,0,0,1,0,.52c1.3-.11,3-.33,4.6-.6,1.29-.21,2.53-.46,3.5-.72-.16-.32-.32-.66-.47-1a9.32,9.32,0,0,1-.71-2.5,1.17,1.17,0,1,1,2.33-.23,7.36,7.36,0,0,0,.54,1.82,8.52,8.52,0,0,0,1,1.83h0a1.49,1.49,0,0,1,.18.3,1.17,1.17,0,0,1-.64,1.52,28.92,28.92,0,0,1-5.34,1.28,48.78,48.78,0,0,1-6.51.72,1.14,1.14,0,0,1-1-.54,1.18,1.18,0,0,1,.36-1.61c.05,0-.12-.19-.14-.66a5.11,5.11,0,0,0-.48-1.86Z"/><path class="cls-2" d="M193,53.57a1.18,1.18,0,0,1-1.35-1,1.16,1.16,0,0,1,1-1.35c.63-.11,1.62-.26,2.55-.4a50.69,50.69,0,0,0,6.09-1.21,1.17,1.17,0,1,1,.6,2.26,52.2,52.2,0,0,1-6.33,1.25l-2.52.41Z"/><path class="cls-2" d="M191.4,30a1.17,1.17,0,0,1,2.31-.38c.29,1.73,1.47,7.79,2.55,13.06.8,3.84,1.54,7.3,1.87,8.43a1.17,1.17,0,1,1-2.25.65c-.33-1.15-1.1-4.68-1.9-8.61-1.12-5.41-2.31-11.49-2.58-13.15Z"/><path class="cls-1" d="M211,100.8a23.26,23.26,0,0,1-4.34,9.72,73.48,73.48,0,0,0-4.32,6.24c-.15-1-.33-2-.52-2.94-.4-2.09-.89-4.16-1.42-6.18-.19-.73-.39-1.44-.59-2.15a16.44,16.44,0,0,0,3.11-3.37,7.76,7.76,0,0,0,1.23-3.23,8.77,8.77,0,0,0-.54-4.47,7.56,7.56,0,0,0-2.74-3.51,7.34,7.34,0,0,0-3.18-1.21,8.62,8.62,0,0,0-3.53.19c-.27-.65-.54-1.28-.82-1.9s-.57-1.23-.84-1.83-.61-1.29-.9-1.89a18.81,18.81,0,0,1,7.82-.25A16.73,16.73,0,0,1,207,87.3a11.52,11.52,0,0,1,4,6.34A16.94,16.94,0,0,1,211,100.8Z"/><path class="cls-2" d="M211,93.64a11.52,11.52,0,0,0-4-6.34A16.73,16.73,0,0,0,199.45,84a18.81,18.81,0,0,0-7.82.25c-.49.13-1,.27-1.48.44a14.12,14.12,0,0,0-5.56,3.41,12.48,12.48,0,0,0-3.3,6.43c-.59,3.1-.3,7,1.34,11.72.37,1.07,1.71,5.28,3,10.07.75,2.8,1.47,5.81,1.95,8.49a7.68,7.68,0,0,0,1.92,4.09,3.94,3.94,0,0,0,2.3,1.16,3.89,3.89,0,0,0,2.53-.6,8.27,8.27,0,0,0,3-3.79A76.09,76.09,0,0,1,201.6,118c.26-.41.52-.82.77-1.24a73.48,73.48,0,0,1,4.32-6.24A23.26,23.26,0,0,0,211,100.8,16.94,16.94,0,0,0,211,93.64Zm-2,6.78a21.19,21.19,0,0,1-3.91,8.81c-.85,1-2,2.69-3.26,4.59-.66,1-1.34,2-2,3.11a76.13,76.13,0,0,0-4.39,7.92,6.29,6.29,0,0,1-2.21,2.88A1.89,1.89,0,0,1,192,128a1.79,1.79,0,0,1-1.09-.57,5.67,5.67,0,0,1-1.35-3c-.5-2.72-1.23-5.78-2-8.64-1.29-4.85-2.65-9.12-3-10.22-1.51-4.39-1.79-7.9-1.25-10.67a10.31,10.31,0,0,1,2.74-5.38,12.13,12.13,0,0,1,4.77-2.91,14.46,14.46,0,0,1,1.71-.48,16.49,16.49,0,0,1,6.54-.13,14.67,14.67,0,0,1,6.68,2.85A9.52,9.52,0,0,1,209,94.12,14.87,14.87,0,0,1,209,100.42Z"/><path class="cls-2" d="M205.55,93.66A9.72,9.72,0,0,0,202,89.21a9.5,9.5,0,0,0-4-1.54,10.87,10.87,0,0,0-4.65.32,11.47,11.47,0,0,0-1.77.71,9.9,9.9,0,0,0-3.47,2.94,9.38,9.38,0,0,0-1.72,4.17,9.67,9.67,0,0,0,1.05,5.88c.54,1.06,1,2.08,1.39,3a18.19,18.19,0,0,0,2.63,4.84c2.33,2.68,3.42,1.93,5.18.74l.15-.11.14-.09c1.26-.86,2.41-1.64,3.48-2.48a18.64,18.64,0,0,0,4.2-4.37,9.5,9.5,0,0,0,1.57-4.08A11,11,0,0,0,205.55,93.66Zm-1.37,5.23a7.76,7.76,0,0,1-1.23,3.23,16.44,16.44,0,0,1-3.11,3.37,48.73,48.73,0,0,1-4,2.93l-.13.09-.17.11c-.82.57-1.34.92-2.47-.38a17,17,0,0,1-2.31-4.3c-.43-1-.9-2.1-1.45-3.18a7.68,7.68,0,0,1-.84-4.65,7.25,7.25,0,0,1,1.35-3.26,8,8,0,0,1,2.76-2.34,8.37,8.37,0,0,1,1.65-.62,8.62,8.62,0,0,1,3.53-.19,7.34,7.34,0,0,1,3.18,1.21,7.56,7.56,0,0,1,2.74,3.51A8.77,8.77,0,0,1,204.18,98.89Z"/><path class="cls-1" d="M154,86.83c-3.1-4.63-6-9-8.36-12.85a.76.76,0,0,0-.38-.33.85.85,0,0,0-.35-.05c-1,.07-2.93,1.09-5.32,2.58a4.17,4.17,0,0,0-3.86-1.83,3.32,3.32,0,0,0-1.44.58,3.46,3.46,0,0,0-1,1.18,3.76,3.76,0,0,0-.31,2.43c.54.29,1.09.59,1.65.91l.75.41.79.45,1.86,1.06c.51.3,1.05.6,1.58.92,5.24,3.06,11,6.63,16.42,10.45q1.81,1.24,3.56,2.54C157.77,92.42,155.87,89.58,154,86.83ZM135,79.24a2.47,2.47,0,0,1-.25-2.41,1.88,1.88,0,0,1,.53-.62,1.61,1.61,0,0,1,.74-.3A2.56,2.56,0,0,1,138.28,77C137.22,77.72,136.11,78.46,135,79.24Z"/><path class="cls-2" d="M164.84,103.67a1.33,1.33,0,0,0-.1-.24c-1.48-2.49-3.08-5-4.71-7.53l0-.05c-.12-.19-.24-.38-.37-.57-1.85-2.86-3.75-5.7-5.59-8.45-3.1-4.63-6-9-8.36-12.85a.76.76,0,0,0-.38-.33.85.85,0,0,0-.35-.05c-1,.07-2.93,1.09-5.32,2.58-.43.26-.88.56-1.34.86-1.06.68-2.17,1.42-3.31,2.2l-.31.21-1,.67-2.09,1.45-.52.37-.77.53c-1.15.8-2.26,1.57-3.3,2.27-.46.31-.89.61-1.31.88a30,30,0,0,1-4.11,2.44.79.79,0,0,0-.46,1l.08.15c3.62,6.06,8.06,12.55,12.17,18.54,2.86,4.18,5.54,8.1,7.67,11.47a.74.74,0,0,0,.37.31.77.77,0,0,0,.56,0c3.8-1.33,8.59-5.16,13-8.65,3.86-3.1,7.38-5.92,9.32-6.31A.79.79,0,0,0,164.84,103.67Zm-6.57,2.59h0c-.88.66-1.81,1.38-2.76,2.14l-1.59,1.26c-4,3.24-8.43,6.76-11.91,8.18-2.07-3.26-4.64-7-7.35-11C130.73,101.15,126.48,95,123,89.13c.93-.5,2.21-1.31,3.7-2.28L128,86l4-2.72c.88-.62,1.79-1.24,2.69-1.86l1.31-.9.25-.17c3.62-2.47,6.9-4.57,8.41-5,2.28,3.74,5.11,8,8.1,12.45,1.1,1.65,2.23,3.32,3.35,5,.65,1,1.29,1.94,1.93,2.92L160.13,99c.94,1.48,1.86,3,2.74,4.41A24.52,24.52,0,0,0,158.27,106.26Z"/><path class="cls-2" d="M160.13,99a16,16,0,0,0,0-2.68.76.76,0,0,0-.13-.4l0-.05a.77.77,0,0,0-.59-.31,5.76,5.76,0,0,0-1.41.12,9.35,9.35,0,0,0-3.15,1.27,12.79,12.79,0,0,0-3.84,3.74.78.78,0,0,0,.11,1A20.47,20.47,0,0,1,154,106c.49.86,1,1.69,1.48,2.45l.15.24a.85.85,0,0,0,.51.34h0c.38.08.8-.17,1.14-.73a12,12,0,0,0,.6-1.14c.12-.26.24-.53.36-.84h0A24.68,24.68,0,0,0,160.13,99Zm-4.75,6.19a27.24,27.24,0,0,0-2.71-4.12,11.09,11.09,0,0,1,3-2.78,7.32,7.32,0,0,1,3-1.12,22.39,22.39,0,0,1-2.14,9.29l-.16.31C156,106.25,155.69,105.71,155.38,105.17Z"/><path class="cls-2" d="M130.48,86.46a.79.79,0,0,1,1.09.27.79.79,0,0,1-.27,1.08,3.11,3.11,0,0,1-2.73.33,6,6,0,0,1-2.79-2.37,4.09,4.09,0,0,1-.57-4.35,3.36,3.36,0,0,1,1-1.18,3.2,3.2,0,0,1,1.44-.58,4.27,4.27,0,0,1,4,2.08.79.79,0,0,1-.17,1.1.8.8,0,0,1-1.11-.18,2.79,2.79,0,0,0-2.54-1.44,1.57,1.57,0,0,0-.74.3,1.77,1.77,0,0,0-.53.62,2.6,2.6,0,0,0,.45,2.71,4.61,4.61,0,0,0,2,1.8,1.64,1.64,0,0,0,1.41-.19Z"/><path class="cls-2" d="M139.64,82.29a.78.78,0,0,1-.23.21,3.12,3.12,0,0,1-2.73.34,4.91,4.91,0,0,1-2-1.46,9.11,9.11,0,0,1-.75-.91c-.08-.11-.15-.23-.23-.35a5,5,0,0,1-.65-1.58,3.76,3.76,0,0,1,.31-2.43,3.46,3.46,0,0,1,1-1.18,3.32,3.32,0,0,1,1.44-.58,4.17,4.17,0,0,1,3.86,1.83,2.35,2.35,0,0,1,.19.25.79.79,0,1,1-1.28.92c-.08-.11-.17-.21-.25-.31A2.56,2.56,0,0,0,136,75.91a1.61,1.61,0,0,0-.74.3,1.88,1.88,0,0,0-.53.62,2.47,2.47,0,0,0,.25,2.41c.06.1.12.2.2.31l.24.31a4.9,4.9,0,0,0,.54.62,3.13,3.13,0,0,0,1.24.86,1.44,1.44,0,0,0,.87,0,1.79,1.79,0,0,0,.54-.23.81.81,0,0,1,1.08.28A.77.77,0,0,1,139.64,82.29Z"/><path class="cls-3" d="M136.49,91.71a8.23,8.23,0,0,0-1.7,1.06c.45,1.63-.56,3.7-1.21,4.58a3.7,3.7,0,0,0,1,1.38c1-1.2,1.54-3.43,1.93-4,1.69,2.25,3.59,6.4,5.18,8.18.86-.56.67-.2,1.48-.9C142.71,102.26,137.78,93.16,136.49,91.71Zm13.84,1.64c-1.29-1.91-2.7-1.91-3.52-1.59.61-.62.62-2.09-.18-3.33-1.35-2.06-3.82-.93-4.71-.25s-2.93,2.24-1.18,4.7a2.62,2.62,0,0,0,2.86,1,3.18,3.18,0,0,0-.13,3.73c1.26,1.81,3.06,2.51,5.52.85C150.06,97.69,151.85,95.58,150.33,93.35Zm-5.05-1.21a2.05,2.05,0,0,1-2.75.13,1.79,1.79,0,0,1,0-2.74,1.85,1.85,0,0,1,2.93.28A1.79,1.79,0,0,1,145.28,92.14Zm3.22,5c-1.12.91-2.29.76-3.34-.63a2.23,2.23,0,0,1,0-2.81,2.18,2.18,0,0,1,3.1.11C149.14,94.77,149.54,96.36,148.5,97.19Z"/><path class="cls-1" d="M124.4,30.81l-.21-.06c-.09-.56-.18-1.11-.29-1.64l.24.07h0c.22-1,.59-2.79.75-3.56l.08-.37v0l-.77-.12-.38-.07c-.09.44-.24,1.24-.4,2-.27-1.08-.56-2.12-.87-3.09a.77.77,0,0,1,1-.56,1,1,0,0,1,.26.1l.68.13,1.15.18c.51,0,.85.16.92.83a3.07,3.07,0,0,1-.11.93l-.08.37c-.18.86-.62,2.94-.82,3.87a1.73,1.73,0,0,1-.24.66A.74.74,0,0,1,124.4,30.81Z"/><path class="cls-1" d="M135.48,29.18c0,.14-.19.83-.42,1.9-1,4.61-3.57,16.21-4.83,21.38A4.39,4.39,0,0,1,129,55a2.35,2.35,0,0,1-2.1.22c-.65-.13-2.89-.69-5.75-1.41.22-.46.43-.92.62-1.38l1.61.4c.51-2.09,1.18-4.81,1.73-7s1-4.07,1-4.26a4.37,4.37,0,0,0,.18-2.12c-.05-.13-.21-.18-.47-.2L124.75,39c0-.51,0-1,0-1.51,0-1.32-.08-2.62-.2-3.87,0-.53-.11-1.06-.18-1.58.63.16,1.09.27,1.26.3s.17.13.23.09a4,4,0,0,0,.15-.55c.26-1,.62-2.59,1-4.19.3-1.32.6-2.68.86-3.82l-5.65-1c-.2-.57-.39-1.11-.59-1.63,2.61.48,5.21.95,7.28,1.31h0c2.39.42,4.09.7,4.38.72a2.36,2.36,0,0,1,2.37,1.55C136,25.71,136,27.06,135.48,29.18Z"/><path class="cls-2" d="M135.69,24.84a2.36,2.36,0,0,0-2.37-1.55c-.29,0-2-.3-4.38-.72h0c-2.07-.36-4.67-.83-7.28-1.31L119,20.77c-1.85-.34-3.63-.68-5.13-1l-.4-.08c-1.91-.38-3.34-.69-3.84-.84-.12,0-.28-.1-.44-.16a5,5,0,0,0-.85-.27c-1.18-.26-2.26.07-2.87,2.9-.35,1.63-1.66,8.66-2.8,14.8-.88,4.69-1.65,8.86-1.82,9.66a5.82,5.82,0,0,0-.15,1.46,2.43,2.43,0,0,0,.5,1.49,2,2,0,0,0,1.21.74,3,3,0,0,0,.79,0,19.29,19.29,0,0,1,2.49.46l.43.1c3.48.78,9.31,2.26,14,3.42l1.16.29c2.86.72,5.1,1.28,5.75,1.41A2.35,2.35,0,0,0,129,55a4.39,4.39,0,0,0,1.19-2.54c1.26-5.17,3.82-16.77,4.83-21.38.23-1.07.38-1.76.42-1.9C136,27.06,136,25.71,135.69,24.84Zm-1.67,4c0,.12-.18.82-.42,1.92-1,4.58-3.55,16.14-4.82,21.34-.26,1-.44,1.55-.66,1.71s-.41,0-.89-.06-1.18-.27-2.36-.57l-1.45-.36-1.61-.4-1.42-.36c-4.39-1.11-9.88-2.49-13.5-3.31l-1.46-.32a15,15,0,0,0-2.33-.39,1.38,1.38,0,0,1-.42,0,.62.62,0,0,1-.35-.18,1.12,1.12,0,0,1-.17-.64,3.84,3.84,0,0,1,.11-1.1c.17-.81,1-5,1.82-9.68,1.15-6.13,2.46-13.16,2.8-14.77s.72-1.83,1.1-1.75a3.49,3.49,0,0,1,.62.21c.17.06.33.13.54.19.49.15,1.76.43,3.47.77l1.46.29c1.39.27,3,.57,4.6.87l3.55.66,5.65,1,1.47.26c2.1.35,3.58.6,3.86.62.55,0,.94.18,1.08.58A7,7,0,0,1,134,28.85Z"/><path class="cls-2" d="M127.64,41.86c0,.24-.49,2-1,4.27l-1.73,7.06-.07.29a.75.75,0,1,1-1.45-.35c0-.1.05-.2.07-.3.51-2.09,1.18-4.81,1.73-7s1-4.07,1-4.26a4.37,4.37,0,0,0,.18-2.12c-.05-.13-.21-.18-.47-.2L124.75,39c-1.77-.3-5.22-.91-8.32-1.49-2.94-.54-5.58-1.06-6.21-1.26l-.38-.13a1.88,1.88,0,0,0-.36-.12c-.1,0-.23.11-.4.93-.22,1-.85,4.51-1.41,7.55-.31,1.73-.6,3.31-.78,4.25-.06.35-.11.6-.14.75a.75.75,0,0,1-.67.59.74.74,0,0,1-.21,0,.73.73,0,0,1-.22-.09.74.74,0,0,1-.36-.8c0-.14.08-.4.14-.76.18-.93.46-2.49.77-4.2.56-3.05,1.19-6.53,1.42-7.59.44-2,1.27-2.28,2.17-2.09a6.1,6.1,0,0,1,.6.19l.26.1c.59.18,3.17.69,6.06,1.23s6.3,1.14,8.06,1.44l1.24.19a1.8,1.8,0,0,1,1.77,1.17A5.55,5.55,0,0,1,127.64,41.86Z"/><path class="cls-2" d="M126.55,24.63c-.07-.67-.41-.86-.92-.83l-1.15-.18-.68-.13a1,1,0,0,0-.26-.1.77.77,0,0,0-1,.56,3.14,3.14,0,0,0-.14.48c-.06.29-.3,1.56-.52,2.67-.17.85-.31,1.61-.34,1.75a1.6,1.6,0,0,0,0,.75,1,1,0,0,0,.19.36h0a.86.86,0,0,0,.45.26.9.9,0,0,0,.4,0,8.59,8.59,0,0,1,1.12.4l.48.14.21.06a.74.74,0,0,0,.9-.35,1.73,1.73,0,0,0,.24-.66c.2-.93.64-3,.82-3.87l.08-.37A3.07,3.07,0,0,0,126.55,24.63Zm-3.47,4.24c.07-.32.18-.88.29-1.48,0-.12,0-.23.07-.35.16-.78.31-1.58.4-2l.38.07.77.12v0l-.08.37c-.16.77-.53,2.53-.75,3.56h0l-.24-.07C123.63,29,123.35,28.94,123.08,28.87Z"/><path class="cls-2" d="M128.94,22.57h0a.74.74,0,0,0-.87.57c-.05.24-.11.49-.17.76-.26,1.14-.56,2.5-.86,3.82-.37,1.6-.73,3.15-1,4.19a4,4,0,0,1-.15.55c-.06,0-.06-.05-.23-.09s-.63-.14-1.26-.3L122,31.5c-3.62-.89-8.61-2.12-9.24-2.11h-.16s0,0,0-.11a1.78,1.78,0,0,1,0-.36c.08-.39.45-2.35.86-4.56.18-1,.37-2,.55-3,0-.26.09-.52.14-.77a.76.76,0,0,0-.39-.8.72.72,0,0,0-.4-.08.74.74,0,0,0-.68.6c0,.25-.09.51-.13.76-.19,1-.38,2-.56,3-.41,2.21-.77,4.17-.85,4.54a2.88,2.88,0,0,0-.07.69,1.64,1.64,0,0,0,.34,1,1.47,1.47,0,0,0,.86.51,1.91,1.91,0,0,0,.48,0c.44,0,5.33,1.2,8.87,2.07l2.88.7.79.18a1.59,1.59,0,0,0,1.36-.13,2.28,2.28,0,0,0,.76-1.44c.25-1,.62-2.57,1-4.21l.87-3.89c.05-.25.11-.48.16-.7A.75.75,0,0,0,128.94,22.57Z"/><path class="cls-1" d="M93.89,76.74c0-.51-.11-1-.17-1.46h0l.43-.34a.63.63,0,0,1,.8,1C94.6,76.21,94.25,76.47,93.89,76.74Z"/><path class="cls-1" d="M101.93,86.81a15.77,15.77,0,0,1-8.36,5.34h0c0-.46.09-.91.14-1.35.07-.73.13-1.44.18-2.14,0-.47.08-.94.11-1.39a10.67,10.67,0,0,0,4.26-3.18A8.36,8.36,0,0,0,100,78.74l-1.24-.08c-.73,0-1.63-.11-2.39-.13a.64.64,0,0,1,0-1.27c.86,0,1.74.09,2.45.14l1.05.07c-.36-3.26-1.54-5.61-3.41-7.1a9.45,9.45,0,0,0-4.39-1.81q-.27-.72-.57-1.35a15.29,15.29,0,0,0-1.14-2,12.19,12.19,0,0,0-1-1.28c4.06,0,7.43.93,10,2.93,2.89,2.29,4.67,5.91,5.09,10.91,0,.07,0,.17,0,.31A12.46,12.46,0,0,1,101.93,86.81Z"/><path class="cls-2" d="M104.5,78.05c0-.14,0-.24,0-.31-.42-5-2.2-8.62-5.09-10.91-2.53-2-5.9-3-10-2.93-.56,0-1.14,0-1.74.07l-.34,0a15.7,15.7,0,0,0-1.86.28,12.2,12.2,0,0,0-8,5.76,15.73,15.73,0,0,0-2.07,9.33,15,15,0,0,0,.32,2.08c0,.15,0,.27.07.35a14.08,14.08,0,0,0,6.89,8.58,15.17,15.17,0,0,0,10.5,1.85h0l.31-.07h0a15.77,15.77,0,0,0,8.36-5.34A12.46,12.46,0,0,0,104.5,78.05Zm-3.57,8a14.37,14.37,0,0,1-7.24,4.78l-.42.11L93,91h0a13.89,13.89,0,0,1-9.61-1.72,12.79,12.79,0,0,1-6.28-7.78c0-.15-.06-.25-.07-.32a14.9,14.9,0,0,1-.29-1.91,14.53,14.53,0,0,1,1.89-8.58,10.92,10.92,0,0,1,7.15-5.17,12.25,12.25,0,0,1,1.69-.25l.33,0a23,23,0,0,1,2.61,0,13.67,13.67,0,0,1,8.22,2.64c2.61,2.07,4.21,5.39,4.61,10a2,2,0,0,0,0,.29A11.2,11.2,0,0,1,100.93,86Z"/><path class="cls-2" d="M101.24,78.07a1.16,1.16,0,0,1,0-.23c-.33-3.87-1.7-6.68-4-8.45a10.9,10.9,0,0,0-5.74-2.18,18.21,18.21,0,0,0-3.32,0l-.26,0a11.36,11.36,0,0,0-1.44.22,9.44,9.44,0,0,0-6.18,4.47,12.16,12.16,0,0,0-1.61,7.23A13,13,0,0,0,79,80.71,2.38,2.38,0,0,0,79,81a10.88,10.88,0,0,0,5.34,6.66,11.77,11.77,0,0,0,8.13,1.44l.26-.06a10.11,10.11,0,0,0,1.11-.35,11.88,11.88,0,0,0,5.37-3.79A9.71,9.71,0,0,0,101.24,78.07Zm-3,6A10.67,10.67,0,0,1,94,87.28a11.31,11.31,0,0,1-1.52.51l-.23,0a8.47,8.47,0,0,1-2,.19A8.62,8.62,0,0,1,89,87.94a11.51,11.51,0,0,1-4-1.4,9.61,9.61,0,0,1-4.74-5.86c0-.12,0-.2,0-.24A9.41,9.41,0,0,1,80,79c0-.13,0-.26,0-.39a10.59,10.59,0,0,1,0-1.26,10.71,10.71,0,0,1,1.45-4.83,8.47,8.47,0,0,1,6.65-4.07l.24,0h.28q.65,0,1.26,0a13.53,13.53,0,0,1,2.26.18,9.45,9.45,0,0,1,4.39,1.81c1.87,1.49,3.05,3.84,3.41,7.1a3.56,3.56,0,0,1,0,.47c0,.11,0,.19,0,.22,0,.2,0,.39,0,.58A8.36,8.36,0,0,1,98.24,84.1Z"/><path class="cls-2" d="M88.58,68.2a.63.63,0,0,1,1.26,0c0,1.59,0,2.61.06,3.92v.29a.63.63,0,0,1-.63.63.63.63,0,0,1-.63-.63v-.29c0-1.28,0-2.29-.06-3.89Z"/><path class="cls-2" d="M100.68,78.11a.64.64,0,0,1-.64.63h0l-1.24-.08c-.73,0-1.63-.11-2.39-.13a.64.64,0,0,1,0-1.27c.86,0,1.74.09,2.45.14l1.05.07H100A.63.63,0,0,1,100.68,78.11Z"/><path class="cls-2" d="M89.13,85.12a.63.63,0,0,1,1.26,0c0,.1,0,.92,0,1.74,0,.44,0,.86-.07,1.11a.62.62,0,0,1-.69.56.63.63,0,0,1-.56-.7c0-.24,0-.62.06-1,0-.72,0-1.58,0-1.69Z"/><path class="cls-2" d="M79.76,78.6a.63.63,0,1,1,0-1.26c.55,0,1.15.06,1.68.11h0c.58,0,1.09.08,1.26.07a.63.63,0,0,1,.67.59.62.62,0,0,1-.59.67,12.51,12.51,0,0,1-1.43-.07h0c-.55,0-1.17-.09-1.62-.11Z"/><path class="cls-2" d="M95,75.92c-.35.29-.7.55-1.06.82s-.85.59-1.31.89c-.85.54-1.79,1.09-2.9,1.7a.52.52,0,0,1-.3.08.59.59,0,0,1-.29-.07,8,8,0,0,1-2.53-2.93,41.55,41.55,0,0,1-1.93-3.81.63.63,0,1,1,1.16-.51,36.35,36.35,0,0,0,1.86,3.67,9.14,9.14,0,0,0,1.75,2.29c.95-.53,1.76-1,2.5-1.49s1.24-.83,1.82-1.28h0l.43-.34a.63.63,0,0,1,.8,1Z"/><path class="cls-1" d="M54.47,49.18v.5c0,2.56-1.65,4.41-3.94,5.7l-.25.13c-.15-.44-.32-.87-.5-1.3-2.2-5.18-6.61-9.77-10-12.77-.53-.47-1-.9-1.51-1.29l1.22-.09c.51,0,1,0,1.53,0a21.05,21.05,0,0,1,5.57.77,6,6,0,0,1,2.91-4.27l.4-.24,1.11,1c-.26.13-.52.28-.76.43a4.67,4.67,0,0,0-2.32,3.54,12.75,12.75,0,0,1,2.45,1.23A9.12,9.12,0,0,1,53.63,46a20,20,0,0,0,2.2.31l.09,1.4c-.54,0-1.13-.1-1.72-.2A8,8,0,0,1,54.47,49.18Z"/><path class="cls-1" d="M66.4,41.44A4.59,4.59,0,0,1,65,44.52a8.1,8.1,0,0,1-1.63,1.34A8.84,8.84,0,0,0,63,44.48c-1.32-3.27-4.56-6.13-7.67-8.26q-.91-.63-1.8-1.17a16.86,16.86,0,0,1,2.73-.26c.33,0,.67,0,1,0a12.29,12.29,0,0,1,6.48,2A5.71,5.71,0,0,1,66.4,41.44Z"/><path class="cls-2" d="M63.72,36.77a12.29,12.29,0,0,0-6.48-2c-.34,0-.68,0-1,0a16.86,16.86,0,0,0-2.73.26,11.34,11.34,0,0,0-3.6,1.25l-.4.24a6,6,0,0,0-2.91,4.27,6.2,6.2,0,0,0-.06.62v.32a2.67,2.67,0,0,0,0,.5,14.36,14.36,0,0,1,1.6.61,2.59,2.59,0,0,1-.25-1.12,2.26,2.26,0,0,1,0-.26,1.77,1.77,0,0,1,0-.23,4.67,4.67,0,0,1,2.32-3.54c.24-.15.5-.3.76-.43a11.81,11.81,0,0,1,4.29-1.06c.31,0,.62,0,.94,0s.62,0,.95,0a10.88,10.88,0,0,1,5.73,1.72A4.35,4.35,0,0,1,65,41.44a3.24,3.24,0,0,1-1,2.14,6.69,6.69,0,0,1-1,.9,10.15,10.15,0,0,1-1.91,1,.69.69,0,0,0-.43.63c0,.05,0,.1,0,.15a3.44,3.44,0,0,1,.09.77,2.45,2.45,0,0,1-.36,1.35,2.86,2.86,0,0,0-.82-2,.67.67,0,0,0-.71-.23c-.34.06-.71.1-1.09.13a11.23,11.23,0,0,1-1.16,0l-.76-.05a20,20,0,0,1-2.2-.31,14.88,14.88,0,0,1-2-.55,6.85,6.85,0,0,1,1,1.75c.52.13,1,.23,1.56.31s1.18.16,1.72.2l.62,0a11.22,11.22,0,0,0,1.3,0c.29,0,.57,0,.86-.09a1.1,1.1,0,0,1-.26,1.56,3.28,3.28,0,0,1-.5.33h0l-.07,0a.52.52,0,0,0-.22.22.7.7,0,0,0-.11.38.69.69,0,0,0,.69.69,4.58,4.58,0,0,0,1-.1,3.52,3.52,0,0,0,2.14-1.29,3.72,3.72,0,0,0,.76-2.35,4.15,4.15,0,0,0,0-.49,11.81,11.81,0,0,0,1.32-.72A8.1,8.1,0,0,0,65,44.52a4.59,4.59,0,0,0,1.36-3.08A5.71,5.71,0,0,0,63.72,36.77Z"/><path class="cls-2" d="M54.47,49.18a8,8,0,0,0-.27-1.72A7.22,7.22,0,0,0,53.63,46a9.12,9.12,0,0,0-3.25-3.47,12.75,12.75,0,0,0-2.45-1.23c-.43-.16-.88-.31-1.34-.44A21.05,21.05,0,0,0,41,40c-.5,0-1,0-1.53,0l-1.22.09a17.87,17.87,0,0,0-8.13,2.63,7.52,7.52,0,0,0-3.43,6.45,6.24,6.24,0,0,0,1.87,4.2,13.11,13.11,0,0,0,4.3,3,6.88,6.88,0,0,0-.06.89,5.08,5.08,0,0,0,1,3.17,4.8,4.8,0,0,0,2.88,1.73,6.53,6.53,0,0,0,1.36.14.7.7,0,0,0,.7-.7.68.68,0,0,0-.1-.35.51.51,0,0,0-.24-.24l-.06,0,0,0a4,4,0,0,1-.77-.51,1.87,1.87,0,0,1-.33-2.78c.46.07.93.12,1.4.15a13.74,13.74,0,0,0,1.82,0,24.26,24.26,0,0,0,9.81-2.35l.25-.13c2.29-1.29,3.91-3.14,3.94-5.7Zm-4.62,5-.07,0a22.65,22.65,0,0,1-9.36,2.27,15.7,15.7,0,0,1-1.68,0,13.81,13.81,0,0,1-1.62-.19.7.7,0,0,0-.71.23c-1.28,1.56-1.26,2.81-.79,3.75a2.81,2.81,0,0,1-.69-.64,3.75,3.75,0,0,1-.72-2.32,6,6,0,0,1,.13-1.17.71.71,0,0,0-.42-.78,12.3,12.3,0,0,1-4.33-2.84,4.88,4.88,0,0,1-1.49-3.25,6.16,6.16,0,0,1,2.83-5.31c2.68-1.88,6.55-2.38,8.62-2.47h.23c.42,0,.83,0,1.23,0a19.51,19.51,0,0,1,5.56.82,14.36,14.36,0,0,1,1.6.61,11.07,11.07,0,0,1,1.45.79,8.31,8.31,0,0,1,2,1.75,6.85,6.85,0,0,1,1,1.75,6.29,6.29,0,0,1,.44,2.09c0,.15,0,.28,0,.42C53.06,51.64,51.73,53.11,49.85,54.17Z"/><path class="cls-1" d="M57.47,101.23a.49.49,0,0,1-.21,0,59.78,59.78,0,0,0-6.37-1.59c.13-.31.26-.61.38-.91.63.13,1.23.27,1.8.4.19-.9.33-1.72.4-2.32a2.43,2.43,0,0,1,.16-.62l-1.3-.34.3-.93c.36-1.19.65-2.31.87-3.35.06-.32.12-.63.17-.94a3.18,3.18,0,0,0,.58,0,39.68,39.68,0,0,0,1.17-3.94c.08-.31.16-.62.23-.94s.22-.88.31-1.32c.39-1.71.71-3.19.72-3.5L52.51,80a9.09,9.09,0,0,0-.75-1.17c1.67.38,3.38.77,5.32,1.17a.51.51,0,0,1,.21.1c.4.33.13,2.31-.38,4.54-.1.44-.21.9-.32,1.36,1.16.33,2.24.67,3.21,1a.47.47,0,0,1,.32.4c.2,1.5-.42,4.07-1,6.71a29.72,29.72,0,0,0-1.13,6.6A.49.49,0,0,1,57.47,101.23Z"/><path class="cls-2" d="M54.4,85.41h0L54,85.3c-1.78-.45-3.64-.87-5.46-1.24-1.33-.28-2.64-.52-3.88-.74,0,0,0,0,0,0a.49.49,0,0,0,.38.58l3.8.87c2,.47,4.18,1,5,1.08H54a.23.23,0,0,0,.13,0A.47.47,0,0,0,54.4,85.41Zm3.54,15.31a29.72,29.72,0,0,1,1.13-6.6c.63-2.64,1.25-5.21,1-6.71a.47.47,0,0,0-.32-.4c-1-.34-2-.68-3.21-1l-.94-.26c-.07.32-.15.63-.23.94l.93.27c1,.28,2,.58,2.83.88a27.51,27.51,0,0,1-1,6.06A38.72,38.72,0,0,0,57,100.06c-.66-.19-1.69-.45-2.95-.75l-1-.22c-.57-.13-1.17-.27-1.8-.4-1.54-.34-3.23-.69-4.91-1-2.26-.46-4.52-.89-6.42-1.22l-1-.16c-1.23-.21-2.26-.36-3-.44a43.68,43.68,0,0,0,1.09-6.49,44.58,44.58,0,0,1,1-5.89c1,.05,2.25.18,3.73.39l1,.15c.07-.32.15-.64.22-1l-1-.14a41.33,41.33,0,0,0-4.23-.42.48.48,0,0,0-.5.3,34.68,34.68,0,0,0-1.13,6.45c-.38,3-.76,6-1.25,6.77a.62.62,0,0,0-.09.27.49.49,0,0,0,.48.49c1.31,0,6.1.88,10.9,1.85l2.13.44,2.59.55a59.78,59.78,0,0,1,6.37,1.59.49.49,0,0,0,.68-.47Z"/><path class="cls-2" d="M54.66,83.23a3.4,3.4,0,0,1-1-.13c-1-.2-2.74-.59-4.34-1-1.78-.41-3.44-.8-3.8-.87a.49.49,0,0,1-.38-.58.5.5,0,0,1,.58-.38l3.82.88c1.52.35,3,.8,3.89,1a3.09,3.09,0,0,0,.76.16.48.48,0,1,1,.46.85Z"/><path class="cls-2" d="M53.62,88.1a.48.48,0,0,0-.66-.2c-.14.08-2.36-.65-4.65-1.18l-3.82-.88a.49.49,0,1,0-.2,1l3.8.88a49,49,0,0,0,5.33,1.09A.49.49,0,0,0,53.62,88.1Zm.78-2.69h0a.75.75,0,0,0,0-.16A.51.51,0,0,0,54,85h-.11l-.08,0-.08,0c-.14.07-2.36-.66-4.65-1.19L45.22,83a.49.49,0,0,0-.57.34s0,0,0,0a.49.49,0,0,0,.38.58l3.8.87c2,.47,4.18,1,5,1.08H54a.23.23,0,0,0,.13,0A.47.47,0,0,0,54.4,85.41Zm-.73,5.18a45.15,45.15,0,0,1-4.55-.85C46,89,42.6,88.17,41.86,87.88c.17-.81.36-1.6.55-2.42L42.74,84l-1-.15c-.11.47-.21.94-.32,1.4-.23,1-.46,2-.62,2.74a.49.49,0,0,0,.38.57h.07a61.89,61.89,0,0,0,7.62,2.12,44.79,44.79,0,0,0,4.59.84C53.56,91.21,53.62,90.9,53.67,90.59Zm-.05-2.49a.48.48,0,0,0-.66-.2c-.14.08-2.36-.65-4.65-1.18l-3.82-.88a.49.49,0,1,0-.2,1l3.8.88a49,49,0,0,0,5.33,1.09A.49.49,0,0,0,53.62,88.1Zm.78-2.69h0a.75.75,0,0,0,0-.16A.51.51,0,0,0,54,85h-.11l-.08,0-.08,0c-.14.07-2.36-.66-4.65-1.19L45.22,83a.49.49,0,0,0-.57.34s0,0,0,0a.49.49,0,0,0,.38.58l3.8.87c2,.47,4.18,1,5,1.08H54a.23.23,0,0,0,.13,0A.47.47,0,0,0,54.4,85.41Zm-.78,2.69a.48.48,0,0,0-.66-.2c-.14.08-2.36-.65-4.65-1.18l-3.82-.88a.49.49,0,1,0-.2,1l3.8.88a49,49,0,0,0,5.33,1.09A.49.49,0,0,0,53.62,88.1Zm.78-2.69h0a.75.75,0,0,0,0-.16A.51.51,0,0,0,54,85h-.11l-.08,0-.08,0c-.14.07-2.36-.66-4.65-1.19L45.22,83a.49.49,0,0,0-.57.34s0,0,0,0a.49.49,0,0,0,.38.58l3.8.87c2,.47,4.18,1,5,1.08H54a.23.23,0,0,0,.13,0A.47.47,0,0,0,54.4,85.41Zm-.73,5.18a45.15,45.15,0,0,1-4.55-.85C46,89,42.6,88.17,41.86,87.88c.17-.81.36-1.6.55-2.42L42.74,84l-1-.15c-.11.47-.21.94-.32,1.4-.23,1-.46,2-.62,2.74a.49.49,0,0,0,.38.57h.07a61.89,61.89,0,0,0,7.62,2.12,44.79,44.79,0,0,0,4.59.84C53.56,91.21,53.62,90.9,53.67,90.59Zm-9.38-3.8,3.8.88a49,49,0,0,0,5.33,1.09.49.49,0,0,0,.2-.66.48.48,0,0,0-.66-.2c-.14.08-2.36-.65-4.65-1.18l-3.82-.88a.49.49,0,1,0-.2,1ZM45,83.94l3.8.87c2,.47,4.18,1,5,1.08H54a.23.23,0,0,0,.13,0,.47.47,0,0,0,.25-.49h0a.75.75,0,0,0,0-.16A.51.51,0,0,0,54,85h-.11l-.08,0-.08,0c-.14.07-2.36-.66-4.65-1.19L45.22,83a.49.49,0,0,0-.57.34s0,0,0,0A.49.49,0,0,0,45,83.94ZM57.29,80.1a.51.51,0,0,0-.21-.1c-1.94-.4-3.65-.79-5.32-1.17l-1.42-.34c-2.23-.51-4.48-1-6.91-1.54a.47.47,0,0,0-.57.38.36.36,0,0,0,0,.11A33.94,33.94,0,0,1,42,82.9l-.21.95c-.11.47-.21.94-.32,1.4-.23,1-.46,2-.62,2.74a.49.49,0,0,0,.38.57h.07a61.89,61.89,0,0,0,7.62,2.12,44.79,44.79,0,0,0,4.59.84,3.92,3.92,0,0,0,1.23,0,.5.5,0,0,0,.29-.24A33.53,33.53,0,0,0,56.35,87l.24-1c.11-.46.22-.92.32-1.36C57.42,82.41,57.69,80.43,57.29,80.1Zm-1.87,6.58a39.68,39.68,0,0,1-1.17,3.94,3.18,3.18,0,0,1-.58,0,45.15,45.15,0,0,1-4.55-.85C46,89,42.6,88.17,41.86,87.88c.17-.81.36-1.6.55-2.42L42.74,84c.07-.32.15-.64.22-1a39.9,39.9,0,0,0,.82-5c2.34.49,4.35,1,6.34,1.42l2.39.56,4.17.92c0,.31-.33,1.79-.72,3.5-.09.44-.2.88-.31,1.32S55.5,86.37,55.42,86.68Zm-1-1.27a.75.75,0,0,0,0-.16A.51.51,0,0,0,54,85h-.11l-.08,0-.08,0c-.14.07-2.36-.66-4.65-1.19L45.22,83a.49.49,0,0,0-.57.34s0,0,0,0a.49.49,0,0,0,.38.58l3.8.87c2,.47,4.18,1,5,1.08H54a.23.23,0,0,0,.13,0,.47.47,0,0,0,.25-.49ZM53,87.9c-.14.08-2.36-.65-4.65-1.18l-3.82-.88a.49.49,0,1,0-.2,1l3.8.88a49,49,0,0,0,5.33,1.09.49.49,0,0,0,.2-.66A.48.48,0,0,0,53,87.9Zm1.44-2.49h0a.75.75,0,0,0,0-.16A.51.51,0,0,0,54,85h-.11l-.08,0-.08,0c-.14.07-2.36-.66-4.65-1.19L45.22,83a.49.49,0,0,0-.57.34s0,0,0,0a.49.49,0,0,0,.38.58l3.8.87c2,.47,4.18,1,5,1.08H54a.23.23,0,0,0,.13,0A.47.47,0,0,0,54.4,85.41Zm-.78,2.69a.48.48,0,0,0-.66-.2c-.14.08-2.36-.65-4.65-1.18l-3.82-.88a.49.49,0,1,0-.2,1l3.8.88a49,49,0,0,0,5.33,1.09A.49.49,0,0,0,53.62,88.1Zm.05,2.49a45.15,45.15,0,0,1-4.55-.85C46,89,42.6,88.17,41.86,87.88c.17-.81.36-1.6.55-2.42L42.74,84l-1-.15c-.11.47-.21.94-.32,1.4-.23,1-.46,2-.62,2.74a.49.49,0,0,0,.38.57h.07a61.89,61.89,0,0,0,7.62,2.12,44.79,44.79,0,0,0,4.59.84C53.56,91.21,53.62,90.9,53.67,90.59Zm.73-5.18h0a.75.75,0,0,0,0-.16A.51.51,0,0,0,54,85h-.11l-.08,0-.08,0c-.14.07-2.36-.66-4.65-1.19L45.22,83a.49.49,0,0,0-.57.34s0,0,0,0a.49.49,0,0,0,.38.58l3.8.87c2,.47,4.18,1,5,1.08H54a.23.23,0,0,0,.13,0A.47.47,0,0,0,54.4,85.41Zm-.78,2.69a.48.48,0,0,0-.66-.2c-.14.08-2.36-.65-4.65-1.18l-3.82-.88a.49.49,0,1,0-.2,1l3.8.88a49,49,0,0,0,5.33,1.09A.49.49,0,0,0,53.62,88.1Zm0,0a.48.48,0,0,0-.66-.2c-.14.08-2.36-.65-4.65-1.18l-3.82-.88a.49.49,0,1,0-.2,1l3.8.88a49,49,0,0,0,5.33,1.09A.49.49,0,0,0,53.62,88.1Zm0,0a.48.48,0,0,0-.66-.2c-.14.08-2.36-.65-4.65-1.18l-3.82-.88a.49.49,0,1,0-.2,1l3.8.88a49,49,0,0,0,5.33,1.09A.49.49,0,0,0,53.62,88.1Z"/><path class="cls-2" d="M54.66,83.23a3.4,3.4,0,0,1-1-.13c-1-.2-2.74-.59-4.34-1-1.78-.41-3.44-.8-3.8-.87a.49.49,0,0,1-.38-.58.5.5,0,0,1,.58-.38l3.82.88c1.52.35,3,.8,3.89,1a3.09,3.09,0,0,0,.76.16.48.48,0,1,1,.46.85Z"/><path class="cls-2" d="M53.62,88.1a.49.49,0,0,1-.2.66,49,49,0,0,1-5.33-1.09l-3.8-.88a.49.49,0,1,1,.2-1l3.82.88C50.6,87.25,52.82,88,53,87.9A.48.48,0,0,1,53.62,88.1Z"/><path class="cls-2" d="M54.15,85.9a.23.23,0,0,1-.13,0h-.2c-.82-.11-3-.61-5-1.08L45,83.94a.49.49,0,0,1-.38-.58s0,0,0,0a.49.49,0,0,1,.57-.34l3.82.88c2.29.53,4.51,1.26,4.65,1.19l.08,0,.08,0H54a.51.51,0,0,1,.39.26.75.75,0,0,1,0,.16h0A.47.47,0,0,1,54.15,85.9Z"/><path class="cls-2" d="M54,99.66a.49.49,0,1,1-1-.2c0-.12,0-.25.07-.37.19-.9.33-1.72.4-2.32a2.43,2.43,0,0,1,.16-.62l-1.3-.34c-2.12-.5-4.2-.8-6.36-1.11-1.73-.25-3.5-.52-5.41-.89-.12.42-.24.85-.34,1.28s-.2.89-.28,1.35l-.09.43a.48.48,0,0,1-.56.38.47.47,0,0,1-.39-.56c0-.14.05-.28.08-.41.09-.48.19-1,.29-1.41q.23-.91.48-1.77a.49.49,0,0,1,.57-.33c2,.41,3.93.69,5.79,1,2.21.33,4.34.64,6.52,1.15l1.43.37a.54.54,0,0,1,.18.1c.24.2.29.75.2,1.53s-.22,1.49-.42,2.43C54,99.43,54,99.54,54,99.66Z"/><path class="cls-2" d="M56.39,89.7v-.16a.9.9,0,0,1,.24-.5.8.8,0,0,1,.57-.25h.14a1,1,0,0,1,.65.3.9.9,0,0,1,.2.72h0a.77.77,0,0,1-.29.51,1,1,0,0,1-.54.19h0a1,1,0,0,1-.61-.22.84.84,0,0,1-.32-.6Z"/><path class="cls-2" d="M53.42,88.76a49,49,0,0,1-5.33-1.09l-3.8-.88a.49.49,0,1,1,.2-1l3.82.88C50.6,87.25,52.82,88,53,87.9a.48.48,0,0,1,.66.2A.49.49,0,0,1,53.42,88.76Z"/><path class="cls-2" d="M54.15,85.9a.23.23,0,0,1-.13,0h-.2c-.82-.11-3-.61-5-1.08L45,83.94a.49.49,0,0,1-.38-.58s0,0,0,0a.49.49,0,0,1,.57-.34l3.82.88c2.29.53,4.51,1.26,4.65,1.19l.08,0,.08,0H54a.51.51,0,0,1,.39.26.75.75,0,0,1,0,.16h0A.47.47,0,0,1,54.15,85.9Z"/><path class="cls-2" d="M54.66,83.23a3.4,3.4,0,0,1-1-.13c-1-.2-2.74-.59-4.34-1-1.78-.41-3.44-.8-3.8-.87a.49.49,0,0,1-.38-.58.5.5,0,0,1,.58-.38l3.82.88c1.52.35,3,.8,3.89,1a3.09,3.09,0,0,0,.76.16.48.48,0,1,1,.46.85Z"/><path class="cls-2" d="M54.4,85.41h0a.47.47,0,0,1-.25.49.23.23,0,0,1-.13,0l0-.61L54,85a.51.51,0,0,1,.39.26A.75.75,0,0,1,54.4,85.41Z"/><path class="cls-1" d="M21.71,79.81a.46.46,0,0,1-.49.43,26.62,26.62,0,0,0-5.81.64c-.05-.3-.1-.6-.16-.9a22.84,22.84,0,0,0-4.56-10.65A15.12,15.12,0,0,0,9.1,67.65c-.25-.23-.51-.45-.76-.65s-.54-.42-.81-.6-.62-.41-.93-.59-.54-.3-.81-.43c.53-1.19,1-2.13,1.31-2.68h0a.46.46,0,0,1,.63-.16c2.68,1.62,6.11,6.43,9.16,10.74a70.88,70.88,0,0,0,4.68,6.17A.43.43,0,0,1,21.71,79.81Z"/><path class="cls-2" d="M21.57,79.45a70.88,70.88,0,0,1-4.68-6.17C13.84,69,10.41,64.16,7.73,62.54a.46.46,0,0,0-.63.16h0c-.32.55-.78,1.49-1.31,2.68-1.21,2.71-2.81,6.74-4,10.34s-2,6.93-1.68,8.1a.46.46,0,0,0,.57.3,41.27,41.27,0,0,0,4.84-1c2.91-.7,6.67-1.6,9.91-2.21a26.62,26.62,0,0,1,5.81-.64.46.46,0,0,0,.49-.43A.43.43,0,0,0,21.57,79.45ZM15.25,80c-3.27.61-7,1.52-10,2.22-2.16.52-3.84.93-4.38,1C.8,82,1.57,79.2,2.64,76c1.19-3.56,2.77-7.52,4-10.2.41-.91.77-1.68,1.06-2.23,2.47,1.75,5.64,6.22,8.49,10.23,1.49,2.1,2.9,4.08,4.09,5.5A40.88,40.88,0,0,0,15.25,80Z"/><path class="cls-2" d="M10.69,69.33a.3.3,0,0,0,0-.1A8,8,0,0,0,10,67.46c-.51-1-1.19-1.57-2-1.34a1,1,0,0,0-.48.28c-.68.65-.78,2.21-.55,3.9a16.6,16.6,0,0,0,.42,2.1,13.85,13.85,0,0,0,.65,1.86c.51,1.13,1.16,1.82,1.85,1.6,1-.33,1.34-2.41,1.13-4.58A14.2,14.2,0,0,0,10.69,69.33ZM9.1,67.65l.13.22a7.84,7.84,0,0,1,.56,1.58,14.65,14.65,0,0,1,.33,1.93c.17,1.77.05,3.43-.49,3.6-.15,0-.43-.4-.74-1.09a11.2,11.2,0,0,1-.6-1.73,15.28,15.28,0,0,1-.41-2c-.22-1.59-.18-3,.37-3.16a.14.14,0,0,1,.09,0Z"/><path class="cls-2" d="M11.9,78.27a1.63,1.63,0,0,0-1.32-1.09,1.3,1.3,0,0,0-1.36.75,1.72,1.72,0,0,0-.15.64,1.8,1.8,0,0,0,.1.65,1.47,1.47,0,0,0,1.4,1,1.32,1.32,0,0,0,1.3-.68,1.26,1.26,0,0,0,.15-.64A1.71,1.71,0,0,0,11.9,78.27Zm-.79.62a.51.51,0,0,1,0,.22c-.06.11-.21.19-.48.18A.56.56,0,0,1,10,78.9a.79.79,0,0,1,0-.3.68.68,0,0,1,.07-.28.45.45,0,0,1,.45-.23.75.75,0,0,1,.55.5A.89.89,0,0,1,11.11,78.89Z"/></g></g></svg>