<?xml version="1.0" encoding="utf-8"?>
<!-- Generator: Adobe Illustrator 22.1.0, SVG Export Plug-In . SVG Version: 6.00 Build 0)  -->
<svg version="1.1" id="Layer_1" xmlns="http://www.w3.org/2000/svg" xmlns:xlink="http://www.w3.org/1999/xlink" x="0px" y="0px"
	 viewBox="0 0 1000 1000" style="enable-background:new 0 0 1000 1000;" xml:space="preserve">
<style type="text/css">
	.st0{fill:#F2B03D;}
	.st1{fill:#FFFFFF;}
</style>
<title>icon-next</title>
<circle class="st0" cx="500" cy="500" r="500"/>
<g>
	<g>
		<path class="st1" d="M733.1,481.3L559.2,307.4c-5-5-11.6-7.7-18.6-7.7c-7.1,0-13.7,2.7-18.6,7.7l-15.8,15.8
			c-5,5-7.7,11.6-7.7,18.6c0,7.1,2.7,13.9,7.7,18.9l101.5,101.7H285.2c-14.5,0-26,11.4-26,25.9v22.3c0,14.5,11.5,27.1,26,27.1h323.5
			L506.1,639.9c-5,5-7.7,11.4-7.7,18.5c0,7.1,2.7,13.6,7.7,18.5l15.8,15.7c5,5,11.6,7.7,18.6,7.7c7.1,0,13.7-2.7,18.6-7.7
			l173.9-173.9c5-5,7.7-11.6,7.7-18.7C740.8,492.9,738.1,486.3,733.1,481.3z"/>
	</g>
</g>
</svg>
