<?xml version="1.0" encoding="utf-8"?>
<!-- Generator: Adobe Illustrator 22.1.0, SVG Export Plug-In . SVG Version: 6.00 Build 0)  -->
<svg version="1.1" id="Layer_1" xmlns="http://www.w3.org/2000/svg" xmlns:xlink="http://www.w3.org/1999/xlink" x="0px" y="0px"
	 viewBox="0 0 1000 1000" style="enable-background:new 0 0 1000 1000;" xml:space="preserve">
<style type="text/css">
	.st0{fill:#F2B03D;}
	.st1{fill:#FFFFFF;}
</style>
<title>icon-next</title>
<g>
	<circle class="st0" cx="500" cy="500" r="500"/>
	<g>
		<g>
			<path class="st1" d="M259.2,500c0,7.1,2.7,13.7,7.7,18.7l173.9,173.9c5,5,11.6,7.7,18.6,7.7c7.1,0,13.7-2.7,18.6-7.7l15.8-15.7
				c5-5,7.7-11.5,7.7-18.5c0-7.1-2.7-13.5-7.7-18.5L391.3,537.6h323.5c14.5,0,26-12.5,26-27.1v-22.3c0-14.5-11.5-25.9-26-25.9H392.4
				l101.5-101.7c5-5,7.7-11.8,7.7-18.9c0-7.1-2.7-13.7-7.7-18.6l-15.8-15.8c-5-5-11.6-7.7-18.6-7.7c-7.1,0-13.7,2.7-18.6,7.7
				L266.9,481.3C261.9,486.3,259.2,492.9,259.2,500z"/>
		</g>
	</g>
</g>
</svg>
