<?xml version="1.0" encoding="utf-8"?>
<!-- Generator: Adobe Illustrator 22.1.0, SVG Export Plug-In . SVG Version: 6.00 Build 0)  -->
<svg version="1.1" id="Layer_1" xmlns="http://www.w3.org/2000/svg" xmlns:xlink="http://www.w3.org/1999/xlink" x="0px" y="0px"
	 viewBox="0 0 849.2 849.2" style="enable-background:new 0 0 849.2 849.2;" xml:space="preserve">
<style type="text/css">
	.st0{opacity:0.2;fill:#F2B03D;enable-background:new    ;}
	.st1{opacity:0.4;fill:#F2B03D;enable-background:new    ;}
	.st2{fill:#F2B03D;}
	.st3{fill:#FFFFFF;}
</style>
<title>icon-mail</title>
<g>
	<circle class="st0" cx="424.6" cy="424.6" r="424.6"/>
	<circle class="st1" cx="424.6" cy="424.6" r="335.1"/>
	<path class="st2" d="M594.8,594.7c-79.2,79.2-199.8,91.6-292,37.4l-0.5-0.4c-36.3,27.4-75.2,32.1-102.3,27.9
		c-9-1.4-10.9-13.6-2.7-17.6c24.8-12.2,40.4-36.4,49.5-56l-2.5-2c-83.7-94.5-80.3-239.1,10.1-329.5c93.9-94,246.2-94,340.2,0
		S688.6,500.8,594.8,594.7z"/>
	<path class="st3" d="M378.1,487.7v46.4c0,4.1,3.4,7.5,7.5,7.5c2.4,0,4.6-1.1,6-3l27.1-36.9L378.1,487.7z"/>
	<path class="st3" d="M527.4,313c-2.3-1.6-5.3-1.8-7.8-0.5L294.6,430c-3.7,1.9-5.1,6.4-3.2,10.1c0,0,0,0,0,0c0.9,1.7,2.4,3,4.2,3.6
		l62.5,21.4l133.2-113.9l-103,124.2l104.8,35.8c0.8,0.3,1.6,0.4,2.4,0.4c3.7,0,6.9-2.7,7.4-6.4l27.5-185
		C530.9,317.4,529.7,314.6,527.4,313z"/>
</g>
</svg>
