<svg id="Layer_1" data-name="Layer 1" xmlns="http://www.w3.org/2000/svg" viewBox="0 0 849.16 849.16"><defs><style>.cls-1,.cls-2,.cls-3{fill:#f6d671;}.cls-1{opacity:0.2;}.cls-2{opacity:0.4;}.cls-4{fill:#fff;}</style></defs><title>icon-mail</title><circle class="cls-1" cx="424.58" cy="424.58" r="424.58"/><circle class="cls-2" cx="424.58" cy="424.58" r="335.08"/><g id="Layer_2" data-name="Layer 2"><g id="Capa_1" data-name="Capa 1"><path class="cls-3" d="M-711.27,226.71c-79.2,79.2-199.8,91.6-292,37.4l-.5-.4c-36.34,27.4-75.2,32.1-102.34,27.9-9-1.4-10.9-13.6-2.7-17.6,24.8-12.2,40.4-36.4,49.5-56l-2.5-2c-83.66-94.5-80.3-239.1,10.14-329.5,93.9-94,246.2-94,340.2,0S-617.47,132.81-711.27,226.71Z" transform="translate(1306.11 367.99)"/><path class="cls-4" d="M-928,119.71v46.38a7.51,7.51,0,0,0,7.51,7.49,7.51,7.51,0,0,0,6-3.05l27.13-36.92Z" transform="translate(1306.11 367.99)"/><path class="cls-4" d="M-778.68-55a7.48,7.48,0,0,0-7.82-.54L-1011.5,62a7.49,7.49,0,0,0-3.21,10.1,7.5,7.5,0,0,0,4.21,3.65l62.55,21.38L-814.74-16.8l-103,124.16,104.83,35.83a8,8,0,0,0,2.42.4,7.49,7.49,0,0,0,7.42-6.39l27.5-185A7.48,7.48,0,0,0-778.68-55Z" transform="translate(1306.11 367.99)"/></g></g></svg>