<svg id="Layer_1" data-name="Layer 1" xmlns="http://www.w3.org/2000/svg" viewBox="0 0 512 450"><defs><style>.cls-1{fill:#222;}</style></defs><title>icon-work</title><path class="cls-1" d="M497.09,91H361V76a45.05,45.05,0,0,0-45-45H196a45.05,45.05,0,0,0-45,45V91H15A15,15,0,0,0,0,106V436a45.05,45.05,0,0,0,45,45H467a45.05,45.05,0,0,0,45-45V106.26C511.43,96.41,505.37,91.06,497.09,91ZM181,76a15,15,0,0,1,15-15H316a15,15,0,0,1,15,15V91H181Zm295.19,45L429.61,260.74A15,15,0,0,1,415.38,271H331V256a15,15,0,0,0-15-15H196a15,15,0,0,0-15,15v15H96.62a15,15,0,0,1-14.23-10.26L35.81,121ZM301,271v30H211V271ZM482,436a15,15,0,0,1-15,15H45a15,15,0,0,1-15-15V198.43l23.93,71.8A44.94,44.94,0,0,0,96.62,301H181v15a15,15,0,0,0,15,15H316a15,15,0,0,0,15-15V301h84.38a44.94,44.94,0,0,0,42.69-30.77L482,198.43Z" transform="translate(0 -31)"/></svg>