<svg id="Layer_1" data-name="Layer 1" xmlns="http://www.w3.org/2000/svg" viewBox="0 0 849.16 849.16"><defs><style>.cls-1,.cls-2,.cls-3{fill:#f6d671;}.cls-1{opacity:0.2;}.cls-2{opacity:0.4;}.cls-4{fill:#fff;}</style></defs><title>icon-contact</title><circle class="cls-1" cx="424.58" cy="424.58" r="424.58"/><circle class="cls-2" cx="424.58" cy="424.58" r="335.08"/><g id="Layer_2" data-name="Layer 2"><g id="Capa_1" data-name="Capa 1"><path class="cls-3" d="M-646.31,375.55c-79.2,79.2-199.8,91.6-292,37.4l-.5-.4c-36.34,27.4-75.2,32.1-102.34,27.9-9-1.4-10.9-13.6-2.7-17.6,24.8-12.2,40.4-36.4,49.5-56l-2.5-2c-83.66-94.5-80.3-239.1,10.14-329.5,93.9-94,246.2-94,340.2,0S-552.51,281.65-646.31,375.55Z" transform="translate(1241.16 219.15)"/><path class="cls-4" d="M-756.46,242.74c-7.55-7.45-17-7.45-24.46,0-5.72,5.67-11.44,11.34-17.06,17.11-1.54,1.58-2.84,1.92-4.71.86-3.7-2-7.64-3.65-11.2-5.86-16.58-10.43-30.47-23.84-42.77-38.93-6.11-7.5-11.54-15.52-15.33-24.56a3.51,3.51,0,0,1,.84-4.51c5.72-5.52,11.29-11.19,16.92-16.86,7.83-7.89,7.83-17.11,0-25-4.47-4.52-8.94-8.94-13.41-13.46s-9.18-9.28-13.84-13.84c-7.55-7.35-17-7.35-24.46,0-5.77,5.67-11.3,11.48-17.16,17.06a27.81,27.81,0,0,0-8.75,18.79c-.91,12,2,23.26,6.16,34.27,8.45,22.78,21.33,43,37,61.56A228.55,228.55,0,0,0-813,308.68c13.27,6.44,27,11.39,42,12.2,10.28.58,19.22-2,26.38-10,4.91-5.48,10.43-10.48,15.62-15.72,7.69-7.78,7.74-17.2.1-24.89Q-742.66,256.41-756.46,242.74Z" transform="translate(1241.16 219.15)"/><path class="cls-4" d="M-765.64,204.43l17.73-3a79.58,79.58,0,0,0-67.33-65.32l-2.5,17.83a61.53,61.53,0,0,1,52.1,50.51Z" transform="translate(1241.16 219.15)"/><path class="cls-4" d="M-737.91,127.35a130.69,130.69,0,0,0-75-37.39l-2.5,17.83a114.1,114.1,0,0,1,96.55,93.57l17.73-3A131.75,131.75,0,0,0-737.91,127.35Z" transform="translate(1241.16 219.15)"/></g></g></svg>