<?xml version="1.0" encoding="utf-8"?>
<!-- Generator: Adobe Illustrator 22.1.0, SVG Export Plug-In . SVG Version: 6.00 Build 0)  -->
<svg version="1.1" id="Layer_1" xmlns="http://www.w3.org/2000/svg" xmlns:xlink="http://www.w3.org/1999/xlink" x="0px" y="0px"
	 viewBox="0 0 849.2 849.2" style="enable-background:new 0 0 849.2 849.2;" xml:space="preserve">
<style type="text/css">
	.st0{opacity:0.2;fill:#F2B03D;enable-background:new    ;}
	.st1{opacity:0.4;fill:#F2B03D;enable-background:new    ;}
	.st2{fill:#F2B03D;}
	.st3{fill:#FFFFFF;}
</style>
<title>icon-contact</title>
<g>
	<circle class="st0" cx="424.6" cy="424.6" r="424.6"/>
	<circle class="st1" cx="424.6" cy="424.6" r="335.1"/>
	<path class="st2" d="M594.9,594.7c-79.2,79.2-199.8,91.6-292,37.4l-0.5-0.4c-36.3,27.4-75.2,32.1-102.3,27.9
		c-9-1.4-10.9-13.6-2.7-17.6c24.8-12.2,40.4-36.4,49.5-56l-2.5-2c-83.7-94.5-80.3-239.1,10.1-329.5c93.9-94,246.2-94,340.2,0
		S688.7,500.8,594.9,594.7z"/>
	<path class="st3" d="M484.7,461.9c-7.5-7.5-17-7.5-24.5,0c-5.7,5.7-11.4,11.3-17.1,17.1c-1.5,1.6-2.8,1.9-4.7,0.9
		c-3.7-2-7.6-3.6-11.2-5.9c-16.6-10.4-30.5-23.8-42.8-38.9c-6.1-7.5-11.5-15.5-15.3-24.6c-0.9-1.5-0.5-3.4,0.8-4.5
		c5.7-5.5,11.3-11.2,16.9-16.9c7.8-7.9,7.8-17.1,0-25c-4.5-4.5-8.9-8.9-13.4-13.5c-4.5-4.5-9.2-9.3-13.8-13.8
		c-7.5-7.3-17-7.3-24.5,0c-5.8,5.7-11.3,11.5-17.2,17.1c-5.2,4.9-8.4,11.6-8.8,18.8c-0.9,12,2,23.3,6.2,34.3
		c8.5,22.8,21.3,43,37,61.6c20.7,24.9,46.5,45.1,75.7,59.3c13.3,6.4,27,11.4,42,12.2c10.3,0.6,19.2-2,26.4-10
		c4.9-5.5,10.4-10.5,15.6-15.7c7.7-7.8,7.7-17.2,0.1-24.9C503.1,480.2,493.9,471,484.7,461.9z"/>
	<path class="st3" d="M475.5,423.6l17.7-3c-5.9-34.1-33.1-60.5-67.3-65.3l-2.5,17.8C449.9,376.8,471,397.2,475.5,423.6L475.5,423.6z
		"/>
	<path class="st3" d="M503.3,346.5c-20.2-20.4-46.6-33.5-75-37.4l-2.5,17.8c49.1,6.9,88.1,44.7,96.5,93.6l17.7-3
		C535.4,390.6,522.6,365.8,503.3,346.5z"/>
</g>
</svg>
