<svg id="Layer_1" data-name="Layer 1" xmlns="http://www.w3.org/2000/svg" viewBox="0 0 512 512"><defs><style>.cls-1{fill:#222;}</style></defs><title>icon-education</title><path class="cls-1" d="M482,333.58v-206l20.25-7.56A15,15,0,0,0,502.3,92L261.3,1a15,15,0,0,0-10.6,0L9.7,92a15,15,0,0,0,.05,28.08L91,150.39V259.75a15,15,0,0,0,9.43,13.93,417,417,0,0,0,155.57,30,417,417,0,0,0,155.57-30A15,15,0,0,0,421,259.75V150.39l31-11.57V333.58A45,45,0,0,0,433.5,406,44.82,44.82,0,0,0,422,436v61a15,15,0,0,0,15,15h60a15,15,0,0,0,15-15V436a44.82,44.82,0,0,0-11.5-30A45,45,0,0,0,482,333.58ZM256,31l198.33,74.88L256,180,57.67,105.92ZM391,249.46a387,387,0,0,1-270,0V161.6l129.75,48.45a14.94,14.94,0,0,0,10.5,0L391,161.6ZM467,361a15,15,0,1,1-15,15A15,15,0,0,1,467,361Zm15,121H452V436a15,15,0,0,1,30,0Z" transform="translate(0 0)"/><path class="cls-1" d="M271,106a15,15,0,1,1-15-15A15,15,0,0,1,271,106Z" transform="translate(0 0)"/></svg>