<svg xmlns="http://www.w3.org/2000/svg" viewBox="0 0 313.64 128.22"><defs><style>.cls-1{isolation:isolate;}</style></defs><title>myLogo</title><g id="Layer_2" data-name="Layer 2"><g id="Layer_1-2" data-name="Layer 1"><g class="cls-1"><path d="M69,117.42q-10.9,10.8-29.79,10.8-23.61,0-39.23-19.07L11.44,91A51.18,51.18,0,0,0,25,101.43a29.4,29.4,0,0,0,13.53,3.73q8,0,12.44-4.82t4.45-13.71v-65H11.62V0H79.91V87.18Q79.91,106.6,69,117.42Z"/></g><path d="M285.86,0,244.44,81.19l11.1,25.31L291.31,36v91.17h22.33V0Z"/><path d="M133.12.47,77.36,127.6H101L155.36.47Z"/><path d="M177.36.47,231.72,127.6h23.64L199.6.47Z"/><path d="M177.93,27.2,166.74,1.34l-.38-.87h-.13l-2.36,5.8-9,22.07-3.09,7-19.5,44.47-9.13,21-11.79,26.88H135l11.49-26.88H184l11.26,26.88h26.15ZM155.42,79.84,163,62.23l2.54-5.94,9.77,23.55Z"/></g></g></svg>