<?xml version="1.0" encoding="utf-8"?>
<!-- Generator: Adobe Illustrator 22.1.0, SVG Export Plug-In . SVG Version: 6.00 Build 0)  -->
<svg version="1.1" id="Layer_1" xmlns="http://www.w3.org/2000/svg" xmlns:xlink="http://www.w3.org/1999/xlink" x="0px" y="0px"
	 viewBox="0 0 313.6 128.2" style="enable-background:new 0 0 313.6 128.2;" xml:space="preserve">
<style type="text/css">
	.st0{fill:#333333;}
</style>
<title>myLogo</title>
<g id="Layer_2_1_">
	<g id="Layer_1-2">
		<g>
			<path class="st0" d="M69,117.4c-7.3,7.2-17.2,10.8-29.8,10.8c-15.7,0-28.8-6.4-39.2-19.1L11.4,91c3.9,4.2,8.5,7.7,13.6,10.4
				c4.1,2.3,8.8,3.6,13.5,3.7c5.3,0,9.5-1.6,12.4-4.8s4.4-7.8,4.5-13.7v-65H11.6V0h68.3v87.2C79.9,100.1,76.3,110.2,69,117.4z"/>
		</g>
		<path class="st0" d="M285.9,0l-41.4,81.2l11.1,25.3L291.3,36v91.2h22.3V0H285.9z"/>
		<path class="st0" d="M133.1,0.5L77.4,127.6H101L155.4,0.5H133.1z"/>
		<path class="st0" d="M177.4,0.5l54.4,127.1h23.6L199.6,0.5H177.4z"/>
		<path class="st0" d="M177.9,27.2L166.7,1.3l-0.4-0.9h-0.1l-2.4,5.8l-9,22.1l-3.1,7l-19.5,44.5l-9.1,21l-11.8,26.9H135l11.5-26.9
			H184l11.3,26.9h26.1L177.9,27.2z M155.4,79.8l7.6-17.6l2.5-5.9l9.8,23.5H155.4z"/>
	</g>
</g>
</svg>
