<svg id="Layer_1" data-name="Layer 1" xmlns="http://www.w3.org/2000/svg" viewBox="0 0 313.66 128.22"><defs><style>.cls-1{fill:#fff;}</style></defs><title>myLogo-white</title><g id="Layer_2" data-name="Layer 2"><g id="Layer_1-2" data-name="Layer 1-2"><path class="cls-1" d="M-160,312.42q-10.91,10.8-29.79,10.8-23.61,0-39.23-19.07L-217.56,286A51.22,51.22,0,0,0-204,296.43a29.34,29.34,0,0,0,13.53,3.73q8,0,12.44-4.82t4.45-13.71v-65h-43.8V195h68.29v87.18Q-149.09,301.61-160,312.42Z" transform="translate(229.02 -195)"/><path class="cls-1" d="M56.86,195,15.44,276.19l11.1,25.31L62.31,231v91.17H84.64V195Z" transform="translate(229.02 -195)"/><path class="cls-1" d="M-95.88,195.47-151.64,322.6H-128l54.36-127.13Z" transform="translate(229.02 -195)"/><path class="cls-1" d="M-51.64,195.47,2.72,322.6H26.36L-29.4,195.47Z" transform="translate(229.02 -195)"/><path class="cls-1" d="M-51.07,222.2l-11.19-25.86-.38-.87h-.13l-2.36,5.8-9,22.07-3.09,7-19.5,44.47-9.13,21-11.79,26.88H-94l11.49-26.88H-45l11.26,26.88H-7.59Zm-22.51,52.64L-66,257.23l2.54-5.94,9.77,23.55Z" transform="translate(229.02 -195)"/></g></g></svg>