<svg xmlns="http://www.w3.org/2000/svg" viewBox="0 0 725.38 216.82"><defs><style>.cls-1{fill:#222;}</style></defs><title>shape-wave-1</title><g id="Layer_2" data-name="Layer 2"><g id="Layer_1-2" data-name="Layer 1"><g id="Layer_2-2" data-name="Layer 2"><g id="BACKGROUND_1" data-name="BACKGROUND 1"><path class="cls-1" d="M721.39,64.41a12.91,12.91,0,0,1-18.25-.31L679.35,40.31a12.83,12.83,0,0,0-18.1.15L628.34,73.38l-.05.05a12.92,12.92,0,0,1-18.26-.1L577.12,40.41a13,13,0,0,0-18.31.05L525.9,73.38h0a12.9,12.9,0,0,1-18.25,0L474.73,40.46a13,13,0,0,0-18.36,0L423.46,73.38a12.9,12.9,0,0,1-18.25,0L372.29,40.46a13,13,0,0,0-18.3-.05L321.07,73.33l-.05,0a12.9,12.9,0,0,1-18.25,0L269.85,40.46a12.82,12.82,0,0,0-18.09-.15l-24.06,24,0,0a12.9,12.9,0,0,1-18.25-.1h0a12.92,12.92,0,0,1,0-18.26l42.2-42.2a13,13,0,0,1,18.25,0l33.07,33.08a13,13,0,0,0,18.15-.11L354,3.91l.05-.06a12.9,12.9,0,0,1,18.25,0l32.92,32.92.05,0a12.9,12.9,0,0,0,18.25,0L456.43,3.91l.1-.11a12.84,12.84,0,0,1,18.15.11l32.91,32.91.06.06a12.9,12.9,0,0,0,18.25-.11L558.81,3.85l.06-.05a12.9,12.9,0,0,1,18.25.11L610,36.82a13,13,0,0,0,18,0L661.15,3.75a13,13,0,0,1,18.25,0L721.6,46a12.9,12.9,0,0,1,0,18.25h0Z"/></g></g><g id="Layer_2-3" data-name="Layer 2"><g id="BACKGROUND_1-2" data-name="BACKGROUND 1"><path class="cls-1" d="M437.61,206a11,11,0,0,1-15.48-.27l-20.19-20.19a10.89,10.89,0,0,0-15.35.14l-27.93,27.92,0,0a11,11,0,0,1-15.49-.09L315.2,185.64a11,11,0,0,0-15.53.05l-27.93,27.92h0a10.94,10.94,0,0,1-15.48,0l-27.93-27.92a11,11,0,0,0-15.57,0l-27.93,27.92a11,11,0,0,1-15.49,0l-27.93-27.92a11,11,0,0,0-15.53-.05L98,213.57l0,0a10.94,10.94,0,0,1-15.48,0L54.5,185.69a10.89,10.89,0,0,0-15.35-.14L18.74,206l0,0a11,11,0,0,1-15.48-.09h0a11,11,0,0,1,0-15.49L39,154.62a11,11,0,0,1,15.49,0l28.06,28.07A11,11,0,0,0,98,182.6l27.92-27.93.05,0a11,11,0,0,1,15.48,0l27.93,27.93,0,0a11,11,0,0,0,15.48,0l27.93-27.93.09-.09a10.89,10.89,0,0,1,15.4.09l27.92,27.93.05,0a11,11,0,0,0,15.48-.09l27.93-27.93.05,0a11,11,0,0,1,15.48.09l27.93,27.93a11,11,0,0,0,15.31,0l28.06-28.06a11,11,0,0,1,15.49,0l35.8,35.8a11,11,0,0,1,0,15.49h0Z"/></g></g></g></g></svg>