<svg id="Layer_1" data-name="Layer 1" xmlns="http://www.w3.org/2000/svg" viewBox="0 0 1519.36 1519.36"><defs><style>.cls-1{fill:#fff;}</style></defs><title>shape-circle-multiple</title><g id="Layer_2" data-name="Layer 2"><g id="Layer_1-2" data-name="Layer 1-2"><g id="Layer_2-2" data-name="Layer 2-2"><g id="BACKGROUND_1" data-name="BACKGROUND 1"><path class="cls-1" d="M759.68,1519.36C340.12,1519.36,0,1179.24,0,759.68S340.12,0,759.68,0s759.68,340.12,759.68,759.68C1518.87,1179,1179,1518.87,759.68,1519.36Zm0-1489.88c-403.34-.06-730.35,326.86-730.4,730.2s326.87,730.35,730.2,730.4,730.35-326.87,730.4-730.2v-.1c-.48-403.1-327.11-729.78-730.2-730.3Z"/><path class="cls-1" d="M759.68,1450.29c-381.41,0-690.61-309.2-690.61-690.61S378.27,69.07,759.68,69.07s690.61,309.2,690.61,690.61C1449.86,1140.91,1140.91,1449.86,759.68,1450.29Zm0-1352c-365.19,0-661.28,296-661.33,661.14s296,661.27,661.13,661.33,661.28-296,661.33-661.14v-.1c-.43-365-296.16-660.78-661.13-661.27Z"/><path class="cls-1" d="M759.68,1381.22c-343.27,0-621.54-278.27-621.54-621.54S416.41,138.14,759.68,138.14s621.54,278.27,621.54,621.54h0C1380.84,1102.79,1102.79,1380.84,759.68,1381.22Zm0-1213.7c-327-.06-592.21,265-592.26,592.06s265,592.21,592.06,592.26,592.21-265,592.26-592.06v-.1c-.38-326.85-265.21-591.68-592.06-592.16Z"/><path class="cls-1" d="M759.68,1312.15c-305.12,0-552.47-247.35-552.47-552.47S454.56,207.21,759.68,207.21s552.47,247.35,552.47,552.47C1311.82,1064.66,1064.66,1311.82,759.68,1312.15Zm0-1075.56c-288.89-.05-523.13,234.1-523.19,523s234.1,523.14,523,523.19,523.14-234.1,523.19-523v-.1C1282.35,471,1048.4,237,759.68,236.59Z"/><path class="cls-1" d="M759.68,1243.08c-267,0-483.4-216.43-483.4-483.4s216.43-483.4,483.4-483.4,483.4,216.43,483.4,483.4C1242.81,1026.54,1026.54,1242.81,759.68,1243.08Zm0-937.42c-250.75,0-454,203.27-454,454s203.27,454,454,454,454-203.27,454-454c-.25-250.66-203.36-453.73-454-454Z"/><path class="cls-1" d="M759.68,1174c-228.83,0-414.33-185.5-414.33-414.33s185.5-414.33,414.33-414.33S1174,530.85,1174,759.68C1173.74,988.39,988.39,1173.74,759.68,1174Zm0-799.28c-212.6,0-384.95,172.35-384.95,384.95s172.35,385,384.95,385,385-172.35,385-385c-.32-212.48-172.51-384.67-385-384.94Z"/><path class="cls-1" d="M759.68,1104.94c-190.68,0-345.26-154.58-345.26-345.26S569,414.42,759.68,414.42,1104.94,569,1104.94,759.68h0C1104.77,950.29,950.29,1104.77,759.68,1104.94Zm0-661.14c-174.45,0-315.88,141.43-315.88,315.88s141.43,315.88,315.88,315.88,315.88-141.43,315.88-315.88C1075.4,585.29,934.07,444,759.68,443.8Z"/><path class="cls-1" d="M759.68,1035.86c-152.53,0-276.18-123.65-276.18-276.18S607.15,483.5,759.68,483.5s276.18,123.65,276.18,276.18C1035.7,912.15,912.15,1035.7,759.68,1035.86Zm0-523c-136.31,0-246.81,110.5-246.81,246.81s110.5,246.81,246.81,246.81S1006.49,896,1006.49,759.68h0C1006.33,623.44,895.92,513,759.68,512.87Z"/><path class="cls-1" d="M759.68,966.79c-114.39,0-207.11-92.72-207.11-207.11s92.72-207.11,207.11-207.11,207.11,92.72,207.11,207.11S874,966.69,759.68,966.79Zm0-384.85A177.74,177.74,0,1,0,937.42,759.68h0A177.94,177.94,0,0,0,759.68,581.94Z"/><path class="cls-1" d="M759.68,897.72a137.55,137.55,0,1,1,.9,0Zm0-246.71A108.67,108.67,0,1,0,868.35,759.68h0A108.78,108.78,0,0,0,759.68,651Z"/></g></g></g></g></svg>