<svg xmlns="http://www.w3.org/2000/svg" viewBox="0 0 260.33 1231.24"><defs><style>.cls-1{fill:#fff;}</style></defs><title>shape-box-dotted-sm-white</title><g id="Layer_2" data-name="Layer 2"><g id="Layer_1-2" data-name="Layer 1"><g id="Layer_2-2" data-name="Layer 2"><g id="_Layer_" data-name=" Layer "><circle class="cls-1" cx="26.75" cy="1204.49" r="26.75"/><circle class="cls-1" cx="26.75" cy="1097.42" r="26.75"/><circle class="cls-1" cx="26.75" cy="990.36" r="26.75"/><circle class="cls-1" cx="26.75" cy="883.29" r="26.75"/><circle class="cls-1" cx="26.75" cy="776.22" r="26.75" transform="translate(-723.92 576.89) rotate(-73.15)"/><circle class="cls-1" cx="26.75" cy="669.15" r="26.75"/><circle class="cls-1" cx="26.75" cy="562.09" r="26.75"/><circle class="cls-1" cx="26.75" cy="455.02" r="26.75"/><circle class="cls-1" cx="26.75" cy="347.95" r="26.75"/><circle class="cls-1" cx="26.75" cy="240.88" r="26.75"/><circle class="cls-1" cx="133.82" cy="1204.49" r="26.75"/><circle class="cls-1" cx="133.82" cy="1097.42" r="26.75"/><circle class="cls-1" cx="133.82" cy="990.36" r="26.75" transform="translate(-865.19 963.81) rotate(-80.78)"/><circle class="cls-1" cx="133.82" cy="883.29" r="26.75"/><circle class="cls-1" cx="133.82" cy="776.22" r="26.75" transform="matrix(0.38, -0.92, 0.92, 0.38, -634.53, 602.8)"/><circle class="cls-1" cx="133.82" cy="669.15" r="26.75"/><circle class="cls-1" cx="133.82" cy="562.09" r="26.75"/><circle class="cls-1" cx="133.82" cy="455.02" r="26.75"/><circle class="cls-1" cx="133.82" cy="347.95" r="26.75"/><circle class="cls-1" cx="133.82" cy="240.88" r="26.75"/><circle class="cls-1" cx="26.75" cy="133.82" r="26.75"/><circle class="cls-1" cx="133.82" cy="133.82" r="26.75"/><circle class="cls-1" cx="26.75" cy="26.75" r="26.75"/><circle class="cls-1" cx="133.82" cy="26.75" r="26.75"/><circle class="cls-1" cx="233.58" cy="1204.49" r="26.75"/><circle class="cls-1" cx="233.58" cy="1097.42" r="26.75"/><circle class="cls-1" cx="233.58" cy="990.36" r="26.75"/><circle class="cls-1" cx="233.58" cy="883.29" r="26.75"/><circle class="cls-1" cx="233.58" cy="776.22" r="26.75" transform="translate(-572.8 858.8) rotate(-79.1)"/><circle class="cls-1" cx="233.58" cy="669.15" r="26.75"/><circle class="cls-1" cx="233.58" cy="562.09" r="26.75"/><circle class="cls-1" cx="233.58" cy="455.02" r="26.75"/><circle class="cls-1" cx="233.58" cy="347.95" r="26.75"/><circle class="cls-1" cx="233.58" cy="240.88" r="26.75"/><circle class="cls-1" cx="233.58" cy="133.82" r="26.75"/><circle class="cls-1" cx="233.58" cy="26.75" r="26.75"/></g></g></g></g></svg>