<svg xmlns="http://www.w3.org/2000/svg" xmlns:xlink="http://www.w3.org/1999/xlink" viewBox="0 0 498.11 739.96"><defs><style>.cls-1{isolation:isolate;}.cls-2{opacity:0.3;fill:url(#linear-gradient);}.cls-2,.cls-6,.cls-7{mix-blend-mode:multiply;}.cls-3{fill:#fff;}.cls-4{fill:none;}.cls-5{fill:#222;}.cls-6{opacity:0.5;fill:url(#linear-gradient-2);}.cls-7{opacity:0.25;fill:url(#linear-gradient-3);}</style><linearGradient id="linear-gradient" x1="238.73" y1="601.8" x2="511.99" y2="522.6" gradientUnits="userSpaceOnUse"><stop offset="0" stop-color="#222221"/><stop offset="1" stop-color="#fff"/></linearGradient><linearGradient id="linear-gradient-2" x1="435.6" y1="354.67" x2="484.45" y2="354.67" gradientUnits="userSpaceOnUse"><stop offset="0" stop-color="#222"/><stop offset="1" stop-color="#fff"/></linearGradient><linearGradient id="linear-gradient-3" x1="249.05" y1="358.95" x2="319.74" y2="358.95" gradientUnits="userSpaceOnUse"><stop offset="0" stop-color="#fff"/><stop offset="1" stop-color="#222221"/></linearGradient></defs><title>Stripe-assets-lg</title><g class="cls-1"><g id="Layer_2" data-name="Layer 2"><g id="object"><path class="cls-2" d="M423.9,403.13c1.78,26.53,2.39,86.23-1.1,112.65-3.26,24.72-10.42,49-23.33,70.45-14.19,23.59-34.67,42.51-57.9,57-26.74,16.63-56.37,29.79-87,37a228.06,228.06,0,0,1-83.25,4.27c-28-3.79-55-12.86-80.24-25.38a360.94,360.94,0,0,1-48.44-29.22q2.31,4.05,4.8,8a217.57,217.57,0,0,0,329,46.86,220.4,220.4,0,0,0,46.73-59.07c12-22.18,22-46.2,23.92-71.41,4.08-53.37-8.75-150.51-8.75-150.51Z"/><path class="cls-3" d="M435.6,296.3V0h-6.52V.57H319.15v295H219.59l-4.49.06-4.6.08-2.31.06-2.35.15a211,211,0,0,0-37.37,5.32,219.64,219.64,0,0,0-36,11.74c-2.88,1.29-5.78,2.52-8.62,3.89l-8.45,4.27-8.23,4.65c-2.72,1.59-5.36,3.32-8,5a217.63,217.63,0,0,0-75.1,83.3,216.67,216.67,0,0,0-22.32,72.1A227.28,227.28,0,0,0,.2,523.92,218.4,218.4,0,0,0,121.29,709.75,216.08,216.08,0,0,0,151.22,722a219.74,219.74,0,0,0,74.45,10.24,217.39,217.39,0,0,0,73.62-15.68,218.15,218.15,0,0,0,110.31-99,217,217,0,0,0,23.66-71.67c.41-3.13.9-6.26,1.18-9.39l.78-9.42c.14-3.2.24-6.41.33-9.62l0-1.2,0-1.07v-102h62.51V296.3Zm-123,253.8c-.56,1.35-1.11,2.71-1.63,4.08s-1.25,2.65-1.84,4-1.36,2.6-2,3.91a101.49,101.49,0,0,1-51.39,46.18,94.42,94.42,0,0,1-16.73,5.1,105.91,105.91,0,0,1-17.44,2.16,100.24,100.24,0,0,1-65.64-21.09,101.62,101.62,0,0,1-23.64-26,101.95,101.95,0,0,1-15.7-49.76,111.25,111.25,0,0,1,.75-17.71,99.81,99.81,0,0,1,10.33-33.39,99.32,99.32,0,0,1,21.18-28,104.54,104.54,0,0,1,13.87-10.87c1.25-.76,2.46-1.6,3.73-2.33s2.55-1.44,3.82-2.17,2.62-1.3,3.92-2,2.68-1.18,4-1.8A102.55,102.55,0,0,1,194.77,415a94.55,94.55,0,0,1,17.38-2.48l1.1-.09h1.15l2.32,0,2.43-.05h100V515.31l0,.53c-.06,1.42-.1,2.84-.13,4.26s-.27,2.94-.38,4.41-.4,2.91-.56,4.38A103.55,103.55,0,0,1,314,546C313.51,547.34,313.09,548.74,312.56,550.1Z"/><path class="cls-4" d="M429.08,0V.57H319.15v295H219.59l-4.49.06-4.6.08-2.31.06-2.35.15a211,211,0,0,0-37.37,5.32,219.64,219.64,0,0,0-36,11.74c-2.88,1.29-5.78,2.52-8.62,3.89l-8.45,4.27-8.23,4.65c-2.72,1.59-5.36,3.32-8,5a217.63,217.63,0,0,0-75.1,83.3,216.67,216.67,0,0,0-22.32,72.1A227.28,227.28,0,0,0,.2,523.92,218.4,218.4,0,0,0,121.29,709.75,216.08,216.08,0,0,0,151.22,722a219.74,219.74,0,0,0,74.45,10.24,217.39,217.39,0,0,0,73.62-15.68,218.15,218.15,0,0,0,110.31-99,217,217,0,0,0,23.66-71.67c.41-3.13.9-6.26,1.18-9.39l.78-9.42c.14-3.2.24-6.41.33-9.62l0-1.2,0-1.07V0ZM312.56,550.1c-.56,1.35-1.11,2.71-1.63,4.08s-1.25,2.65-1.84,4-1.36,2.6-2,3.91a101.49,101.49,0,0,1-51.39,46.18,94.42,94.42,0,0,1-16.73,5.1,105.91,105.91,0,0,1-17.44,2.16,100.24,100.24,0,0,1-65.64-21.09,101.62,101.62,0,0,1-23.64-26,101.95,101.95,0,0,1-15.7-49.76,111.25,111.25,0,0,1,.75-17.71,99.81,99.81,0,0,1,10.33-33.39,99.32,99.32,0,0,1,21.18-28,104.54,104.54,0,0,1,13.87-10.87c1.25-.76,2.46-1.6,3.73-2.33s2.55-1.44,3.82-2.17,2.62-1.3,3.92-2,2.68-1.18,4-1.8A102.55,102.55,0,0,1,194.77,415a94.55,94.55,0,0,1,17.38-2.48l1.1-.09h1.15l2.32,0,2.43-.05h100V515.31l0,.53c-.06,1.42-.1,2.84-.13,4.26s-.27,2.94-.38,4.41-.4,2.91-.56,4.38A103.55,103.55,0,0,1,314,546C313.51,547.34,313.09,548.74,312.56,550.1Z"/><path class="cls-5" d="M435.6,0V515.09l0,1.07,0,1.2c-.09,3.21-.19,6.42-.33,9.62l-.78,9.42c-.28,3.13-.77,6.26-1.18,9.39a217,217,0,0,1-23.66,71.67,218.15,218.15,0,0,1-110.31,99,217.39,217.39,0,0,1-73.62,15.68A219.74,219.74,0,0,1,151.22,722a216.08,216.08,0,0,1-29.93-12.2A218.67,218.67,0,0,1,.2,523.92a227.28,227.28,0,0,1,1.56-37.68,216.67,216.67,0,0,1,22.32-72.1,219.22,219.22,0,0,1,75.1-83.3c2.67-1.68,5.31-3.41,8-5l8.23-4.65,8.45-4.27c2.84-1.37,5.74-2.6,8.62-3.89a219.64,219.64,0,0,1,36-11.74A211,211,0,0,1,205.84,296l2.35-.15,2.31-.06,4.6-.08,4.49-.06H319.74v9.93H219.56l-4.32.06-4.41.08-2.21.05-2.25.15A200.39,200.39,0,0,0,170.7,311a207.8,207.8,0,0,0-34.31,11.2c-2.75,1.23-5.52,2.41-8.23,3.71l-8.07,4.07-7.85,4.44c-2.6,1.52-5.11,3.18-7.66,4.78a207.61,207.61,0,0,0-71.7,79.52,206.6,206.6,0,0,0-21.3,68.81,216.63,216.63,0,0,0-1.49,36A206.91,206.91,0,0,0,42.36,625.83q2.36,3.7,4.87,7.3a208.24,208.24,0,0,0,107,79.37,210,210,0,0,0,71.08,9.77,207.28,207.28,0,0,0,70.26-15,208.23,208.23,0,0,0,105.31-94.55,207.39,207.39,0,0,0,22.58-68.41c.39-3,.86-6,1.13-9l.74-9c.13-3,.23-6.1.32-9.16l0-1.14,0-1V.57h3.37V0Z"/><path class="cls-5" d="M414.29.57V515c0,.26,0,.63,0,1l0,1.08-.29,8.63-.71,8.5c-.25,2.83-.7,5.65-1.06,8.48a201.28,201.28,0,0,1-9.35,37.67,189.32,189.32,0,0,1-12,27,196.81,196.81,0,0,1-99.53,89.37,196.07,196.07,0,0,1-66.4,14.14,195.33,195.33,0,0,1-127.24-41,188.88,188.88,0,0,1-20-17.76A197.32,197.32,0,0,1,21.49,523a205,205,0,0,1,1.42-34A197.29,197.29,0,0,1,61.15,395a199.42,199.42,0,0,1,49.65-46.27c2.41-1.51,4.79-3.07,7.24-4.51l7.42-4.2,7.62-3.84c2.56-1.24,5.19-2.35,7.78-3.51a197.8,197.8,0,0,1,32.42-10.59A190.29,190.29,0,0,1,207,317.3l2.13-.13,2.09-.05,4.19-.08,4.11-.06H319.74v9.92H219.47l-3.93.06-4,.07-2,.05-2,.13a179.55,179.55,0,0,0-32,4.56,188.18,188.18,0,0,0-30.77,10.05c-2.46,1.1-5,2.15-7.39,3.33l-7.23,3.65-7.05,4c-2.33,1.37-4.59,2.86-6.87,4.29A188.79,188.79,0,0,0,90.74,377a186.73,186.73,0,0,0-58,113.17,196.3,196.3,0,0,0-1.34,32.33,185.29,185.29,0,0,0,29,91.83A187.1,187.1,0,0,0,103.73,662q4.83,3.74,9.9,7.15a186.4,186.4,0,0,0,174,18.32,186.17,186.17,0,0,0,83.06-66.29,185.85,185.85,0,0,0,31.72-80c.34-2.68.78-5.36,1-8l.67-8.08.28-8.17,0-1c0-.34,0-.69,0-1V.57Z"/><path class="cls-5" d="M393,.57V514.93c0,.57,0,1.25-.05,1.88l-.26,7.65-.63,7.59c-.22,2.52-.64,5-1,7.55a174.48,174.48,0,0,1-19,57.59,177.87,177.87,0,0,1-37.41,47.63q-4.65,4.17-9.58,8a176.92,176.92,0,0,1-41.76,24.09,175,175,0,0,1-59.18,12.6,176.88,176.88,0,0,1-43.88-4q-8.1-1.77-16-4.28A175.9,175.9,0,0,1,42.78,522a183.65,183.65,0,0,1,1.27-30.38A175.28,175.28,0,0,1,98.51,385.4a177.29,177.29,0,0,1,23.91-18.74c2.15-1.34,4.26-2.74,6.45-4l6.62-3.74,6.79-3.43c2.28-1.1,4.62-2.08,6.93-3.12a175.93,175.93,0,0,1,28.88-9.43,167.75,167.75,0,0,1,30.06-4.28l1.89-.13,1.89,0,3.76-.07,3.74,0H319.74v9.92H219.39l-3.56.06-3.57.06-1.79,0-1.79.12a158.74,158.74,0,0,0-28.35,4,166.14,166.14,0,0,0-27.24,8.9c-2.18,1-4.39,1.9-6.54,2.94l-6.41,3.23-6.24,3.53c-2.06,1.21-4.06,2.54-6.09,3.8A168.12,168.12,0,0,0,86,413.93a167,167,0,0,0-15.23,24.31,163.73,163.73,0,0,0-16.91,54.64,172.92,172.92,0,0,0-1.2,28.68,164.15,164.15,0,0,0,25.64,81.31,165.77,165.77,0,0,0,88.95,68.94,167.53,167.53,0,0,0,56.54,7.76,164.69,164.69,0,0,0,55.82-11.89,165.55,165.55,0,0,0,83.74-75.2,164.45,164.45,0,0,0,17.94-54.31c.29-2.38.69-4.75.9-7.13l.59-7.17.25-7.19c0-1.22,0-2.37,0-3.52V.57Z"/><path class="cls-5" d="M371.67.57V513.11c0,1.16,0,2.32-.05,3.42l-.22,6.67-.56,6.67c-.19,2.22-.57,4.43-.84,6.64a152.59,152.59,0,0,1-16.69,50.54,154.12,154.12,0,0,1-78,70,153.47,153.47,0,0,1-52,11.06A154.6,154.6,0,0,1,75.58,573a156.63,156.63,0,0,1-11.51-52,162.27,162.27,0,0,1,1.12-26.72,152,152,0,0,1,15.74-50.85A155,155,0,0,1,134,384.58c1.89-1.18,3.74-2.42,5.66-3.54l5.81-3.29,6-3c2-1,4.06-1.83,6.08-2.75a155.77,155.77,0,0,1,25.35-8.27A147.73,147.73,0,0,1,209.3,360l1.67-.11,1.67,0,3.35-.06,3.36-.06H319.74v9.93H219.31l-3.18.05-3.16.05-1.57,0-1.56.11a137,137,0,0,0-24.7,3.52,145.19,145.19,0,0,0-23.7,7.73c-1.89.87-3.82,1.66-5.69,2.57l-5.58,2.81-5.44,3.08c-1.8,1.05-3.53,2.21-5.3,3.3A146.86,146.86,0,0,0,103,426.84,145.08,145.08,0,0,0,89.73,448,142.22,142.22,0,0,0,75,495.58a152.6,152.6,0,0,0-1.05,25,146.88,146.88,0,0,0,10.77,48.64,143.8,143.8,0,0,0,229.11,52.28,146.7,146.7,0,0,0,30.76-39.17,142.88,142.88,0,0,0,15.61-47.28c.25-2.07.61-4.13.78-6.21l.53-6.24.21-6.22c0-.54,0-1,0-1.59V.57Z"/><path class="cls-5" d="M350.36,481.8v33c0,.31,0,.54,0,.78l0,.71-.19,5.69-.48,5.76c-.16,1.91-.5,3.81-.73,5.72a131.2,131.2,0,0,1-14.36,43.5,132.79,132.79,0,0,1-67.18,60.34,132.2,132.2,0,0,1-44.74,9.52,131.36,131.36,0,0,1-85.84-27.6,134.19,134.19,0,0,1-41.52-54.33,135.35,135.35,0,0,1-9.91-44.76,142.16,142.16,0,0,1,1-23.07,131.09,131.09,0,0,1,13.54-43.76,130.94,130.94,0,0,1,27.67-36.58,136.18,136.18,0,0,1,18.11-14.19c1.64-1,3.23-2.08,4.88-3.05l5-2.84,5.13-2.58c1.73-.83,3.5-1.56,5.24-2.36a134.22,134.22,0,0,1,21.81-7.11,125.12,125.12,0,0,1,22.74-3.24l1.43-.11,1.47,0,2.92-.05,3-.05H319.74V391H219.23l-2.81.05-2.73.05-1.37,0-1.33.1a116.09,116.09,0,0,0-21,3,123.15,123.15,0,0,0-20.17,6.58c-1.61.74-3.25,1.41-4.84,2.18l-4.76,2.39L155.56,408c-1.53.89-3,1.89-4.51,2.82A125.35,125.35,0,0,0,120,439.75a124,124,0,0,0-11.3,18.05,120.87,120.87,0,0,0-12.52,40.47,131.42,131.42,0,0,0-.9,21.37,125.71,125.71,0,0,0,2.82,21.12,122.35,122.35,0,0,0,124.21,96.1,122.09,122.09,0,0,0,41.38-8.8,122.83,122.83,0,0,0,62.18-55.85A121.43,121.43,0,0,0,339.12,532c.21-1.77.53-3.52.67-5.29l.45-5.33.17-5.24,0-.66c0-.21,0-.42,0-.73V.57h9.89Z"/><path class="cls-5" d="M329,514.68V.57h-9.89V402.45h-100l-2.61.05-2.51,0-1.25,0-1.21.09a105.45,105.45,0,0,0-19.08,2.72,112.38,112.38,0,0,0-18.27,6c-1.45.68-2.94,1.27-4.39,2s-2.86,1.46-4.31,2.17l-4.19,2.38c-1.39.81-2.72,1.72-4.1,2.56a114.15,114.15,0,0,0-28.2,26.27A111.93,111.93,0,0,0,118.82,463a109.58,109.58,0,0,0-11.35,36.68,119.69,119.69,0,0,0-.82,19.41,114.82,114.82,0,0,0,2.57,19.15,111.72,111.72,0,0,0,74.54,81.94,113.55,113.55,0,0,0,38.11,5.21A115.63,115.63,0,0,0,241,623.06a103.45,103.45,0,0,0,18.38-5.61,111.53,111.53,0,0,0,56.4-50.67,110,110,0,0,0,12-36.46c.18-1.6.48-3.19.61-4.8s.26-3.22.41-4.83L329,516l0-.59C329,515.19,329.05,515,329,514.68Zm-9.89,0v.67l0,.53c-.06,1.42-.1,2.84-.13,4.26s-.27,2.94-.38,4.41-.4,2.91-.56,4.38A103.55,103.55,0,0,1,314,546c-.5,1.38-.92,2.78-1.45,4.14s-1.11,2.71-1.63,4.08-1.25,2.65-1.84,4-1.36,2.6-2,3.91a101.49,101.49,0,0,1-51.39,46.18,94.42,94.42,0,0,1-16.73,5.1,105.91,105.91,0,0,1-17.44,2.16,100.24,100.24,0,0,1-65.64-21.09,101.62,101.62,0,0,1-23.64-26,101.95,101.95,0,0,1-15.7-49.76,111.25,111.25,0,0,1,.75-17.71,99.81,99.81,0,0,1,10.33-33.39,99.32,99.32,0,0,1,21.18-28,104.54,104.54,0,0,1,13.87-10.87c1.25-.76,2.46-1.6,3.73-2.33s2.55-1.44,3.82-2.17,2.62-1.3,3.92-2,2.68-1.18,4-1.8A102.55,102.55,0,0,1,194.77,415a94.55,94.55,0,0,1,17.38-2.48l1.1-.09h1.15l2.32,0,2.43-.05h100Z"/><rect class="cls-4" x="435.3" y="296.3" width="62.8" height="116.75"/><rect class="cls-5" x="435.3" y="296.3" width="62.8" height="9.92"/><rect class="cls-5" x="435.3" y="317.66" width="62.8" height="9.92"/><rect class="cls-5" x="435.3" y="339.03" width="62.8" height="9.92"/><rect class="cls-5" x="435.3" y="360.4" width="62.8" height="9.92"/><rect class="cls-5" x="435.3" y="381.76" width="62.8" height="9.92"/><rect class="cls-5" x="435.3" y="403.13" width="62.8" height="9.92"/><rect class="cls-6" x="435.6" y="296.3" width="48.85" height="116.75"/><rect class="cls-7" x="249.05" y="305.54" width="70.69" height="106.83"/></g></g></g></svg>