<svg xmlns="http://www.w3.org/2000/svg" viewBox="0 0 1376 2070.21"><defs><style>.cls-1{fill:#dba327;}</style></defs><title>shape-box-dotted-lg</title><g id="Layer_2" data-name="Layer 2"><g id="Layer_1-2" data-name="Layer 1"><g id="Layer_2-2" data-name="Layer 2"><g id="_Layer_" data-name=" Layer "><circle class="cls-1" cx="22.12" cy="2048.09" r="22.12"/><circle class="cls-1" cx="22.12" cy="1959.55" r="22.12"/><circle class="cls-1" cx="22.12" cy="1871" r="22.12"/><circle class="cls-1" cx="22.12" cy="1782.46" r="22.12"/><circle class="cls-1" cx="22.12" cy="1693.92" r="22.12" transform="translate(-1605.52 1224.22) rotate(-73.15)"/><circle class="cls-1" cx="22.12" cy="1605.37" r="22.12"/><circle class="cls-1" cx="22.12" cy="1516.83" r="22.12"/><circle class="cls-1" cx="22.12" cy="1428.28" r="22.12"/><circle class="cls-1" cx="22.12" cy="1339.74" r="22.12"/><circle class="cls-1" cx="22.12" cy="1251.2" r="22.12"/><circle class="cls-1" cx="22.12" cy="1162.65" r="22.12"/><circle class="cls-1" cx="22.12" cy="1074.11" r="22.12"/><circle class="cls-1" cx="110.67" cy="2048.09" r="22.12"/><circle class="cls-1" cx="110.67" cy="1959.55" r="22.12"/><circle class="cls-1" cx="110.67" cy="1871" r="22.12" transform="translate(-1753.91 1680.54) rotate(-80.78)"/><circle class="cls-1" cx="110.67" cy="1782.46" r="22.12"/><circle class="cls-1" cx="110.67" cy="1693.92" r="22.12" transform="translate(-1496.66 1147.92) rotate(-67.5)"/><circle class="cls-1" cx="110.67" cy="1605.37" r="22.12"/><circle class="cls-1" cx="110.67" cy="1516.83" r="22.12"/><circle class="cls-1" cx="110.67" cy="1428.28" r="22.12"/><circle class="cls-1" cx="110.67" cy="1339.74" r="22.12"/><circle class="cls-1" cx="110.67" cy="1251.2" r="22.12"/><circle class="cls-1" cx="110.67" cy="1162.65" r="22.12"/><circle class="cls-1" cx="110.67" cy="1074.11" r="22.12"/><circle class="cls-1" cx="199.21" cy="2048.09" r="22.12"/><circle class="cls-1" cx="199.21" cy="1959.55" r="22.12"/><circle class="cls-1" cx="199.21" cy="1871" r="22.12"/><circle class="cls-1" cx="199.21" cy="1782.46" r="22.12"/><circle class="cls-1" cx="199.21" cy="1693.92" r="22.12" transform="translate(-1501.81 1569.2) rotate(-79.1)"/><circle class="cls-1" cx="199.21" cy="1605.37" r="22.12"/><circle class="cls-1" cx="199.21" cy="1516.83" r="22.12"/><circle class="cls-1" cx="199.21" cy="1428.28" r="22.12"/><circle class="cls-1" cx="199.21" cy="1339.74" r="22.12"/><circle class="cls-1" cx="199.21" cy="1251.2" r="22.12"/><circle class="cls-1" cx="199.21" cy="1162.65" r="22.12"/><circle class="cls-1" cx="199.21" cy="1074.11" r="22.12"/><circle class="cls-1" cx="287.75" cy="2048.09" r="22.12"/><circle class="cls-1" cx="287.75" cy="1959.55" r="22.12"/><circle class="cls-1" cx="287.75" cy="1871" r="22.12"/><circle class="cls-1" cx="287.75" cy="1782.46" r="22.12"/><circle class="cls-1" cx="287.75" cy="1693.92" r="22.12" transform="matrix(0.16, -0.99, 0.99, 0.16, -1430.38, 1706.62)"/><circle class="cls-1" cx="287.75" cy="1605.37" r="22.12"/><circle class="cls-1" cx="287.75" cy="1516.83" r="22.12"/><circle class="cls-1" cx="287.75" cy="1428.28" r="22.12"/><circle class="cls-1" cx="287.75" cy="1339.74" r="22.12"/><circle class="cls-1" cx="287.75" cy="1251.2" r="22.12"/><circle class="cls-1" cx="287.75" cy="1162.65" r="22.12"/><circle class="cls-1" cx="287.75" cy="1074.11" r="22.12"/><circle class="cls-1" cx="376.3" cy="2048.09" r="22.12"/><circle class="cls-1" cx="376.3" cy="1959.55" r="22.12"/><circle class="cls-1" cx="376.3" cy="1871" r="22.12" transform="translate(-1522.68 2061.1) rotate(-84.35)"/><circle class="cls-1" cx="376.3" cy="1782.46" r="22.12"/><circle class="cls-1" cx="376.3" cy="1693.92" r="22.12"/><circle class="cls-1" cx="376.3" cy="1605.37" r="22.12"/><circle class="cls-1" cx="376.3" cy="1516.83" r="22.12"/><circle class="cls-1" cx="376.3" cy="1428.28" r="22.12"/><circle class="cls-1" cx="376.3" cy="1339.74" r="22.12"/><circle class="cls-1" cx="376.3" cy="1251.2" r="22.12"/><circle class="cls-1" cx="376.3" cy="1162.65" r="22.12"/><circle class="cls-1" cx="376.3" cy="1074.11" r="22.12"/><circle class="cls-1" cx="464.84" cy="2048.09" r="22.12"/><circle class="cls-1" cx="464.84" cy="1959.55" r="22.12"/><circle class="cls-1" cx="464.84" cy="1871" r="22.12" transform="translate(-1434.41 2202.04) rotate(-85.93)"/><circle class="cls-1" cx="464.84" cy="1782.46" r="22.12"/><circle class="cls-1" cx="464.84" cy="1693.92" r="22.12" transform="translate(-612.85 306.83) rotate(-22.5)"/><circle class="cls-1" cx="464.84" cy="1605.37" r="22.12"/><circle class="cls-1" cx="464.84" cy="1516.83" r="22.12"/><circle class="cls-1" cx="464.84" cy="1428.28" r="22.12"/><circle class="cls-1" cx="464.84" cy="1339.74" r="22.12"/><circle class="cls-1" cx="464.84" cy="1251.2" r="22.12"/><circle class="cls-1" cx="464.84" cy="1162.65" r="22.12"/><circle class="cls-1" cx="464.84" cy="1074.11" r="22.12"/><circle class="cls-1" cx="641.93" cy="2048.09" r="22.12"/><circle class="cls-1" cx="641.93" cy="1959.55" r="22.12"/><circle class="cls-1" cx="641.93" cy="1871" r="22.12" transform="matrix(0.07, -1, 1, 0.07, -1269.87, 2378.68)"/><circle class="cls-1" cx="641.93" cy="1782.46" r="22.12"/><circle class="cls-1" cx="641.93" cy="1693.92" r="22.12" transform="translate(-599.37 374.6) rotate(-22.5)"/><circle class="cls-1" cx="641.93" cy="1605.37" r="22.12"/><circle class="cls-1" cx="641.93" cy="1516.83" r="22.12"/><circle class="cls-1" cx="641.93" cy="1428.28" r="22.12"/><circle class="cls-1" cx="641.93" cy="1339.74" r="22.12"/><circle class="cls-1" cx="641.93" cy="1251.2" r="22.12"/><circle class="cls-1" cx="641.93" cy="1162.65" r="22.12"/><circle class="cls-1" cx="641.93" cy="1074.11" r="22.12"/><circle class="cls-1" cx="553.38" cy="2048.09" r="22.12"/><circle class="cls-1" cx="553.38" cy="1959.55" r="22.12"/><circle class="cls-1" cx="553.38" cy="1871" r="22.12" transform="translate(-1352.14 2290.36) rotate(-85.93)"/><circle class="cls-1" cx="553.38" cy="1782.46" r="22.12"/><circle class="cls-1" cx="553.38" cy="1693.92" r="22.12" transform="translate(-606.11 340.71) rotate(-22.5)"/><circle class="cls-1" cx="553.38" cy="1605.37" r="22.12"/><circle class="cls-1" cx="553.38" cy="1516.83" r="22.12"/><circle class="cls-1" cx="553.38" cy="1428.28" r="22.12"/><circle class="cls-1" cx="553.38" cy="1339.74" r="22.12"/><circle class="cls-1" cx="553.38" cy="1251.2" r="22.12"/><circle class="cls-1" cx="553.38" cy="1162.65" r="22.12"/><circle class="cls-1" cx="553.38" cy="1074.11" r="22.12"/><circle class="cls-1" cx="22.12" cy="996.1" r="22.12"/><circle class="cls-1" cx="22.12" cy="907.56" r="22.12"/><circle class="cls-1" cx="22.12" cy="819.02" r="22.12"/><circle class="cls-1" cx="22.12" cy="730.47" r="22.12"/><circle class="cls-1" cx="22.12" cy="641.93" r="22.12"/><circle class="cls-1" cx="22.12" cy="553.38" r="22.12"/><circle class="cls-1" cx="22.12" cy="464.84" r="22.12"/><circle class="cls-1" cx="22.12" cy="376.3" r="22.12"/><circle class="cls-1" cx="22.12" cy="287.75" r="22.12"/><circle class="cls-1" cx="22.12" cy="199.21" r="22.12"/><circle class="cls-1" cx="22.12" cy="110.67" r="22.12"/><circle class="cls-1" cx="22.12" cy="22.12" r="22.12"/><circle class="cls-1" cx="110.67" cy="996.1" r="22.12"/><circle class="cls-1" cx="110.67" cy="907.56" r="22.12"/><circle class="cls-1" cx="110.67" cy="819.02" r="22.12"/><circle class="cls-1" cx="110.67" cy="730.47" r="22.12"/><circle class="cls-1" cx="110.67" cy="641.93" r="22.12"/><circle class="cls-1" cx="110.67" cy="553.38" r="22.12"/><circle class="cls-1" cx="110.67" cy="464.84" r="22.12"/><circle class="cls-1" cx="110.67" cy="376.3" r="22.12"/><circle class="cls-1" cx="110.67" cy="287.75" r="22.12"/><circle class="cls-1" cx="110.67" cy="199.21" r="22.12"/><circle class="cls-1" cx="110.67" cy="110.67" r="22.12"/><circle class="cls-1" cx="110.67" cy="22.12" r="22.12"/><circle class="cls-1" cx="199.21" cy="996.1" r="22.12"/><circle class="cls-1" cx="199.21" cy="907.56" r="22.12"/><circle class="cls-1" cx="199.21" cy="819.02" r="22.12"/><circle class="cls-1" cx="199.21" cy="730.47" r="22.12"/><circle class="cls-1" cx="199.21" cy="641.93" r="22.12"/><circle class="cls-1" cx="199.21" cy="553.38" r="22.12"/><circle class="cls-1" cx="199.21" cy="464.84" r="22.12"/><circle class="cls-1" cx="199.21" cy="376.3" r="22.12"/><circle class="cls-1" cx="199.21" cy="287.75" r="22.12"/><circle class="cls-1" cx="199.21" cy="199.21" r="22.12"/><circle class="cls-1" cx="199.21" cy="110.67" r="22.12"/><circle class="cls-1" cx="199.21" cy="22.12" r="22.12"/><circle class="cls-1" cx="287.75" cy="996.1" r="22.12"/><circle class="cls-1" cx="287.75" cy="907.56" r="22.12"/><circle class="cls-1" cx="287.75" cy="819.02" r="22.12"/><circle class="cls-1" cx="287.75" cy="730.47" r="22.12"/><circle class="cls-1" cx="287.75" cy="641.93" r="22.12"/><circle class="cls-1" cx="287.75" cy="553.38" r="22.12"/><circle class="cls-1" cx="287.75" cy="464.84" r="22.12"/><circle class="cls-1" cx="287.75" cy="376.3" r="22.12"/><circle class="cls-1" cx="287.75" cy="287.75" r="22.12"/><circle class="cls-1" cx="287.75" cy="199.21" r="22.12"/><circle class="cls-1" cx="287.75" cy="110.67" r="22.12"/><circle class="cls-1" cx="287.75" cy="22.12" r="22.12"/><circle class="cls-1" cx="376.3" cy="996.1" r="22.12"/><circle class="cls-1" cx="376.3" cy="907.56" r="22.12"/><circle class="cls-1" cx="376.3" cy="819.02" r="22.12"/><circle class="cls-1" cx="376.3" cy="730.47" r="22.12"/><circle class="cls-1" cx="376.3" cy="641.93" r="22.12"/><circle class="cls-1" cx="376.3" cy="553.38" r="22.12"/><circle class="cls-1" cx="376.3" cy="464.84" r="22.12"/><circle class="cls-1" cx="376.3" cy="376.3" r="22.12"/><circle class="cls-1" cx="376.3" cy="287.75" r="22.12"/><circle class="cls-1" cx="376.3" cy="199.21" r="22.12"/><circle class="cls-1" cx="376.3" cy="110.67" r="22.12"/><circle class="cls-1" cx="376.3" cy="22.12" r="22.12"/><circle class="cls-1" cx="464.84" cy="996.1" r="22.12"/><circle class="cls-1" cx="464.84" cy="907.56" r="22.12"/><circle class="cls-1" cx="464.84" cy="819.02" r="22.12"/><circle class="cls-1" cx="464.84" cy="730.47" r="22.12"/><circle class="cls-1" cx="464.84" cy="641.93" r="22.12"/><circle class="cls-1" cx="464.84" cy="553.38" r="22.12"/><circle class="cls-1" cx="464.84" cy="464.84" r="22.12"/><circle class="cls-1" cx="464.84" cy="376.3" r="22.12"/><circle class="cls-1" cx="464.84" cy="287.75" r="22.12"/><circle class="cls-1" cx="464.84" cy="199.21" r="22.12"/><circle class="cls-1" cx="464.84" cy="110.67" r="22.12"/><circle class="cls-1" cx="464.84" cy="22.12" r="22.12"/><circle class="cls-1" cx="641.93" cy="996.1" r="22.12"/><circle class="cls-1" cx="641.93" cy="907.56" r="22.12"/><circle class="cls-1" cx="641.93" cy="819.02" r="22.12"/><circle class="cls-1" cx="641.93" cy="730.47" r="22.12"/><circle class="cls-1" cx="641.93" cy="641.93" r="22.12"/><circle class="cls-1" cx="641.93" cy="553.38" r="22.12"/><circle class="cls-1" cx="641.93" cy="464.84" r="22.12"/><circle class="cls-1" cx="641.93" cy="376.3" r="22.12"/><circle class="cls-1" cx="641.93" cy="287.75" r="22.12"/><circle class="cls-1" cx="641.93" cy="199.21" r="22.12"/><circle class="cls-1" cx="641.93" cy="110.67" r="22.12"/><circle class="cls-1" cx="641.93" cy="22.12" r="22.12"/><circle class="cls-1" cx="553.38" cy="996.1" r="22.12"/><circle class="cls-1" cx="553.38" cy="907.56" r="22.12"/><circle class="cls-1" cx="553.38" cy="819.02" r="22.12"/><circle class="cls-1" cx="553.38" cy="730.47" r="22.12"/><circle class="cls-1" cx="553.38" cy="641.93" r="22.12"/><circle class="cls-1" cx="553.38" cy="553.38" r="22.12"/><circle class="cls-1" cx="553.38" cy="464.84" r="22.12"/><circle class="cls-1" cx="553.38" cy="376.3" r="22.12"/><circle class="cls-1" cx="553.38" cy="287.75" r="22.12"/><circle class="cls-1" cx="553.38" cy="199.21" r="22.12"/><circle class="cls-1" cx="553.38" cy="110.67" r="22.12"/><circle class="cls-1" cx="553.38" cy="22.12" r="22.12"/><circle class="cls-1" cx="734.07" cy="2048.09" r="22.12"/><circle class="cls-1" cx="734.07" cy="1959.55" r="22.12"/><circle class="cls-1" cx="734.07" cy="1871" r="22.12" transform="translate(-1184.26 2470.6) rotate(-85.93)"/><circle class="cls-1" cx="734.07" cy="1782.46" r="22.12"/><circle class="cls-1" cx="734.07" cy="1693.92" r="22.12" transform="translate(-592.36 409.86) rotate(-22.5)"/><circle class="cls-1" cx="734.07" cy="1605.37" r="22.12"/><circle class="cls-1" cx="734.07" cy="1516.83" r="22.12"/><circle class="cls-1" cx="734.07" cy="1428.28" r="22.12"/><circle class="cls-1" cx="734.07" cy="1339.74" r="22.12"/><circle class="cls-1" cx="734.07" cy="1251.2" r="22.12"/><circle class="cls-1" cx="734.07" cy="1162.65" r="22.12"/><circle class="cls-1" cx="734.07" cy="1074.11" r="22.12"/><circle class="cls-1" cx="822.62" cy="2048.09" r="22.12"/><circle class="cls-1" cx="822.62" cy="1959.55" r="22.12"/><circle class="cls-1" cx="822.62" cy="1871" r="22.12" transform="translate(-1102 2558.92) rotate(-85.93)"/><circle class="cls-1" cx="822.62" cy="1782.46" r="22.12"/><circle class="cls-1" cx="822.62" cy="1693.92" r="22.12" transform="translate(-585.62 443.74) rotate(-22.5)"/><circle class="cls-1" cx="822.62" cy="1605.37" r="22.12"/><circle class="cls-1" cx="822.62" cy="1516.83" r="22.12"/><circle class="cls-1" cx="822.62" cy="1428.28" r="22.12"/><circle class="cls-1" cx="822.62" cy="1339.74" r="22.12"/><circle class="cls-1" cx="822.62" cy="1251.2" r="22.12"/><circle class="cls-1" cx="822.62" cy="1162.65" r="22.12"/><circle class="cls-1" cx="822.62" cy="1074.11" r="22.12"/><circle class="cls-1" cx="911.16" cy="2048.09" r="22.12"/><circle class="cls-1" cx="911.16" cy="1959.55" r="22.12"/><circle class="cls-1" cx="911.16" cy="1871" r="22.12" transform="translate(-1019.73 2647.24) rotate(-85.93)"/><circle class="cls-1" cx="911.16" cy="1782.46" r="22.12"/><circle class="cls-1" cx="911.16" cy="1693.92" r="22.12" transform="translate(-578.88 477.63) rotate(-22.5)"/><circle class="cls-1" cx="911.16" cy="1605.37" r="22.12"/><circle class="cls-1" cx="911.16" cy="1516.83" r="22.12"/><circle class="cls-1" cx="911.16" cy="1428.28" r="22.12"/><circle class="cls-1" cx="911.16" cy="1339.74" r="22.12"/><circle class="cls-1" cx="911.16" cy="1251.2" r="22.12"/><circle class="cls-1" cx="911.16" cy="1162.65" r="22.12"/><circle class="cls-1" cx="911.16" cy="1074.11" r="22.12"/><circle class="cls-1" cx="999.7" cy="2048.09" r="22.12"/><circle class="cls-1" cx="999.7" cy="1959.55" r="22.12"/><circle class="cls-1" cx="999.7" cy="1871" r="22.12" transform="translate(-937.46 2735.56) rotate(-85.93)"/><circle class="cls-1" cx="999.7" cy="1782.46" r="22.12"/><circle class="cls-1" cx="999.7" cy="1693.92" r="22.12" transform="translate(-572.14 511.51) rotate(-22.5)"/><circle class="cls-1" cx="999.7" cy="1605.37" r="22.12"/><circle class="cls-1" cx="999.7" cy="1516.83" r="22.12"/><circle class="cls-1" cx="999.7" cy="1428.28" r="22.12"/><circle class="cls-1" cx="999.7" cy="1339.74" r="22.12"/><circle class="cls-1" cx="999.7" cy="1251.2" r="22.12"/><circle class="cls-1" cx="999.7" cy="1162.65" r="22.12"/><circle class="cls-1" cx="999.7" cy="1074.11" r="22.12"/><circle class="cls-1" cx="1088.25" cy="2048.09" r="22.12"/><circle class="cls-1" cx="1088.25" cy="1959.55" r="22.12"/><circle class="cls-1" cx="1088.25" cy="1871" r="22.12" transform="translate(-855.19 2823.88) rotate(-85.93)"/><circle class="cls-1" cx="1088.25" cy="1782.46" r="22.12"/><circle class="cls-1" cx="1088.25" cy="1693.92" r="22.12" transform="translate(-565.4 545.4) rotate(-22.5)"/><circle class="cls-1" cx="1088.25" cy="1605.37" r="22.12"/><circle class="cls-1" cx="1088.25" cy="1516.83" r="22.12"/><circle class="cls-1" cx="1088.25" cy="1428.28" r="22.12"/><circle class="cls-1" cx="1088.25" cy="1339.74" r="22.12"/><circle class="cls-1" cx="1088.25" cy="1251.2" r="22.12"/><circle class="cls-1" cx="1088.25" cy="1162.65" r="22.12"/><circle class="cls-1" cx="1088.25" cy="1074.11" r="22.12"/><circle class="cls-1" cx="1176.79" cy="2048.09" r="22.12"/><circle class="cls-1" cx="1176.79" cy="1959.55" r="22.12"/><circle class="cls-1" cx="1176.79" cy="1871" r="22.12" transform="translate(-772.93 2912.2) rotate(-85.93)"/><circle class="cls-1" cx="1176.79" cy="1782.46" r="22.12"/><circle class="cls-1" cx="1176.79" cy="1693.92" r="22.12" transform="translate(-558.66 579.28) rotate(-22.5)"/><circle class="cls-1" cx="1176.79" cy="1605.37" r="22.12"/><circle class="cls-1" cx="1176.79" cy="1516.83" r="22.12"/><circle class="cls-1" cx="1176.79" cy="1428.28" r="22.12"/><circle class="cls-1" cx="1176.79" cy="1339.74" r="22.12"/><circle class="cls-1" cx="1176.79" cy="1251.2" r="22.12"/><circle class="cls-1" cx="1176.79" cy="1162.65" r="22.12"/><circle class="cls-1" cx="1176.79" cy="1074.11" r="22.12"/><circle class="cls-1" cx="1353.88" cy="2048.09" r="22.12"/><circle class="cls-1" cx="1353.88" cy="1959.55" r="22.12"/><circle class="cls-1" cx="1353.88" cy="1871" r="22.12" transform="translate(-608.39 3088.84) rotate(-85.93)"/><circle class="cls-1" cx="1353.88" cy="1782.46" r="22.12"/><circle class="cls-1" cx="1353.88" cy="1693.92" r="22.12" transform="translate(-545.18 647.05) rotate(-22.5)"/><circle class="cls-1" cx="1353.88" cy="1605.37" r="22.12"/><circle class="cls-1" cx="1353.88" cy="1516.83" r="22.12"/><circle class="cls-1" cx="1353.88" cy="1428.28" r="22.12"/><circle class="cls-1" cx="1353.88" cy="1339.74" r="22.12"/><circle class="cls-1" cx="1353.88" cy="1251.2" r="22.12"/><circle class="cls-1" cx="1353.88" cy="1162.65" r="22.12"/><circle class="cls-1" cx="1353.88" cy="1074.11" r="22.12"/><circle class="cls-1" cx="1265.33" cy="2048.09" r="22.12"/><circle class="cls-1" cx="1265.33" cy="1959.55" r="22.12"/><circle class="cls-1" cx="1265.33" cy="1871" r="22.12" transform="translate(-690.66 3000.52) rotate(-85.93)"/><circle class="cls-1" cx="1265.33" cy="1782.46" r="22.12"/><circle class="cls-1" cx="1265.33" cy="1693.92" r="22.12" transform="translate(-551.92 613.16) rotate(-22.5)"/><circle class="cls-1" cx="1265.33" cy="1605.37" r="22.12"/><circle class="cls-1" cx="1265.33" cy="1516.83" r="22.12"/><circle class="cls-1" cx="1265.33" cy="1428.28" r="22.12"/><circle class="cls-1" cx="1265.33" cy="1339.74" r="22.12"/><circle class="cls-1" cx="1265.33" cy="1251.2" r="22.12"/><circle class="cls-1" cx="1265.33" cy="1162.65" r="22.12"/><circle class="cls-1" cx="1265.33" cy="1074.11" r="22.12"/><circle class="cls-1" cx="734.07" cy="996.1" r="22.12"/><circle class="cls-1" cx="734.07" cy="907.56" r="22.12"/><circle class="cls-1" cx="734.07" cy="819.02" r="22.12"/><circle class="cls-1" cx="734.07" cy="730.47" r="22.12"/><circle class="cls-1" cx="734.07" cy="641.93" r="22.12"/><circle class="cls-1" cx="734.07" cy="553.38" r="22.12"/><circle class="cls-1" cx="734.07" cy="464.84" r="22.12"/><circle class="cls-1" cx="734.07" cy="376.3" r="22.12"/><circle class="cls-1" cx="734.07" cy="287.75" r="22.12"/><circle class="cls-1" cx="734.07" cy="199.21" r="22.12"/><circle class="cls-1" cx="734.07" cy="110.67" r="22.12"/><circle class="cls-1" cx="734.07" cy="22.12" r="22.12"/><circle class="cls-1" cx="822.62" cy="996.1" r="22.12"/><circle class="cls-1" cx="822.62" cy="907.56" r="22.12"/><circle class="cls-1" cx="822.62" cy="819.02" r="22.12"/><circle class="cls-1" cx="822.62" cy="730.47" r="22.12"/><circle class="cls-1" cx="822.62" cy="641.93" r="22.12"/><circle class="cls-1" cx="822.62" cy="553.38" r="22.12"/><circle class="cls-1" cx="822.62" cy="464.84" r="22.12"/><circle class="cls-1" cx="822.62" cy="376.3" r="22.12"/><circle class="cls-1" cx="822.62" cy="287.75" r="22.12"/><circle class="cls-1" cx="822.62" cy="199.21" r="22.12"/><circle class="cls-1" cx="822.62" cy="110.67" r="22.12"/><circle class="cls-1" cx="822.62" cy="22.12" r="22.12"/><circle class="cls-1" cx="911.16" cy="996.1" r="22.12"/><circle class="cls-1" cx="911.16" cy="907.56" r="22.12"/><circle class="cls-1" cx="911.16" cy="819.02" r="22.12"/><circle class="cls-1" cx="911.16" cy="730.47" r="22.12"/><circle class="cls-1" cx="911.16" cy="641.93" r="22.12"/><circle class="cls-1" cx="911.16" cy="553.38" r="22.12"/><circle class="cls-1" cx="911.16" cy="464.84" r="22.12"/><circle class="cls-1" cx="911.16" cy="376.3" r="22.12"/><circle class="cls-1" cx="911.16" cy="287.75" r="22.12"/><circle class="cls-1" cx="911.16" cy="199.21" r="22.12"/><circle class="cls-1" cx="911.16" cy="110.67" r="22.12"/><circle class="cls-1" cx="911.16" cy="22.12" r="22.12"/><circle class="cls-1" cx="999.7" cy="996.1" r="22.12"/><circle class="cls-1" cx="999.7" cy="907.56" r="22.12"/><circle class="cls-1" cx="999.7" cy="819.02" r="22.12"/><circle class="cls-1" cx="999.7" cy="730.47" r="22.12"/><circle class="cls-1" cx="999.7" cy="641.93" r="22.12"/><circle class="cls-1" cx="999.7" cy="553.38" r="22.12"/><circle class="cls-1" cx="999.7" cy="464.84" r="22.12"/><circle class="cls-1" cx="999.7" cy="376.3" r="22.12"/><circle class="cls-1" cx="999.7" cy="287.75" r="22.12"/><circle class="cls-1" cx="999.7" cy="199.21" r="22.12"/><circle class="cls-1" cx="999.7" cy="110.67" r="22.12"/><circle class="cls-1" cx="999.7" cy="22.12" r="22.12"/><circle class="cls-1" cx="1088.25" cy="996.1" r="22.12"/><circle class="cls-1" cx="1088.25" cy="907.56" r="22.12"/><circle class="cls-1" cx="1088.25" cy="819.02" r="22.12"/><circle class="cls-1" cx="1088.25" cy="730.47" r="22.12"/><circle class="cls-1" cx="1088.25" cy="641.93" r="22.12"/><circle class="cls-1" cx="1088.25" cy="553.38" r="22.12"/><circle class="cls-1" cx="1088.25" cy="464.84" r="22.12"/><circle class="cls-1" cx="1088.25" cy="376.3" r="22.12"/><circle class="cls-1" cx="1088.25" cy="287.75" r="22.12"/><circle class="cls-1" cx="1088.25" cy="199.21" r="22.12"/><circle class="cls-1" cx="1088.25" cy="110.67" r="22.12"/><circle class="cls-1" cx="1088.25" cy="22.12" r="22.12"/><circle class="cls-1" cx="1176.79" cy="996.1" r="22.12"/><circle class="cls-1" cx="1176.79" cy="907.56" r="22.12"/><circle class="cls-1" cx="1176.79" cy="819.02" r="22.12"/><circle class="cls-1" cx="1176.79" cy="730.47" r="22.12"/><circle class="cls-1" cx="1176.79" cy="641.93" r="22.12"/><circle class="cls-1" cx="1176.79" cy="553.38" r="22.12"/><circle class="cls-1" cx="1176.79" cy="464.84" r="22.12"/><circle class="cls-1" cx="1176.79" cy="376.3" r="22.12"/><circle class="cls-1" cx="1176.79" cy="287.75" r="22.12"/><circle class="cls-1" cx="1176.79" cy="199.21" r="22.12"/><circle class="cls-1" cx="1176.79" cy="110.67" r="22.12"/><circle class="cls-1" cx="1176.79" cy="22.12" r="22.12"/><circle class="cls-1" cx="1353.88" cy="996.1" r="22.12"/><circle class="cls-1" cx="1353.88" cy="907.56" r="22.12"/><circle class="cls-1" cx="1353.88" cy="819.02" r="22.12"/><circle class="cls-1" cx="1353.88" cy="730.47" r="22.12"/><circle class="cls-1" cx="1353.88" cy="641.93" r="22.12"/><circle class="cls-1" cx="1353.88" cy="553.38" r="22.12"/><circle class="cls-1" cx="1353.88" cy="464.84" r="22.12"/><circle class="cls-1" cx="1353.88" cy="376.3" r="22.12"/><circle class="cls-1" cx="1353.88" cy="287.75" r="22.12"/><circle class="cls-1" cx="1353.88" cy="199.21" r="22.12"/><circle class="cls-1" cx="1353.88" cy="110.67" r="22.12"/><circle class="cls-1" cx="1353.88" cy="22.12" r="22.12"/><circle class="cls-1" cx="1265.33" cy="996.1" r="22.12"/><circle class="cls-1" cx="1265.33" cy="907.56" r="22.12"/><circle class="cls-1" cx="1265.33" cy="819.02" r="22.12"/><circle class="cls-1" cx="1265.33" cy="730.47" r="22.12"/><circle class="cls-1" cx="1265.33" cy="641.93" r="22.12"/><circle class="cls-1" cx="1265.33" cy="553.38" r="22.12"/><circle class="cls-1" cx="1265.33" cy="464.84" r="22.12"/><circle class="cls-1" cx="1265.33" cy="376.3" r="22.12"/><circle class="cls-1" cx="1265.33" cy="287.75" r="22.12"/><circle class="cls-1" cx="1265.33" cy="199.21" r="22.12"/><circle class="cls-1" cx="1265.33" cy="110.67" r="22.12"/><circle class="cls-1" cx="1265.33" cy="22.12" r="22.12"/></g></g></g></g></svg>