<svg xmlns="http://www.w3.org/2000/svg" viewBox="0 0 2736.89 102.89"><defs><style>.cls-1{fill:#222;}</style></defs><title>shape-multiple-slice</title><g id="Layer_2" data-name="Layer 2"><g id="Layer_1-2" data-name="Layer 1"><g id="Layer_2-2" data-name="Layer 2"><g id="_Layer_" data-name=" Layer "><rect class="cls-1" x="-19.41" y="49.51" width="141.57" height="3.78" transform="translate(-21.29 51.4) rotate(-45.01)"/><rect class="cls-1" x="119.24" y="49.51" width="141.57" height="3.78" transform="translate(19.33 149.45) rotate(-45.01)"/><rect class="cls-1" x="257.88" y="49.52" width="141.57" height="3.78" transform="translate(59.95 247.5) rotate(-45.01)"/><rect class="cls-1" x="396.51" y="49.52" width="141.57" height="3.78" transform="translate(100.57 345.55) rotate(-45.01)"/><rect class="cls-1" x="535.15" y="49.53" width="141.57" height="3.78" transform="translate(141.18 443.6) rotate(-45.01)"/><rect class="cls-1" x="673.8" y="49.53" width="141.57" height="3.78" transform="translate(181.81 541.66) rotate(-45.01)"/><rect class="cls-1" x="812.43" y="49.55" width="141.57" height="3.78" transform="translate(222.42 639.71) rotate(-45.01)"/><rect class="cls-1" x="951.07" y="49.55" width="141.57" height="3.78" transform="translate(263.04 737.75) rotate(-45.01)"/><rect class="cls-1" x="1089.7" y="49.55" width="141.57" height="3.78" transform="translate(303.67 835.8) rotate(-45.01)"/><rect class="cls-1" x="1228.35" y="49.56" width="141.57" height="3.78" transform="translate(344.28 933.86) rotate(-45.01)"/><rect class="cls-1" x="1366.98" y="49.56" width="141.57" height="3.78" transform="translate(384.9 1031.91) rotate(-45.01)"/><rect class="cls-1" x="1505.62" y="49.57" width="141.57" height="3.78" transform="translate(425.52 1129.96) rotate(-45.01)"/><rect class="cls-1" x="1644.25" y="49.57" width="141.57" height="3.78" transform="translate(466.14 1228) rotate(-45.01)"/><rect class="cls-1" x="1782.9" y="49.58" width="141.57" height="3.78" transform="translate(506.76 1326.06) rotate(-45.01)"/><rect class="cls-1" x="1921.54" y="49.59" width="141.57" height="3.78" transform="translate(547.38 1424.11) rotate(-45.01)"/><rect class="cls-1" x="2060.17" y="49.59" width="141.57" height="3.78" transform="translate(588 1522.16) rotate(-45.01)"/><rect class="cls-1" x="2198.81" y="49.6" width="141.57" height="3.78" transform="translate(628.62 1620.21) rotate(-45.01)"/><rect class="cls-1" x="2337.44" y="49.6" width="141.57" height="3.78" transform="translate(669.24 1718.26) rotate(-45.01)"/><rect class="cls-1" x="2476.09" y="49.61" width="141.57" height="3.78" transform="translate(709.86 1816.32) rotate(-45.01)"/><rect class="cls-1" x="2614.73" y="49.61" width="141.57" height="3.78" transform="translate(750.48 1914.36) rotate(-45.01)"/></g></g></g></g></svg>