<svg xmlns="http://www.w3.org/2000/svg" xmlns:xlink="http://www.w3.org/1999/xlink" viewBox="0 0 160.77 130.37"><defs><style>.cls-1{isolation:isolate;}.cls-2{fill:#fff;}.cls-3{opacity:0.3;mix-blend-mode:multiply;fill:url(#linear-gradient);}.cls-4{fill:#f4f4f4;}.cls-5{fill:#222;}</style><linearGradient id="linear-gradient" x1="120.61" y1="130.15" x2="108.72" y2="-15.17" gradientUnits="userSpaceOnUse"><stop offset="0.31" stop-color="#fff"/><stop offset="1" stop-color="#222"/></linearGradient></defs><title>Asset 3</title><g class="cls-1"><g id="Layer_2" data-name="Layer 2"><g id="object"><path class="cls-2" d="M129.62,130.37H0A355.76,355.76,0,0,1,6.71,61.83q1.35-6.82,3-13.61l-.59,0c1.65-8.18,3.21-17.7,7.28-28,2.26-5.69,4.67-11.5,7.1-16.39a.08.08,0,0,0,0,0c.58-1.16,1.16-2.27,1.74-3.31C28.65.43,32.07.4,35.5.38Q41.71.32,47.91.3c3.6,0,7.21,0,10.81,0q6.27,0,12.55,0h34.86l13,0c3.81,0,7.63,0,11.44,0L144,.12,155.87,0h1l0,.05,4,0C126.07,62.29,129.62,130.37,129.62,130.37Z"/><path class="cls-3" d="M129.62,130.37H106.07a74.51,74.51,0,0,1-10.88-4.31,58.69,58.69,0,0,1-9.74-6A48.27,48.27,0,0,1,74.7,108.69a51.87,51.87,0,0,1-7.82-19.35C64.46,77,65.7,63.59,68.52,51.05,74.59,24,88,1,88,1L94.65.86,105.87.72,119,.55,130.47.4,143.93.22,155.84.06h.95l4,0C126.07,62.29,129.62,130.37,129.62,130.37Z"/><path class="cls-4" d="M155.87,0l0,0a233.42,233.42,0,0,0-21.59,40.46q-2.34,5.64-4.36,11.39a236.22,236.22,0,0,0-13.43,78.45H0A355.76,355.76,0,0,1,6.71,61.83q1.35-6.82,3-13.61A351.38,351.38,0,0,1,23.47,3.82a.08.08,0,0,0,0,0c.58-1.16,1.16-2.27,1.74-3.31C28.65.43,32.07.4,35.5.38Q41.71.32,47.91.3c3.6,0,7.21,0,10.81,0q6.27,0,12.55,0h34.86l13,0c3.81,0,7.63,0,11.44,0L144,.12Z"/><path class="cls-5" d="M82.23.23Q78.48,8,75.19,16A294.71,294.71,0,0,0,63.26,50.79a301.28,301.28,0,0,0-10.74,79.57H42.63a311.41,311.41,0,0,1,10.5-80.05A305,305,0,0,1,66,12.17q2.49-6,5.23-11.93Z"/><path class="cls-5" d="M35.5.38A338.64,338.64,0,0,0,19.76,48.7q-1.85,7.48-3.34,15A345.36,345.36,0,0,0,9.9,130.36H0A355.76,355.76,0,0,1,6.71,61.83q1.35-6.82,3-13.61A351.38,351.38,0,0,1,23.47,3.82a.08.08,0,0,0,0,0c.58-1.16,1.16-2.27,1.74-3.31C28.65.43,32.07.4,35.5.38Z"/><path class="cls-5" d="M58.72.26Q57.06,4,55.5,7.78a316.51,316.51,0,0,0-14,42,323.17,323.17,0,0,0-10.26,80.61h-9.9a333,333,0,0,1,10.07-81.1A324.89,324.89,0,0,1,46.36,4c.51-1.23,1-2.45,1.55-3.68C51.51.28,55.12.26,58.72.26Z"/><path class="cls-5" d="M106.13.24c-.09.16-.18.32-.26.48q-6,11.45-11,23.43a274.7,274.7,0,0,0-9.76,27.69A278.37,278.37,0,0,0,74.7,108.69q-.86,10.82-.86,21.67h-9.9a290.21,290.21,0,0,1,2.94-41,285.66,285.66,0,0,1,8.08-38,280,280,0,0,1,10.77-31Q89.82,10.43,94.65.86c.11-.21.21-.42.32-.62Z"/><path class="cls-5" d="M130.59.19a2.25,2.25,0,0,0-.12.21,253.26,253.26,0,0,0-15.91,31.93q-4.19,10.13-7.49,20.57a258.11,258.11,0,0,0-11.88,73.15c0,1.43,0,2.87,0,4.31h-9.9q0-5.16.2-10.31A268.19,268.19,0,0,1,96.86,52.41q3.69-12.13,8.56-23.88A260.24,260.24,0,0,1,119,.55a2.68,2.68,0,0,1,.18-.33C123,.22,126.78.21,130.59.19Z"/><path class="cls-5" d="M155.87,0l0,0a233.42,233.42,0,0,0-21.59,40.46q-2.34,5.64-4.36,11.39a236.22,236.22,0,0,0-13.43,78.45h-9.9a246.21,246.21,0,0,1,12.33-76.89q2.79-8.49,6.21-16.75A244.1,244.1,0,0,1,143.93.22l.07-.1Z"/></g></g></g></svg>