<svg xmlns="http://www.w3.org/2000/svg" xmlns:xlink="http://www.w3.org/1999/xlink" viewBox="0 0 308.02 308.8"><defs><style>.cls-1{isolation:isolate;}.cls-2{fill:#222;}.cls-3{opacity:0.4;mix-blend-mode:multiply;}.cls-4{fill:url(#linear-gradient);}</style><linearGradient id="linear-gradient" x1="3771.65" y1="-185.1" x2="3771.07" y2="-111.3" gradientTransform="matrix(-1, 0, 0, 1, 4021.16, 424.46)" gradientUnits="userSpaceOnUse"><stop offset="0" stop-color="#fff" stop-opacity="0"/><stop offset="1" stop-color="#222"/></linearGradient></defs><title>Asset 5</title><g class="cls-1"><g id="Layer_2" data-name="Layer 2"><g id="object"><path class="cls-2" d="M261.88,308.8h8.7A272.2,272.2,0,0,0,250,205a272.16,272.16,0,0,0-58.68-88,271.44,271.44,0,0,0-87.77-58.83A270.39,270.39,0,0,0,0,37.54v8.71a261.86,261.86,0,0,1,100.23,20,262.6,262.6,0,0,1,85,56.94A263.21,263.21,0,0,1,242,208.32,263.36,263.36,0,0,1,261.88,308.8Z"/><path class="cls-2" d="M60,5.91A306.08,306.08,0,0,1,117.9,23.49a308.46,308.46,0,0,1,99.9,67A309.46,309.46,0,0,1,284.59,190.6a308.24,308.24,0,0,1,17.53,58,312.68,312.68,0,0,1,5.9,60.2h-8.7a303.69,303.69,0,0,0-5.73-58.5,298.67,298.67,0,0,0-17-56.36,300.59,300.59,0,0,0-64.91-97.33,299.88,299.88,0,0,0-97.08-65.07A297.58,297.58,0,0,0,58.36,14.46,301.49,301.49,0,0,0,0,8.72V0A310.19,310.19,0,0,1,60,5.91Z"/><path class="cls-2" d="M204.56,103.72a290.85,290.85,0,0,1,62.74,94.07,291.13,291.13,0,0,1,22,111h-8.7a282.09,282.09,0,0,0-21.33-107.67,282.11,282.11,0,0,0-60.85-91.25,281.43,281.43,0,0,0-91-61A280.27,280.27,0,0,0,0,27.49V18.77A289,289,0,0,1,110.73,40.82,290,290,0,0,1,204.56,103.72Z"/><path class="cls-2" d="M178.09,130.26a253.36,253.36,0,0,1,54.62,81.91,253.26,253.26,0,0,1,19.14,96.63h-8.69a244.65,244.65,0,0,0-18.48-93.29,244.49,244.49,0,0,0-52.74-79.09A243.87,243.87,0,0,0,93.06,83.55,243,243,0,0,0,0,65V56.31A251.4,251.4,0,0,1,96.39,75.5,252.44,252.44,0,0,1,178.09,130.26Z"/><path class="cls-2" d="M164.85,143.53a234.59,234.59,0,0,1,50.57,75.83,234.56,234.56,0,0,1,17.71,89.44h-8.69a225.76,225.76,0,0,0-17.05-86.1,225.73,225.73,0,0,0-48.69-73,225,225,0,0,0-72.81-48.81A224.23,224.23,0,0,0,0,83.79V75.08A232.64,232.64,0,0,1,89.22,92.84,233.71,233.71,0,0,1,164.85,143.53Z"/><path class="cls-2" d="M151.61,156.8a215.58,215.58,0,0,1,46.51,69.75,215.48,215.48,0,0,1,16.29,82.25h-8.69a206.87,206.87,0,0,0-15.63-78.91A206.82,206.82,0,0,0,145.46,163a206.46,206.46,0,0,0-66.74-44.75A205.76,205.76,0,0,0,0,102.56V93.84a214.37,214.37,0,0,1,82.05,16.33A215.17,215.17,0,0,1,151.61,156.8Z"/><g class="cls-3"><path class="cls-4" d="M233.57,235c21.93.7,43.88,1.19,65.82,1.25,1,4.11,1.91,8.23,2.73,12.37a312.68,312.68,0,0,1,5.9,60.2H205.72a208.22,208.22,0,0,0-8.43-58.49q-2.52-8.56-5.78-16.88Q212.53,234.27,233.57,235Z"/></g></g></g></g></svg>