<svg xmlns="http://www.w3.org/2000/svg" viewBox="0 0 1231.24 260.33"><defs><style>.cls-1{fill:#dba327;}</style></defs><title>shape-box-dotted-sm</title><g id="Layer_2" data-name="Layer 2"><g id="Layer_1-2" data-name="Layer 1"><g id="Layer_2-2" data-name="Layer 2"><g id="_Layer_" data-name=" Layer "><circle class="cls-1" cx="26.75" cy="26.75" r="26.75"/><circle class="cls-1" cx="133.82" cy="26.75" r="26.75"/><circle class="cls-1" cx="240.88" cy="26.75" r="26.75"/><circle class="cls-1" cx="347.95" cy="26.75" r="26.75"/><circle class="cls-1" cx="455.02" cy="26.75" r="26.75" transform="translate(297.56 454.49) rotate(-73.15)"/><circle class="cls-1" cx="562.09" cy="26.75" r="26.75"/><circle class="cls-1" cx="669.15" cy="26.75" r="26.75"/><circle class="cls-1" cx="776.22" cy="26.75" r="26.75"/><circle class="cls-1" cx="883.29" cy="26.75" r="26.75"/><circle class="cls-1" cx="990.36" cy="26.75" r="26.75"/><circle class="cls-1" cx="26.75" cy="133.82" r="26.75"/><circle class="cls-1" cx="133.82" cy="133.82" r="26.75"/><circle class="cls-1" cx="240.88" cy="133.82" r="26.75" transform="translate(70.21 350.16) rotate(-80.78)"/><circle class="cls-1" cx="347.95" cy="133.82" r="26.75"/><circle class="cls-1" cx="455.02" cy="133.82" r="26.75" transform="matrix(0.38, -0.92, 0.92, 0.38, 157.26, 502.99)"/><circle class="cls-1" cx="562.09" cy="133.82" r="26.75"/><circle class="cls-1" cx="669.15" cy="133.82" r="26.75"/><circle class="cls-1" cx="776.22" cy="133.82" r="26.75"/><circle class="cls-1" cx="883.29" cy="133.82" r="26.75"/><circle class="cls-1" cx="990.36" cy="133.82" r="26.75"/><circle class="cls-1" cx="1097.42" cy="26.75" r="26.75"/><circle class="cls-1" cx="1097.42" cy="133.82" r="26.75"/><circle class="cls-1" cx="1204.49" cy="26.75" r="26.75"/><circle class="cls-1" cx="1204.49" cy="133.82" r="26.75"/><circle class="cls-1" cx="26.75" cy="233.58" r="26.75"/><circle class="cls-1" cx="133.82" cy="233.58" r="26.75"/><circle class="cls-1" cx="240.88" cy="233.58" r="26.75"/><circle class="cls-1" cx="347.95" cy="233.58" r="26.75"/><circle class="cls-1" cx="455.02" cy="233.58" r="26.75" transform="translate(139.6 636.22) rotate(-79.1)"/><circle class="cls-1" cx="562.09" cy="233.58" r="26.75"/><circle class="cls-1" cx="669.15" cy="233.58" r="26.75"/><circle class="cls-1" cx="776.22" cy="233.58" r="26.75"/><circle class="cls-1" cx="883.29" cy="233.58" r="26.75"/><circle class="cls-1" cx="990.36" cy="233.58" r="26.75"/><circle class="cls-1" cx="1097.42" cy="233.58" r="26.75"/><circle class="cls-1" cx="1204.49" cy="233.58" r="26.75"/></g></g></g></g></svg>